<?xml version="1.0" encoding="utf-8" standalone="no"?>
<!DOCTYPE svg PUBLIC "-//W3C//DTD SVG 1.1//EN"
  "http://www.w3.org/Graphics/SVG/1.1/DTD/svg11.dtd">
<svg height="360pt" version="1.1" viewBox="0 0 864 360" width="864pt" xmlns="http://www.w3.org/2000/svg" xmlns:xlink="http://www.w3.org/1999/xlink">
 <metadata>
  <rdf:RDF xmlns:cc="http://creativecommons.org/ns#" xmlns:dc="http://purl.org/dc/elements/1.1/" xmlns:rdf="http://www.w3.org/1999/02/22-rdf-syntax-ns#">
   <cc:Work>
    <dc:type rdf:resource="http://purl.org/dc/dcmitype/StillImage"/>
    <dc:date>2023-06-29T15:28:23.562737</dc:date>
    <dc:format>image/svg+xml</dc:format>
    <dc:creator>
     <cc:Agent>
      <dc:title>Matplotlib v3.4.3, https://matplotlib.org/</dc:title>
     </cc:Agent>
    </dc:creator>
   </cc:Work>
  </rdf:RDF>
 </metadata>
 <defs>
  <style type="text/css">*{stroke-linecap:butt;stroke-linejoin:round;}</style>
 </defs>
 <g id="figure_1">
  <g id="patch_1">
   <path d="M 0 360 
L 864 360 
L 864 0 
L 0 0 
z
" style="fill:none;"/>
  </g>
  <g id="axes_1">
   <g id="patch_2">
    <path d="M 86.4 170.156522 
L 820.8 170.156522 
L 820.8 43.2 
L 86.4 43.2 
z
" style="fill:#ffffff;"/>
   </g>
   <g id="matplotlib.axis_1">
    <g id="xtick_1">
     <g id="line2d_1">
      <defs>
       <path d="M 0 0 
L 0 3.5 
" id="mc2be6fea18" style="stroke:#000000;stroke-width:0.8;"/>
      </defs>
      <g>
       <use style="stroke:#000000;stroke-width:0.8;" x="118.488068" xlink:href="#mc2be6fea18" y="170.156522"/>
      </g>
     </g>
    </g>
    <g id="xtick_2">
     <g id="line2d_2">
      <g>
       <use style="stroke:#000000;stroke-width:0.8;" x="341.964676" xlink:href="#mc2be6fea18" y="170.156522"/>
      </g>
     </g>
    </g>
    <g id="xtick_3">
     <g id="line2d_3">
      <g>
       <use style="stroke:#000000;stroke-width:0.8;" x="565.441284" xlink:href="#mc2be6fea18" y="170.156522"/>
      </g>
     </g>
    </g>
    <g id="xtick_4">
     <g id="line2d_4">
      <g>
       <use style="stroke:#000000;stroke-width:0.8;" x="788.917892" xlink:href="#mc2be6fea18" y="170.156522"/>
      </g>
     </g>
    </g>
   </g>
   <g id="matplotlib.axis_2">
    <g id="ytick_1">
     <g id="line2d_5">
      <defs>
       <path d="M 0 0 
L -3.5 0 
" id="m78f83dc1ab" style="stroke:#000000;stroke-width:0.8;"/>
      </defs>
      <g>
       <use style="stroke:#000000;stroke-width:0.8;" x="86.4" xlink:href="#m78f83dc1ab" y="152.314944"/>
      </g>
     </g>
     <g id="text_1">
      <!-- −2 -->
      <g transform="translate(61.709375 156.874007)scale(0.12 -0.12)">
       <defs>
        <path d="M 678 2272 
L 4684 2272 
L 4684 1741 
L 678 1741 
L 678 2272 
z
" id="DejaVuSans-2212" transform="scale(0.015625)"/>
        <path d="M 1228 531 
L 3431 531 
L 3431 0 
L 469 0 
L 469 531 
Q 828 903 1448 1529 
Q 2069 2156 2228 2338 
Q 2531 2678 2651 2914 
Q 2772 3150 2772 3378 
Q 2772 3750 2511 3984 
Q 2250 4219 1831 4219 
Q 1534 4219 1204 4116 
Q 875 4013 500 3803 
L 500 4441 
Q 881 4594 1212 4672 
Q 1544 4750 1819 4750 
Q 2544 4750 2975 4387 
Q 3406 4025 3406 3419 
Q 3406 3131 3298 2873 
Q 3191 2616 2906 2266 
Q 2828 2175 2409 1742 
Q 1991 1309 1228 531 
z
" id="DejaVuSans-32" transform="scale(0.015625)"/>
       </defs>
       <use xlink:href="#DejaVuSans-2212"/>
       <use x="83.789062" xlink:href="#DejaVuSans-32"/>
      </g>
     </g>
    </g>
    <g id="ytick_2">
     <g id="line2d_6">
      <g>
       <use style="stroke:#000000;stroke-width:0.8;" x="86.4" xlink:href="#m78f83dc1ab" y="114.52204"/>
      </g>
     </g>
     <g id="text_2">
      <!-- 0 -->
      <g transform="translate(71.765 119.081103)scale(0.12 -0.12)">
       <defs>
        <path d="M 2034 4250 
Q 1547 4250 1301 3770 
Q 1056 3291 1056 2328 
Q 1056 1369 1301 889 
Q 1547 409 2034 409 
Q 2525 409 2770 889 
Q 3016 1369 3016 2328 
Q 3016 3291 2770 3770 
Q 2525 4250 2034 4250 
z
M 2034 4750 
Q 2819 4750 3233 4129 
Q 3647 3509 3647 2328 
Q 3647 1150 3233 529 
Q 2819 -91 2034 -91 
Q 1250 -91 836 529 
Q 422 1150 422 2328 
Q 422 3509 836 4129 
Q 1250 4750 2034 4750 
z
" id="DejaVuSans-30" transform="scale(0.015625)"/>
       </defs>
       <use xlink:href="#DejaVuSans-30"/>
      </g>
     </g>
    </g>
    <g id="ytick_3">
     <g id="line2d_7">
      <g>
       <use style="stroke:#000000;stroke-width:0.8;" x="86.4" xlink:href="#m78f83dc1ab" y="76.729136"/>
      </g>
     </g>
     <g id="text_3">
      <!-- 2 -->
      <g transform="translate(71.765 81.288199)scale(0.12 -0.12)">
       <use xlink:href="#DejaVuSans-32"/>
      </g>
     </g>
    </g>
    <g id="text_4">
     <!-- THC FGL -->
     <g transform="translate(41.776375 132.394823)rotate(-90)scale(0.12 -0.12)">
      <defs>
       <path d="M -19 4666 
L 3928 4666 
L 3928 4134 
L 2272 4134 
L 2272 0 
L 1638 0 
L 1638 4134 
L -19 4134 
L -19 4666 
z
" id="DejaVuSans-54" transform="scale(0.015625)"/>
       <path d="M 628 4666 
L 1259 4666 
L 1259 2753 
L 3553 2753 
L 3553 4666 
L 4184 4666 
L 4184 0 
L 3553 0 
L 3553 2222 
L 1259 2222 
L 1259 0 
L 628 0 
L 628 4666 
z
" id="DejaVuSans-48" transform="scale(0.015625)"/>
       <path d="M 4122 4306 
L 4122 3641 
Q 3803 3938 3442 4084 
Q 3081 4231 2675 4231 
Q 1875 4231 1450 3742 
Q 1025 3253 1025 2328 
Q 1025 1406 1450 917 
Q 1875 428 2675 428 
Q 3081 428 3442 575 
Q 3803 722 4122 1019 
L 4122 359 
Q 3791 134 3420 21 
Q 3050 -91 2638 -91 
Q 1578 -91 968 557 
Q 359 1206 359 2328 
Q 359 3453 968 4101 
Q 1578 4750 2638 4750 
Q 3056 4750 3426 4639 
Q 3797 4528 4122 4306 
z
" id="DejaVuSans-43" transform="scale(0.015625)"/>
       <path id="DejaVuSans-20" transform="scale(0.015625)"/>
       <path d="M 628 4666 
L 3309 4666 
L 3309 4134 
L 1259 4134 
L 1259 2759 
L 3109 2759 
L 3109 2228 
L 1259 2228 
L 1259 0 
L 628 0 
L 628 4666 
z
" id="DejaVuSans-46" transform="scale(0.015625)"/>
       <path d="M 3809 666 
L 3809 1919 
L 2778 1919 
L 2778 2438 
L 4434 2438 
L 4434 434 
Q 4069 175 3628 42 
Q 3188 -91 2688 -91 
Q 1594 -91 976 548 
Q 359 1188 359 2328 
Q 359 3472 976 4111 
Q 1594 4750 2688 4750 
Q 3144 4750 3555 4637 
Q 3966 4525 4313 4306 
L 4313 3634 
Q 3963 3931 3569 4081 
Q 3175 4231 2741 4231 
Q 1884 4231 1454 3753 
Q 1025 3275 1025 2328 
Q 1025 1384 1454 906 
Q 1884 428 2741 428 
Q 3075 428 3337 486 
Q 3600 544 3809 666 
z
" id="DejaVuSans-47" transform="scale(0.015625)"/>
       <path d="M 628 4666 
L 1259 4666 
L 1259 531 
L 3531 531 
L 3531 0 
L 628 0 
L 628 4666 
z
" id="DejaVuSans-4c" transform="scale(0.015625)"/>
      </defs>
      <use xlink:href="#DejaVuSans-54"/>
      <use x="61.083984" xlink:href="#DejaVuSans-48"/>
      <use x="136.279297" xlink:href="#DejaVuSans-43"/>
      <use x="206.103516" xlink:href="#DejaVuSans-20"/>
      <use x="237.890625" xlink:href="#DejaVuSans-46"/>
      <use x="295.410156" xlink:href="#DejaVuSans-47"/>
      <use x="372.900391" xlink:href="#DejaVuSans-4c"/>
     </g>
     <!-- [nT GSM] -->
     <g transform="translate(55.21375 134.369198)rotate(-90)scale(0.12 -0.12)">
      <defs>
       <path d="M 550 4863 
L 1875 4863 
L 1875 4416 
L 1125 4416 
L 1125 -397 
L 1875 -397 
L 1875 -844 
L 550 -844 
L 550 4863 
z
" id="DejaVuSans-5b" transform="scale(0.015625)"/>
       <path d="M 3513 2113 
L 3513 0 
L 2938 0 
L 2938 2094 
Q 2938 2591 2744 2837 
Q 2550 3084 2163 3084 
Q 1697 3084 1428 2787 
Q 1159 2491 1159 1978 
L 1159 0 
L 581 0 
L 581 3500 
L 1159 3500 
L 1159 2956 
Q 1366 3272 1645 3428 
Q 1925 3584 2291 3584 
Q 2894 3584 3203 3211 
Q 3513 2838 3513 2113 
z
" id="DejaVuSans-6e" transform="scale(0.015625)"/>
       <path d="M 3425 4513 
L 3425 3897 
Q 3066 4069 2747 4153 
Q 2428 4238 2131 4238 
Q 1616 4238 1336 4038 
Q 1056 3838 1056 3469 
Q 1056 3159 1242 3001 
Q 1428 2844 1947 2747 
L 2328 2669 
Q 3034 2534 3370 2195 
Q 3706 1856 3706 1288 
Q 3706 609 3251 259 
Q 2797 -91 1919 -91 
Q 1588 -91 1214 -16 
Q 841 59 441 206 
L 441 856 
Q 825 641 1194 531 
Q 1563 422 1919 422 
Q 2459 422 2753 634 
Q 3047 847 3047 1241 
Q 3047 1584 2836 1778 
Q 2625 1972 2144 2069 
L 1759 2144 
Q 1053 2284 737 2584 
Q 422 2884 422 3419 
Q 422 4038 858 4394 
Q 1294 4750 2059 4750 
Q 2388 4750 2728 4690 
Q 3069 4631 3425 4513 
z
" id="DejaVuSans-53" transform="scale(0.015625)"/>
       <path d="M 628 4666 
L 1569 4666 
L 2759 1491 
L 3956 4666 
L 4897 4666 
L 4897 0 
L 4281 0 
L 4281 4097 
L 3078 897 
L 2444 897 
L 1241 4097 
L 1241 0 
L 628 0 
L 628 4666 
z
" id="DejaVuSans-4d" transform="scale(0.015625)"/>
       <path d="M 1947 4863 
L 1947 -844 
L 622 -844 
L 622 -397 
L 1369 -397 
L 1369 4416 
L 622 4416 
L 622 4863 
L 1947 4863 
z
" id="DejaVuSans-5d" transform="scale(0.015625)"/>
      </defs>
      <use xlink:href="#DejaVuSans-5b"/>
      <use x="39.013672" xlink:href="#DejaVuSans-6e"/>
      <use x="102.392578" xlink:href="#DejaVuSans-54"/>
      <use x="163.476562" xlink:href="#DejaVuSans-20"/>
      <use x="195.263672" xlink:href="#DejaVuSans-47"/>
      <use x="272.753906" xlink:href="#DejaVuSans-53"/>
      <use x="336.230469" xlink:href="#DejaVuSans-4d"/>
      <use x="422.509766" xlink:href="#DejaVuSans-5d"/>
     </g>
    </g>
   </g>
   <g id="line2d_8">
    <path clip-path="url(#pa82715dc99)" d="M 119.781815 63.579605 
L 122.575272 62.435493 
L 125.368729 62.360494 
L 130.955643 60.985379 
L 133.7491 60.889435 
L 136.542557 60.43152 
L 139.336014 61.677 
L 142.129471 61.932012 
L 144.922928 60.500234 
L 150.509857 61.658073 
L 153.303314 62.432997 
L 156.096771 62.731074 
L 158.890228 62.6813 
L 161.683685 62.812548 
L 164.477142 63.210908 
L 167.270599 62.359787 
L 170.064056 62.189659 
L 172.857513 61.070456 
L 175.65097 61.81378 
L 178.444427 62.374284 
L 181.237885 62.263496 
L 184.031326 62.757187 
L 186.824799 61.794804 
L 189.618256 60.990159 
L 192.411713 63.042415 
L 195.20517 61.970324 
L 197.998627 63.342844 
L 200.792084 63.327333 
L 203.585541 63.466645 
L 209.172455 62.103086 
L 214.759369 61.533494 
L 217.552826 60.496859 
L 220.346283 59.022863 
L 223.139755 58.596989 
L 228.726669 61.950371 
L 231.520126 61.892086 
L 234.313583 62.37738 
L 237.10704 63.230762 
L 239.900497 62.240176 
L 242.693954 61.929827 
L 245.487411 62.002807 
L 248.280869 61.576037 
L 251.07431 62.200228 
L 253.867767 63.06177 
L 259.454697 61.317633 
L 262.248154 61.539252 
L 265.041611 61.591549 
L 267.835068 61.315124 
L 270.628525 60.913795 
L 273.421982 60.727443 
L 276.215439 60.088786 
L 279.008896 60.356624 
L 281.802353 60.449158 
L 284.59581 59.800949 
L 287.389267 58.94676 
L 290.182724 57.595797 
L 295.769653 58.135244 
L 298.56311 56.224561 
L 301.356567 55.669274 
L 304.150024 55.365624 
L 306.943481 56.933231 
L 309.736938 57.243963 
L 312.530396 55.485252 
L 315.323853 54.903284 
L 318.11731 54.53087 
L 320.910751 54.73485 
L 323.704208 55.647374 
L 326.497665 55.339308 
L 329.291138 55.390763 
L 332.084595 54.575337 
L 334.878052 55.598564 
L 337.671509 53.503205 
L 340.464966 54.146697 
L 343.258423 53.556426 
L 346.05188 53.137689 
L 348.845337 54.73276 
L 351.638794 53.236314 
L 354.432251 52.469941 
L 357.225708 53.237359 
L 360.019165 51.830414 
L 362.812622 52.265672 
L 365.606094 51.775684 
L 368.399551 50.504154 
L 371.193008 49.596956 
L 373.986465 49.902219 
L 376.779922 50.335031 
L 379.57338 50.083119 
L 382.366837 50.271845 
L 385.160294 51.91373 
L 387.953751 49.233476 
L 390.747192 50.323925 
L 393.540649 48.970751 
L 396.334106 50.032331 
L 399.127579 50.685559 
L 401.921036 49.406852 
L 404.714493 50.243416 
L 407.50795 50.032304 
L 410.301407 51.913469 
L 413.094864 50.323862 
L 415.888321 50.469603 
L 418.681778 52.884601 
L 421.475235 52.615353 
L 424.268692 53.683083 
L 427.062149 53.535346 
L 429.855606 54.450726 
L 432.649063 53.816267 
L 435.442535 54.515426 
L 441.029449 56.561258 
L 443.822906 57.026841 
L 446.616364 57.175461 
L 449.409821 58.700299 
L 452.203278 59.708488 
L 454.996735 59.080314 
L 457.790192 60.604188 
L 460.583633 60.565812 
L 463.37709 60.354547 
L 466.170547 63.212363 
L 468.964005 62.442445 
L 471.757477 62.854492 
L 474.550934 65.270832 
L 477.344391 63.993576 
L 480.137848 63.345593 
L 482.931305 66.753555 
L 485.724762 66.213212 
L 488.518219 68.547408 
L 491.311676 68.215 
L 494.105133 67.452209 
L 496.89859 68.719586 
L 499.692047 69.032967 
L 502.485504 69.822727 
L 505.278976 69.774849 
L 508.072433 71.2785 
L 510.865891 72.176746 
L 513.659348 72.27469 
L 516.452805 73.858152 
L 522.039719 75.138814 
L 524.833176 75.675066 
L 527.626633 75.45602 
L 533.213531 77.564257 
L 536.006989 79.131281 
L 538.800446 78.955875 
L 541.593918 78.967147 
L 544.387375 79.656381 
L 549.974289 82.523804 
L 552.767746 82.945064 
L 555.561203 84.394032 
L 558.35466 83.591315 
L 561.148117 83.712306 
L 563.941574 84.792194 
L 566.735031 86.120411 
L 569.528488 85.905614 
L 572.321945 85.490503 
L 575.115402 86.924669 
L 577.908875 86.405239 
L 580.702332 86.887295 
L 583.495789 86.396064 
L 586.289246 85.613551 
L 589.082703 86.645351 
L 591.87616 88.936448 
L 594.669617 88.424983 
L 597.463074 89.678683 
L 603.049973 91.282497 
L 605.84343 91.162107 
L 608.636887 93.333158 
L 611.430344 93.298538 
L 614.223816 93.611036 
L 617.017273 93.724197 
L 619.81073 92.604011 
L 622.604187 91.083258 
L 625.397644 91.641116 
L 628.191101 92.57672 
L 630.984558 94.489347 
L 633.778015 93.719275 
L 636.571472 92.108893 
L 639.364929 92.071056 
L 642.158386 94.13335 
L 644.951843 93.733897 
L 647.745316 94.029154 
L 650.538773 96.17083 
L 653.33223 97.320326 
L 656.125687 95.856357 
L 658.919144 97.147661 
L 661.712601 97.800568 
L 664.506058 97.571623 
L 667.2995 98.053798 
L 670.092957 96.951318 
L 672.886414 97.618032 
L 675.679871 97.072539 
L 678.473328 98.045062 
L 681.266785 99.199667 
L 686.853714 96.937908 
L 689.647171 97.262254 
L 692.440628 96.742356 
L 698.027542 96.492978 
L 703.614456 96.200418 
L 706.407913 96.940388 
L 709.20137 96.800804 
L 711.994827 96.826308 
L 717.581741 95.627701 
L 720.375214 95.343741 
L 723.168671 97.213415 
L 725.962128 94.951326 
L 728.755585 97.905031 
L 731.549042 96.447029 
L 734.342499 97.57352 
L 737.135941 98.000917 
L 739.929398 98.811318 
L 742.722855 97.482862 
L 745.516312 99.660346 
L 748.309769 99.719228 
L 751.103226 97.22055 
L 753.896683 97.760504 
L 756.690155 96.695656 
L 759.483612 97.594366 
L 762.277069 97.114255 
L 765.070526 94.550094 
L 767.863983 93.719406 
L 773.450897 95.875068 
L 776.244354 96.926238 
L 779.037811 97.839035 
L 781.831268 96.646592 
L 784.624725 96.295716 
L 787.418182 97.802382 
L 787.418182 97.802382 
" style="fill:none;stroke:#0000ff;stroke-linecap:square;stroke-width:0.5;"/>
   </g>
   <g id="line2d_9">
    <path clip-path="url(#pa82715dc99)" d="M 119.781815 89.559359 
L 122.575272 90.923105 
L 125.368729 90.860858 
L 128.162186 88.968617 
L 130.955643 90.551493 
L 133.7491 90.271477 
L 136.542557 89.673581 
L 139.336014 87.958868 
L 142.129471 88.490996 
L 144.922928 88.413614 
L 147.716385 86.747236 
L 150.509857 87.658157 
L 153.303314 88.167043 
L 156.096771 87.39179 
L 158.890228 88.070263 
L 161.683685 87.506163 
L 164.477142 85.459694 
L 167.270599 84.94629 
L 170.064056 85.542242 
L 172.857513 84.666571 
L 175.65097 85.210823 
L 178.444427 83.588952 
L 181.237885 83.876895 
L 184.031326 82.909509 
L 189.618256 84.704636 
L 192.411713 82.82381 
L 195.20517 83.301115 
L 197.998627 83.461413 
L 200.792084 83.225285 
L 203.585541 84.657644 
L 206.378998 86.520515 
L 209.172455 86.357602 
L 214.759369 87.524479 
L 220.346283 86.327586 
L 223.139755 87.373643 
L 225.933212 87.759738 
L 228.726669 85.610924 
L 231.520126 85.139732 
L 234.313583 84.42831 
L 237.10704 85.020358 
L 239.900497 85.09137 
L 242.693954 86.20557 
L 245.487411 84.782654 
L 248.280869 84.659606 
L 251.07431 85.11227 
L 253.867767 83.371625 
L 256.66124 84.393971 
L 259.454697 83.850334 
L 262.248154 84.641558 
L 265.041611 84.339059 
L 267.835068 86.013657 
L 270.628525 85.271004 
L 273.421982 86.000837 
L 276.215439 87.116084 
L 279.008896 85.722867 
L 281.802353 88.490575 
L 284.59581 89.016436 
L 287.389267 88.902919 
L 290.182724 90.81704 
L 292.976196 90.118607 
L 295.769653 91.143694 
L 298.56311 91.318859 
L 301.356567 92.155369 
L 304.150024 92.676521 
L 306.943481 92.433664 
L 309.736938 93.812854 
L 312.530396 93.611255 
L 315.323853 95.659795 
L 318.11731 95.982787 
L 320.910751 94.721659 
L 323.704208 96.95295 
L 326.497665 96.200037 
L 329.291138 97.869569 
L 332.084595 97.351684 
L 334.878052 98.642751 
L 337.671509 97.521816 
L 340.464966 98.343241 
L 343.258423 98.664946 
L 346.05188 99.823596 
L 348.845337 99.658158 
L 351.638794 100.11025 
L 354.432251 99.867587 
L 357.225708 99.441308 
L 360.019165 100.629651 
L 362.812622 100.566259 
L 365.606094 102.891787 
L 368.399551 101.326954 
L 371.193008 101.003375 
L 376.779922 103.971921 
L 379.57338 104.890084 
L 382.366837 104.686816 
L 385.160294 106.572612 
L 390.747192 106.950262 
L 393.540649 109.010432 
L 396.334106 108.590001 
L 399.127579 108.361275 
L 401.921036 109.173446 
L 407.50795 111.304979 
L 410.301407 111.570363 
L 413.094864 113.86339 
L 415.888321 113.553971 
L 418.681778 113.444987 
L 421.475235 114.791782 
L 424.268692 116.968819 
L 427.062149 116.200156 
L 429.855606 117.689214 
L 432.649063 117.232645 
L 435.442535 117.559661 
L 438.235992 118.24199 
L 441.029449 118.09323 
L 443.822906 119.24304 
L 446.616364 119.588486 
L 449.409821 121.521287 
L 452.203278 121.39925 
L 454.996735 122.433791 
L 457.790192 122.332419 
L 460.583633 121.88714 
L 463.37709 122.550708 
L 466.170547 124.761919 
L 468.964005 123.783318 
L 471.757477 124.737397 
L 474.550934 125.962626 
L 477.344391 125.203736 
L 480.137848 127.238921 
L 482.931305 127.824796 
L 485.724762 129.739675 
L 488.518219 129.9432 
L 491.311676 129.515661 
L 496.89859 130.07015 
L 499.692047 130.71035 
L 502.485504 132.980994 
L 505.278976 131.804217 
L 513.659348 133.561028 
L 516.452805 133.61319 
L 519.246262 136.163737 
L 524.833176 136.148163 
L 527.626633 135.905011 
L 530.420074 136.520482 
L 533.213531 136.949487 
L 536.006989 138.176393 
L 538.800446 137.229953 
L 541.593918 138.893509 
L 544.387375 138.716982 
L 547.180832 139.072931 
L 549.974289 138.633654 
L 552.767746 140.303092 
L 558.35466 140.360327 
L 563.941574 141.678072 
L 566.735031 141.905804 
L 569.528488 142.368781 
L 577.908875 141.727343 
L 580.702332 142.408499 
L 583.495789 142.20687 
L 586.289246 144.063549 
L 589.082703 144.010745 
L 591.87616 144.312208 
L 594.669617 145.316972 
L 597.463074 146.59863 
L 600.256516 146.311208 
L 603.049973 147.768037 
L 605.84343 147.342089 
L 608.636887 148.508056 
L 611.430344 148.136908 
L 614.223816 148.728877 
L 617.017273 148.145087 
L 619.81073 148.630831 
L 622.604187 147.12778 
L 625.397644 147.94704 
L 628.191101 147.858268 
L 630.984558 148.442065 
L 633.778015 148.319024 
L 636.571472 148.997931 
L 639.364929 146.895538 
L 642.158386 146.068624 
L 644.951843 145.813313 
L 650.538773 144.65889 
L 653.33223 143.724377 
L 656.125687 144.320709 
L 658.919144 144.287111 
L 661.712601 144.38126 
L 664.506058 144.726602 
L 667.2995 144.496942 
L 670.092957 145.786635 
L 672.886414 144.580201 
L 678.473328 145.539111 
L 681.266785 144.140249 
L 684.060257 144.982645 
L 686.853714 145.421584 
L 689.647171 144.739104 
L 692.440628 143.758153 
L 695.234085 143.911577 
L 698.027542 144.435494 
L 703.614456 142.276398 
L 709.20137 143.011513 
L 711.994827 141.924221 
L 714.788284 141.242784 
L 717.581741 143.414565 
L 720.375214 144.539215 
L 723.168671 144.78675 
L 725.962128 144.208303 
L 728.755585 144.5408 
L 731.549042 145.658455 
L 734.342499 146.051574 
L 737.135941 145.56088 
L 739.929398 146.757082 
L 742.722855 147.309617 
L 745.516312 147.659115 
L 751.103226 146.648873 
L 753.896683 146.602941 
L 756.690155 148.586535 
L 759.483612 147.381938 
L 762.277069 148.04853 
L 765.070526 147.591399 
L 767.863983 145.670791 
L 773.450897 145.525823 
L 776.244354 144.165841 
L 779.037811 144.553773 
L 781.831268 143.180001 
L 784.624725 142.713364 
L 787.418182 143.028358 
L 787.418182 143.028358 
" style="fill:none;stroke:#008000;stroke-linecap:square;stroke-width:0.5;"/>
   </g>
   <g id="line2d_10">
    <path clip-path="url(#pa82715dc99)" d="M 119.781815 93.883118 
L 122.575272 91.701248 
L 125.368729 93.518277 
L 128.162186 92.212652 
L 130.955643 95.105332 
L 133.7491 92.837991 
L 136.542557 93.424942 
L 139.336014 91.584345 
L 142.129471 94.562125 
L 144.922928 93.748192 
L 147.716385 94.52763 
L 150.509857 93.766547 
L 153.303314 94.648903 
L 156.096771 94.922751 
L 158.890228 94.135927 
L 161.683685 94.247563 
L 164.477142 93.239566 
L 167.270599 93.521605 
L 170.064056 95.027868 
L 172.857513 93.560546 
L 175.65097 96.259074 
L 178.444427 96.670589 
L 181.237885 96.557614 
L 184.031326 97.607512 
L 186.824799 98.356404 
L 189.618256 99.35441 
L 192.411713 96.889321 
L 195.20517 98.390783 
L 197.998627 97.463281 
L 200.792084 96.875993 
L 203.585541 97.449454 
L 206.378998 96.736543 
L 209.172455 95.519151 
L 211.965912 95.655758 
L 214.759369 94.418921 
L 217.552826 95.973129 
L 220.346283 95.807518 
L 223.139755 94.935611 
L 225.933212 95.443175 
L 228.726669 94.410014 
L 231.520126 95.969526 
L 234.313583 96.715593 
L 237.10704 94.556196 
L 239.900497 93.219315 
L 242.693954 92.403945 
L 245.487411 92.474885 
L 248.280869 92.426602 
L 251.07431 90.981971 
L 253.867767 91.030146 
L 256.66124 90.392491 
L 259.454697 90.283754 
L 262.248154 90.376281 
L 265.041611 89.824001 
L 267.835068 91.090068 
L 270.628525 91.148472 
L 273.421982 90.569412 
L 276.215439 91.655222 
L 279.008896 92.909434 
L 281.802353 93.923835 
L 284.59581 97.019575 
L 287.389267 95.972362 
L 290.182724 99.472014 
L 292.976196 99.717775 
L 295.769653 100.580814 
L 301.356567 103.199301 
L 304.150024 104.171778 
L 306.943481 103.221793 
L 309.736938 105.414973 
L 312.530396 104.149323 
L 315.323853 107.212102 
L 318.11731 107.609437 
L 320.910751 107.10536 
L 326.497665 109.641894 
L 329.291138 110.39591 
L 332.084595 110.470809 
L 334.878052 111.233434 
L 337.671509 111.489292 
L 340.464966 112.975623 
L 343.258423 113.516225 
L 346.05188 112.370659 
L 348.845337 114.077093 
L 351.638794 115.454113 
L 357.225708 115.553727 
L 360.019165 116.239506 
L 362.812622 117.41858 
L 365.606094 118.179758 
L 368.399551 118.61989 
L 371.193008 120.372568 
L 373.986465 121.289093 
L 376.779922 121.425099 
L 379.57338 122.894636 
L 382.366837 123.910991 
L 385.160294 124.255191 
L 387.953751 125.775787 
L 390.747192 126.88544 
L 393.540649 126.043178 
L 396.334106 128.653847 
L 399.127579 128.355911 
L 401.921036 128.661302 
L 404.714493 129.417042 
L 410.301407 131.26912 
L 413.094864 132.475976 
L 418.681778 133.367737 
L 421.475235 134.318223 
L 424.268692 135.036333 
L 429.855606 135.849556 
L 432.649063 136.629771 
L 435.442535 136.725116 
L 438.235992 137.353691 
L 441.029449 137.136145 
L 443.822906 137.638768 
L 446.616364 138.285037 
L 449.409821 138.077621 
L 452.203278 139.199207 
L 454.996735 138.956033 
L 457.790192 140.125499 
L 460.583633 139.582303 
L 466.170547 141.533076 
L 468.964005 141.812844 
L 471.757477 141.709007 
L 474.550934 143.234456 
L 477.344391 144.943375 
L 480.137848 144.625225 
L 482.931305 145.276238 
L 485.724762 147.352214 
L 488.518219 146.357247 
L 491.311676 146.887071 
L 494.105133 146.901366 
L 496.89859 147.052842 
L 499.692047 145.371092 
L 502.485504 148.234307 
L 505.278976 148.274697 
L 508.072433 148.634726 
L 510.865891 149.290918 
L 513.659348 149.63644 
L 516.452805 149.607442 
L 519.246262 150.847424 
L 522.039719 151.231369 
L 524.833176 151.03917 
L 527.626633 150.661561 
L 530.420074 151.606343 
L 533.213531 152.425882 
L 536.006989 153.634946 
L 538.800446 152.784866 
L 541.593918 154.118235 
L 544.387375 154.55093 
L 547.180832 154.237764 
L 549.974289 155.097396 
L 552.767746 154.791642 
L 555.561203 155.374772 
L 558.35466 155.086876 
L 561.148117 156.128106 
L 563.941574 156.375382 
L 566.735031 155.841224 
L 569.528488 157.15924 
L 572.321945 156.593635 
L 575.115402 156.244333 
L 577.908875 157.93442 
L 580.702332 156.288872 
L 583.495789 157.821149 
L 586.289246 158.276379 
L 589.082703 157.765099 
L 591.87616 158.797733 
L 594.669617 159.658878 
L 597.463074 159.696803 
L 603.049973 160.930395 
L 605.84343 160.415267 
L 608.636887 160.633173 
L 611.430344 159.121458 
L 614.223816 159.796406 
L 617.017273 159.649548 
L 622.604187 160.464685 
L 625.397644 160.112923 
L 628.191101 160.112355 
L 630.984558 161.482091 
L 636.571472 160.940261 
L 639.364929 159.588271 
L 642.158386 159.643979 
L 644.951843 159.978671 
L 647.745316 161.609099 
L 653.33223 162.909675 
L 656.125687 162.059666 
L 658.919144 161.996818 
L 661.712601 161.322249 
L 664.506058 161.984455 
L 667.2995 161.122481 
L 670.092957 161.934843 
L 672.886414 160.832342 
L 675.679871 162.767124 
L 678.473328 161.097842 
L 681.266785 161.761629 
L 684.060257 162.604447 
L 686.853714 161.342424 
L 692.440628 163.127829 
L 695.234085 162.037775 
L 698.027542 161.785597 
L 700.820999 160.986751 
L 703.614456 161.125486 
L 709.20137 161.610226 
L 711.994827 160.536986 
L 714.788284 161.072833 
L 717.581741 161.810507 
L 720.375214 161.728669 
L 723.168671 160.645171 
L 725.962128 160.771647 
L 728.755585 159.946724 
L 731.549042 161.181815 
L 734.342499 160.540603 
L 737.135941 161.082506 
L 742.722855 160.230326 
L 745.516312 160.816393 
L 748.309769 161.228062 
L 751.103226 160.228154 
L 753.896683 160.346102 
L 756.690155 161.70439 
L 759.483612 161.009115 
L 762.277069 161.535393 
L 765.070526 161.314631 
L 767.863983 163.228485 
L 770.65744 161.702354 
L 773.450897 162.906607 
L 776.244354 162.041645 
L 779.037811 163.247696 
L 781.831268 164.04893 
L 784.624725 164.084616 
L 787.418182 164.385771 
L 787.418182 164.385771 
" style="fill:none;stroke:#ff0000;stroke-linecap:square;stroke-width:0.5;"/>
   </g>
   <g id="patch_3">
    <path d="M 86.4 170.156522 
L 86.4 43.2 
" style="fill:none;stroke:#000000;stroke-linecap:square;stroke-linejoin:miter;stroke-width:0.8;"/>
   </g>
   <g id="patch_4">
    <path d="M 820.8 170.156522 
L 820.8 43.2 
" style="fill:none;stroke:#000000;stroke-linecap:square;stroke-linejoin:miter;stroke-width:0.8;"/>
   </g>
   <g id="patch_5">
    <path d="M 86.399994 170.156522 
L 820.800003 170.156522 
" style="fill:none;stroke:#000000;stroke-linecap:square;stroke-linejoin:miter;stroke-width:0.8;"/>
   </g>
   <g id="patch_6">
    <path d="M 86.399994 43.2 
L 820.800003 43.2 
" style="fill:none;stroke:#000000;stroke-linecap:square;stroke-linejoin:miter;stroke-width:0.8;"/>
   </g>
   <g id="legend_1">
    <g id="patch_7">
     <path d="M 743.117187 95.234375 
L 813.8 95.234375 
Q 815.8 95.234375 815.8 93.234375 
L 815.8 50.2 
Q 815.8 48.2 813.8 48.2 
L 743.117187 48.2 
Q 741.117187 48.2 741.117187 50.2 
L 741.117187 93.234375 
Q 741.117187 95.234375 743.117187 95.234375 
z
" style="fill:#ffffff;opacity:0.8;stroke:#cccccc;stroke-linejoin:miter;"/>
    </g>
    <g id="text_5">
     <!-- Bx GSM -->
     <g transform="translate(745.117187 59.798437)scale(0.1 -0.1)">
      <defs>
       <path d="M 1259 2228 
L 1259 519 
L 2272 519 
Q 2781 519 3026 730 
Q 3272 941 3272 1375 
Q 3272 1813 3026 2020 
Q 2781 2228 2272 2228 
L 1259 2228 
z
M 1259 4147 
L 1259 2741 
L 2194 2741 
Q 2656 2741 2882 2914 
Q 3109 3088 3109 3444 
Q 3109 3797 2882 3972 
Q 2656 4147 2194 4147 
L 1259 4147 
z
M 628 4666 
L 2241 4666 
Q 2963 4666 3353 4366 
Q 3744 4066 3744 3513 
Q 3744 3084 3544 2831 
Q 3344 2578 2956 2516 
Q 3422 2416 3680 2098 
Q 3938 1781 3938 1306 
Q 3938 681 3513 340 
Q 3088 0 2303 0 
L 628 0 
L 628 4666 
z
" id="DejaVuSans-42" transform="scale(0.015625)"/>
       <path d="M 3513 3500 
L 2247 1797 
L 3578 0 
L 2900 0 
L 1881 1375 
L 863 0 
L 184 0 
L 1544 1831 
L 300 3500 
L 978 3500 
L 1906 2253 
L 2834 3500 
L 3513 3500 
z
" id="DejaVuSans-78" transform="scale(0.015625)"/>
      </defs>
      <use xlink:href="#DejaVuSans-42"/>
      <use x="68.603516" xlink:href="#DejaVuSans-78"/>
      <use x="127.783203" xlink:href="#DejaVuSans-20"/>
      <use x="159.570312" xlink:href="#DejaVuSans-47"/>
      <use x="237.060547" xlink:href="#DejaVuSans-53"/>
      <use x="300.537109" xlink:href="#DejaVuSans-4d"/>
     </g>
    </g>
    <g id="line2d_11">
     <path d="M 791.8 56.298437 
L 811.8 56.298437 
" style="fill:none;stroke:#0000ff;stroke-linecap:square;stroke-width:4;"/>
    </g>
    <g id="line2d_12"/>
    <g id="text_6">
     <!-- By GSM -->
     <g transform="translate(745.117187 74.476562)scale(0.1 -0.1)">
      <defs>
       <path d="M 2059 -325 
Q 1816 -950 1584 -1140 
Q 1353 -1331 966 -1331 
L 506 -1331 
L 506 -850 
L 844 -850 
Q 1081 -850 1212 -737 
Q 1344 -625 1503 -206 
L 1606 56 
L 191 3500 
L 800 3500 
L 1894 763 
L 2988 3500 
L 3597 3500 
L 2059 -325 
z
" id="DejaVuSans-79" transform="scale(0.015625)"/>
      </defs>
      <use xlink:href="#DejaVuSans-42"/>
      <use x="68.603516" xlink:href="#DejaVuSans-79"/>
      <use x="127.783203" xlink:href="#DejaVuSans-20"/>
      <use x="159.570312" xlink:href="#DejaVuSans-47"/>
      <use x="237.060547" xlink:href="#DejaVuSans-53"/>
      <use x="300.537109" xlink:href="#DejaVuSans-4d"/>
     </g>
    </g>
    <g id="line2d_13">
     <path d="M 791.8 70.976562 
L 811.8 70.976562 
" style="fill:none;stroke:#008000;stroke-linecap:square;stroke-width:4;"/>
    </g>
    <g id="line2d_14"/>
    <g id="text_7">
     <!-- Bz GSM -->
     <g transform="translate(745.7875 89.154687)scale(0.1 -0.1)">
      <defs>
       <path d="M 353 3500 
L 3084 3500 
L 3084 2975 
L 922 459 
L 3084 459 
L 3084 0 
L 275 0 
L 275 525 
L 2438 3041 
L 353 3041 
L 353 3500 
z
" id="DejaVuSans-7a" transform="scale(0.015625)"/>
      </defs>
      <use xlink:href="#DejaVuSans-42"/>
      <use x="68.603516" xlink:href="#DejaVuSans-7a"/>
      <use x="121.09375" xlink:href="#DejaVuSans-20"/>
      <use x="152.880859" xlink:href="#DejaVuSans-47"/>
      <use x="230.371094" xlink:href="#DejaVuSans-53"/>
      <use x="293.847656" xlink:href="#DejaVuSans-4d"/>
     </g>
    </g>
    <g id="line2d_15">
     <path d="M 791.8 85.654687 
L 811.8 85.654687 
" style="fill:none;stroke:#ff0000;stroke-linecap:square;stroke-width:4;"/>
    </g>
    <g id="line2d_16"/>
   </g>
  </g>
  <g id="axes_2">
   <g id="patch_8">
    <path d="M 86.4 306 
L 820.8 306 
L 820.8 179.043478 
L 86.4 179.043478 
z
" style="fill:#ffffff;"/>
   </g>
   <g id="matplotlib.axis_3">
    <g id="xtick_5">
     <g id="line2d_17">
      <g>
       <use style="stroke:#000000;stroke-width:0.8;" x="118.488068" xlink:href="#mc2be6fea18" y="306"/>
      </g>
     </g>
     <g id="text_8">
      <!-- 40 -->
      <g transform="translate(110.853068 322.118125)scale(0.12 -0.12)">
       <defs>
        <path d="M 2419 4116 
L 825 1625 
L 2419 1625 
L 2419 4116 
z
M 2253 4666 
L 3047 4666 
L 3047 1625 
L 3713 1625 
L 3713 1100 
L 3047 1100 
L 3047 0 
L 2419 0 
L 2419 1100 
L 313 1100 
L 313 1709 
L 2253 4666 
z
" id="DejaVuSans-34" transform="scale(0.015625)"/>
       </defs>
       <use xlink:href="#DejaVuSans-34"/>
       <use x="63.623047" xlink:href="#DejaVuSans-30"/>
      </g>
     </g>
    </g>
    <g id="xtick_6">
     <g id="line2d_18">
      <g>
       <use style="stroke:#000000;stroke-width:0.8;" x="341.964676" xlink:href="#mc2be6fea18" y="306"/>
      </g>
     </g>
     <g id="text_9">
      <!-- 45 -->
      <g transform="translate(334.329676 322.118125)scale(0.12 -0.12)">
       <defs>
        <path d="M 691 4666 
L 3169 4666 
L 3169 4134 
L 1269 4134 
L 1269 2991 
Q 1406 3038 1543 3061 
Q 1681 3084 1819 3084 
Q 2600 3084 3056 2656 
Q 3513 2228 3513 1497 
Q 3513 744 3044 326 
Q 2575 -91 1722 -91 
Q 1428 -91 1123 -41 
Q 819 9 494 109 
L 494 744 
Q 775 591 1075 516 
Q 1375 441 1709 441 
Q 2250 441 2565 725 
Q 2881 1009 2881 1497 
Q 2881 1984 2565 2268 
Q 2250 2553 1709 2553 
Q 1456 2553 1204 2497 
Q 953 2441 691 2322 
L 691 4666 
z
" id="DejaVuSans-35" transform="scale(0.015625)"/>
       </defs>
       <use xlink:href="#DejaVuSans-34"/>
       <use x="63.623047" xlink:href="#DejaVuSans-35"/>
      </g>
     </g>
    </g>
    <g id="xtick_7">
     <g id="line2d_19">
      <g>
       <use style="stroke:#000000;stroke-width:0.8;" x="565.441284" xlink:href="#mc2be6fea18" y="306"/>
      </g>
     </g>
     <g id="text_10">
      <!-- 50 -->
      <g transform="translate(557.806284 322.118125)scale(0.12 -0.12)">
       <use xlink:href="#DejaVuSans-35"/>
       <use x="63.623047" xlink:href="#DejaVuSans-30"/>
      </g>
     </g>
    </g>
    <g id="xtick_8">
     <g id="line2d_20">
      <g>
       <use style="stroke:#000000;stroke-width:0.8;" x="788.917892" xlink:href="#mc2be6fea18" y="306"/>
      </g>
     </g>
     <g id="text_11">
      <!-- 55 -->
      <g transform="translate(781.282892 322.118125)scale(0.12 -0.12)">
       <use xlink:href="#DejaVuSans-35"/>
       <use x="63.623047" xlink:href="#DejaVuSans-35"/>
      </g>
     </g>
    </g>
    <g id="text_12">
     <!-- 2021-Apr-03 04:57 -->
     <g transform="translate(726.975 335.212188)scale(0.1 -0.1)">
      <defs>
       <path d="M 794 531 
L 1825 531 
L 1825 4091 
L 703 3866 
L 703 4441 
L 1819 4666 
L 2450 4666 
L 2450 531 
L 3481 531 
L 3481 0 
L 794 0 
L 794 531 
z
" id="DejaVuSans-31" transform="scale(0.015625)"/>
       <path d="M 313 2009 
L 1997 2009 
L 1997 1497 
L 313 1497 
L 313 2009 
z
" id="DejaVuSans-2d" transform="scale(0.015625)"/>
       <path d="M 2188 4044 
L 1331 1722 
L 3047 1722 
L 2188 4044 
z
M 1831 4666 
L 2547 4666 
L 4325 0 
L 3669 0 
L 3244 1197 
L 1141 1197 
L 716 0 
L 50 0 
L 1831 4666 
z
" id="DejaVuSans-41" transform="scale(0.015625)"/>
       <path d="M 1159 525 
L 1159 -1331 
L 581 -1331 
L 581 3500 
L 1159 3500 
L 1159 2969 
Q 1341 3281 1617 3432 
Q 1894 3584 2278 3584 
Q 2916 3584 3314 3078 
Q 3713 2572 3713 1747 
Q 3713 922 3314 415 
Q 2916 -91 2278 -91 
Q 1894 -91 1617 61 
Q 1341 213 1159 525 
z
M 3116 1747 
Q 3116 2381 2855 2742 
Q 2594 3103 2138 3103 
Q 1681 3103 1420 2742 
Q 1159 2381 1159 1747 
Q 1159 1113 1420 752 
Q 1681 391 2138 391 
Q 2594 391 2855 752 
Q 3116 1113 3116 1747 
z
" id="DejaVuSans-70" transform="scale(0.015625)"/>
       <path d="M 2631 2963 
Q 2534 3019 2420 3045 
Q 2306 3072 2169 3072 
Q 1681 3072 1420 2755 
Q 1159 2438 1159 1844 
L 1159 0 
L 581 0 
L 581 3500 
L 1159 3500 
L 1159 2956 
Q 1341 3275 1631 3429 
Q 1922 3584 2338 3584 
Q 2397 3584 2469 3576 
Q 2541 3569 2628 3553 
L 2631 2963 
z
" id="DejaVuSans-72" transform="scale(0.015625)"/>
       <path d="M 2597 2516 
Q 3050 2419 3304 2112 
Q 3559 1806 3559 1356 
Q 3559 666 3084 287 
Q 2609 -91 1734 -91 
Q 1441 -91 1130 -33 
Q 819 25 488 141 
L 488 750 
Q 750 597 1062 519 
Q 1375 441 1716 441 
Q 2309 441 2620 675 
Q 2931 909 2931 1356 
Q 2931 1769 2642 2001 
Q 2353 2234 1838 2234 
L 1294 2234 
L 1294 2753 
L 1863 2753 
Q 2328 2753 2575 2939 
Q 2822 3125 2822 3475 
Q 2822 3834 2567 4026 
Q 2313 4219 1838 4219 
Q 1578 4219 1281 4162 
Q 984 4106 628 3988 
L 628 4550 
Q 988 4650 1302 4700 
Q 1616 4750 1894 4750 
Q 2613 4750 3031 4423 
Q 3450 4097 3450 3541 
Q 3450 3153 3228 2886 
Q 3006 2619 2597 2516 
z
" id="DejaVuSans-33" transform="scale(0.015625)"/>
       <path d="M 750 794 
L 1409 794 
L 1409 0 
L 750 0 
L 750 794 
z
M 750 3309 
L 1409 3309 
L 1409 2516 
L 750 2516 
L 750 3309 
z
" id="DejaVuSans-3a" transform="scale(0.015625)"/>
       <path d="M 525 4666 
L 3525 4666 
L 3525 4397 
L 1831 0 
L 1172 0 
L 2766 4134 
L 525 4134 
L 525 4666 
z
" id="DejaVuSans-37" transform="scale(0.015625)"/>
      </defs>
      <use xlink:href="#DejaVuSans-32"/>
      <use x="63.623047" xlink:href="#DejaVuSans-30"/>
      <use x="127.246094" xlink:href="#DejaVuSans-32"/>
      <use x="190.869141" xlink:href="#DejaVuSans-31"/>
      <use x="254.492188" xlink:href="#DejaVuSans-2d"/>
      <use x="288.326172" xlink:href="#DejaVuSans-41"/>
      <use x="356.734375" xlink:href="#DejaVuSans-70"/>
      <use x="420.210938" xlink:href="#DejaVuSans-72"/>
      <use x="454.949219" xlink:href="#DejaVuSans-2d"/>
      <use x="491.033203" xlink:href="#DejaVuSans-30"/>
      <use x="554.65625" xlink:href="#DejaVuSans-33"/>
      <use x="618.279297" xlink:href="#DejaVuSans-20"/>
      <use x="650.066406" xlink:href="#DejaVuSans-30"/>
      <use x="713.689453" xlink:href="#DejaVuSans-34"/>
      <use x="777.3125" xlink:href="#DejaVuSans-3a"/>
      <use x="811.003906" xlink:href="#DejaVuSans-35"/>
      <use x="874.626953" xlink:href="#DejaVuSans-37"/>
     </g>
    </g>
   </g>
   <g id="matplotlib.axis_4">
    <g id="ytick_4">
     <g id="line2d_21">
      <g>
       <use style="stroke:#000000;stroke-width:0.8;" x="86.4" xlink:href="#m78f83dc1ab" y="276.033395"/>
      </g>
     </g>
     <g id="text_13">
      <!-- −2 -->
      <g transform="translate(61.709375 280.592458)scale(0.12 -0.12)">
       <use xlink:href="#DejaVuSans-2212"/>
       <use x="83.789062" xlink:href="#DejaVuSans-32"/>
      </g>
     </g>
    </g>
    <g id="ytick_5">
     <g id="line2d_22">
      <g>
       <use style="stroke:#000000;stroke-width:0.8;" x="86.4" xlink:href="#m78f83dc1ab" y="243.087656"/>
      </g>
     </g>
     <g id="text_14">
      <!-- 0 -->
      <g transform="translate(71.765 247.646719)scale(0.12 -0.12)">
       <use xlink:href="#DejaVuSans-30"/>
      </g>
     </g>
    </g>
    <g id="ytick_6">
     <g id="line2d_23">
      <g>
       <use style="stroke:#000000;stroke-width:0.8;" x="86.4" xlink:href="#m78f83dc1ab" y="210.141917"/>
      </g>
     </g>
     <g id="text_15">
      <!-- 2 -->
      <g transform="translate(71.765 214.700979)scale(0.12 -0.12)">
       <use xlink:href="#DejaVuSans-32"/>
      </g>
     </g>
    </g>
    <g id="text_16">
     <!-- THC FGL -->
     <g transform="translate(41.776375 268.238302)rotate(-90)scale(0.12 -0.12)">
      <use xlink:href="#DejaVuSans-54"/>
      <use x="61.083984" xlink:href="#DejaVuSans-48"/>
      <use x="136.279297" xlink:href="#DejaVuSans-43"/>
      <use x="206.103516" xlink:href="#DejaVuSans-20"/>
      <use x="237.890625" xlink:href="#DejaVuSans-46"/>
      <use x="295.410156" xlink:href="#DejaVuSans-47"/>
      <use x="372.900391" xlink:href="#DejaVuSans-4c"/>
     </g>
     <!-- [nT] -->
     <g transform="translate(55.21375 254.670802)rotate(-90)scale(0.12 -0.12)">
      <use xlink:href="#DejaVuSans-5b"/>
      <use x="39.013672" xlink:href="#DejaVuSans-6e"/>
      <use x="102.392578" xlink:href="#DejaVuSans-54"/>
      <use x="163.476562" xlink:href="#DejaVuSans-5d"/>
     </g>
    </g>
   </g>
   <g id="line2d_24">
    <path clip-path="url(#p5fbc9698bc)" d="M 119.781815 200.568084 
L 122.575272 199.625752 
L 125.368729 200.657401 
L 128.162186 198.63805 
L 130.955643 200.993299 
L 133.7491 199.450277 
L 136.542557 199.328907 
L 139.336014 197.70136 
L 142.129471 199.859035 
L 144.922928 198.862126 
L 147.716385 198.608998 
L 150.509857 198.841039 
L 153.303314 199.898782 
L 161.683685 199.423512 
L 164.477142 197.839334 
L 167.270599 197.452699 
L 170.064056 198.623769 
L 172.857513 196.904085 
L 175.65097 199.06003 
L 178.444427 198.610316 
L 181.237885 198.662539 
L 184.031326 198.928758 
L 186.824799 199.578354 
L 189.618256 200.373674 
L 192.411713 198.544516 
L 195.20517 199.354342 
L 197.998627 199.33238 
L 200.792084 198.847059 
L 203.585541 200.012959 
L 206.378998 200.38133 
L 209.172455 199.332247 
L 211.965912 199.625236 
L 214.759369 199.119245 
L 217.552826 199.391161 
L 220.346283 198.484771 
L 223.139755 198.390069 
L 225.933212 199.450369 
L 228.726669 198.21241 
L 231.520126 198.873348 
L 234.313583 199.09336 
L 237.10704 198.397338 
L 239.900497 197.311046 
L 242.693954 197.324858 
L 245.487411 196.619793 
L 248.280869 196.384997 
L 251.07431 195.967406 
L 253.867767 195.33351 
L 256.66124 195.228284 
L 259.454697 194.576756 
L 262.248154 195.133448 
L 265.041611 194.655248 
L 267.835068 196.232364 
L 270.628525 195.733945 
L 273.421982 195.721541 
L 276.215439 196.769209 
L 279.008896 196.853489 
L 281.802353 198.992547 
L 284.59581 200.923123 
L 287.389267 199.955 
L 290.182724 202.651357 
L 292.976196 202.503772 
L 295.769653 203.669361 
L 298.56311 203.91997 
L 301.356567 204.98446 
L 304.150024 205.751288 
L 306.943481 205.560878 
L 309.736938 207.725337 
L 312.530396 206.283567 
L 315.323853 209.041458 
L 318.11731 209.333473 
L 320.910751 208.413933 
L 323.704208 210.712887 
L 326.497665 210.933862 
L 329.291138 212.307995 
L 332.084595 211.806326 
L 334.878052 213.297247 
L 337.671509 212.159922 
L 340.464966 213.706516 
L 343.258423 214.012742 
L 346.05188 213.817266 
L 348.845337 215.271087 
L 351.638794 215.854262 
L 354.432251 215.528941 
L 357.225708 215.551697 
L 360.019165 216.148591 
L 362.812622 216.963323 
L 365.606094 218.520875 
L 368.399551 217.521997 
L 371.193008 218.102072 
L 373.986465 219.552571 
L 376.779922 220.583329 
L 379.57338 221.88039 
L 382.366837 222.441322 
L 385.160294 224.205379 
L 387.953751 224.316144 
L 390.747192 225.469443 
L 393.540649 225.639999 
L 396.334106 227.324015 
L 399.127579 227.23427 
L 401.921036 227.440882 
L 404.714493 228.713734 
L 407.50795 229.830525 
L 410.301407 231.121646 
L 413.094864 232.570414 
L 415.888321 232.697301 
L 418.681778 233.713269 
L 421.475235 234.925728 
L 424.268692 236.884768 
L 427.062149 236.653905 
L 429.855606 238.013338 
L 432.649063 238.026951 
L 435.442535 238.489352 
L 438.235992 239.564757 
L 441.029449 239.692098 
L 443.822906 240.768698 
L 446.616364 241.392054 
L 449.409821 242.81258 
L 452.203278 243.747815 
L 454.996735 243.95803 
L 457.790192 245.101301 
L 460.583633 244.521585 
L 463.37709 245.418707 
L 466.170547 248.112939 
L 468.964005 247.499217 
L 471.757477 248.0885 
L 474.550934 250.455427 
L 477.344391 250.65262 
L 480.137848 251.353885 
L 482.931305 253.172989 
L 485.724762 255.280109 
L 488.518219 255.554627 
L 494.105133 255.45958 
L 496.89859 256.096795 
L 499.692047 255.537325 
L 502.485504 258.743117 
L 505.278976 258.113768 
L 510.865891 260.126601 
L 516.452805 261.225012 
L 519.246262 263.577335 
L 522.039719 263.974541 
L 524.833176 264.050363 
L 527.626633 263.620645 
L 530.420074 264.875144 
L 533.213531 265.932411 
L 536.006989 267.8336 
L 538.800446 266.753449 
L 541.593918 268.458736 
L 547.180832 269.309702 
L 552.767746 270.923636 
L 555.561203 271.77675 
L 558.35466 271.342425 
L 561.148117 272.357213 
L 563.941574 273.221144 
L 566.735031 273.457224 
L 569.528488 274.428732 
L 572.321945 273.855455 
L 575.115402 273.960165 
L 577.908875 274.708818 
L 580.702332 274.248254 
L 583.495789 274.897853 
L 586.289246 275.922358 
L 589.082703 275.923439 
L 591.87616 277.453145 
L 594.669617 278.34763 
L 597.463074 279.473914 
L 600.256516 279.920767 
L 603.049973 281.370636 
L 605.84343 280.791498 
L 608.636887 282.262074 
L 611.430344 281.142858 
L 614.223816 281.970489 
L 617.017273 281.602804 
L 619.81073 281.750775 
L 622.604187 280.679251 
L 625.397644 281.094275 
L 628.191101 281.350819 
L 630.984558 283.112397 
L 633.778015 282.620944 
L 636.571472 282.312725 
L 639.364929 280.349702 
L 642.158386 280.607136 
L 644.951843 280.539247 
L 650.538773 282.068143 
L 653.33223 282.333962 
L 656.125687 281.670162 
L 658.919144 282.035221 
L 661.712601 281.894509 
L 664.506058 282.404281 
L 667.2995 281.919958 
L 670.092957 282.746978 
L 672.886414 281.64901 
L 675.679871 282.887893 
L 678.473328 282.467323 
L 681.266785 282.483499 
L 684.060257 283.082914 
L 686.853714 282.189371 
L 689.647171 282.471821 
L 692.440628 282.2947 
L 695.234085 281.698875 
L 698.027542 281.775546 
L 700.820999 280.637713 
L 703.614456 280.113727 
L 706.407913 280.720538 
L 709.20137 280.998728 
L 711.994827 279.773864 
L 714.788284 279.521665 
L 717.581741 280.954927 
L 720.375214 281.422975 
L 723.168671 281.516815 
L 725.962128 280.541632 
L 728.755585 281.190023 
L 731.549042 282.061425 
L 737.135941 282.455535 
L 739.929398 283.108774 
L 742.722855 282.723557 
L 745.516312 283.974419 
L 748.309769 283.941445 
L 751.103226 282.278531 
L 753.896683 282.500401 
L 756.690155 284.043318 
L 759.483612 283.266229 
L 762.277069 283.78675 
L 765.070526 282.570587 
L 767.863983 282.40648 
L 770.65744 281.818966 
L 773.450897 282.837581 
L 776.244354 281.924179 
L 779.037811 283.155447 
L 781.831268 282.502519 
L 784.624725 282.156558 
L 787.418182 282.999136 
L 787.418182 282.999136 
" style="fill:none;stroke:#0000ff;stroke-linecap:square;stroke-width:0.5;"/>
   </g>
   <g id="line2d_25">
    <path clip-path="url(#p5fbc9698bc)" d="M 119.781815 274.072136 
L 122.575272 274.391159 
L 125.368729 275.057757 
L 128.162186 274.931357 
L 130.955643 276.656487 
L 133.7491 275.937919 
L 136.542557 276.437766 
L 139.336014 274.642953 
L 144.922928 276.359072 
L 147.716385 275.999536 
L 150.509857 275.362969 
L 156.096771 274.870247 
L 161.683685 274.589474 
L 164.477142 273.715647 
L 170.064056 275.141766 
L 175.65097 275.821891 
L 178.444427 275.342937 
L 181.237885 275.42348 
L 184.031326 275.282397 
L 189.618256 277.469615 
L 192.411713 274.803633 
L 195.20517 276.215118 
L 197.998627 274.825372 
L 200.792084 274.614528 
L 203.585541 274.848407 
L 206.378998 275.327369 
L 209.172455 275.462712 
L 211.965912 275.812146 
L 214.759369 275.668346 
L 217.552826 276.956179 
L 220.346283 278.011066 
L 223.139755 278.166513 
L 225.933212 277.042869 
L 228.726669 275.13109 
L 231.520126 275.654243 
L 234.313583 275.444314 
L 237.10704 274.097912 
L 239.900497 274.443342 
L 242.693954 274.533028 
L 245.487411 274.348546 
L 248.280869 274.659281 
L 253.867767 272.868055 
L 259.454697 274.056282 
L 262.248154 273.994509 
L 265.041611 273.734447 
L 267.835068 274.558969 
L 270.628525 274.82001 
L 273.421982 274.850081 
L 276.215439 275.843282 
L 279.008896 275.906149 
L 281.802353 276.467191 
L 284.59581 278.084292 
L 287.389267 278.399348 
L 290.182724 280.85935 
L 292.976196 280.664111 
L 295.769653 280.838368 
L 298.56311 282.817406 
L 301.356567 283.793967 
L 304.150024 284.419244 
L 306.943481 282.823892 
L 309.736938 283.462382 
L 312.530396 284.415072 
L 315.323853 286.129088 
L 318.11731 286.59406 
L 320.910751 286.12817 
L 323.704208 286.082448 
L 326.497665 286.659023 
L 329.291138 287.048907 
L 332.084595 287.669187 
L 334.878052 287.247743 
L 337.671509 288.885212 
L 340.464966 288.961039 
L 343.258423 289.647819 
L 346.05188 289.717086 
L 348.845337 289.004817 
L 351.638794 290.709734 
L 354.432251 291.326275 
L 357.225708 290.671879 
L 360.019165 292.149888 
L 362.812622 292.194447 
L 368.399551 294.083835 
L 371.193008 295.364164 
L 373.986465 295.586455 
L 376.779922 295.444954 
L 379.57338 296.238744 
L 382.366837 296.410022 
L 385.160294 295.417216 
L 387.953751 298.08018 
L 390.747192 297.611736 
L 393.540649 298.623126 
L 396.334106 298.614249 
L 399.127579 297.96905 
L 401.921036 299.176739 
L 404.714493 298.87187 
L 407.50795 299.483363 
L 410.301407 298.31312 
L 413.094864 300.229249 
L 415.888321 300.219541 
L 418.681778 298.445837 
L 421.475235 299.123482 
L 424.268692 298.745124 
L 427.062149 298.913366 
L 429.855606 298.484127 
L 432.649063 299.204807 
L 438.235992 298.195945 
L 441.029449 297.27957 
L 443.822906 297.199736 
L 446.616364 297.335983 
L 449.409821 296.255178 
L 452.203278 295.817652 
L 454.996735 296.345321 
L 457.790192 295.515268 
L 460.583633 295.315436 
L 463.37709 295.895074 
L 466.170547 294.168981 
L 468.964005 294.773507 
L 471.757477 294.510919 
L 474.550934 293.230079 
L 477.344391 294.744504 
L 480.137848 295.368329 
L 482.931305 292.934682 
L 485.724762 294.268279 
L 488.518219 292.094105 
L 491.311676 292.492661 
L 494.105133 293.137858 
L 496.89859 292.205158 
L 499.692047 291.455339 
L 502.485504 292.032514 
L 505.278976 291.960009 
L 508.072433 290.941555 
L 510.865891 290.510204 
L 513.659348 290.613518 
L 516.452805 289.347612 
L 519.246262 289.483601 
L 522.039719 289.14003 
L 524.833176 288.651056 
L 527.626633 288.672423 
L 533.213531 287.698616 
L 536.006989 286.987839 
L 538.800446 286.740654 
L 541.593918 287.357507 
L 544.387375 286.935789 
L 547.180832 285.749997 
L 549.974289 284.826846 
L 552.767746 284.564305 
L 555.561203 283.612734 
L 558.35466 284.155117 
L 561.148117 284.478574 
L 563.941574 283.77248 
L 566.735031 282.557944 
L 569.528488 283.222935 
L 572.321945 283.343502 
L 575.115402 282.053036 
L 577.908875 283.018807 
L 580.702332 282.151143 
L 586.289246 284.01177 
L 589.082703 283.011499 
L 591.87616 281.566512 
L 594.669617 282.370859 
L 597.463074 281.520137 
L 600.256516 281.038602 
L 603.049973 280.782255 
L 605.84343 280.659286 
L 608.636887 279.126204 
L 611.430344 278.604245 
L 614.223816 278.64564 
L 617.017273 278.444243 
L 622.604187 280.716157 
L 625.397644 280.239458 
L 628.191101 279.484446 
L 630.984558 278.484628 
L 633.778015 278.987421 
L 636.571472 280.25705 
L 639.364929 279.608728 
L 642.158386 277.897062 
L 644.951843 278.301351 
L 647.745316 278.554418 
L 650.538773 277.003432 
L 653.33223 276.212717 
L 656.125687 277.155163 
L 658.919144 276.101549 
L 661.712601 275.363557 
L 664.506058 275.806 
L 667.2995 275.106574 
L 670.092957 276.395437 
L 672.886414 275.364616 
L 675.679871 276.502328 
L 678.473328 275.215286 
L 681.266785 274.371699 
L 684.060257 275.631861 
L 686.853714 276.167569 
L 689.647171 276.144777 
L 692.440628 276.750431 
L 695.234085 276.46021 
L 698.027542 276.567534 
L 700.820999 276.317539 
L 703.614456 276.349747 
L 706.407913 275.890364 
L 709.20137 276.112673 
L 711.994827 275.615199 
L 714.788284 276.223117 
L 717.581741 277.157528 
L 720.375214 277.474926 
L 723.168671 275.645622 
L 725.962128 277.429551 
L 728.755585 274.832809 
L 731.549042 276.529476 
L 734.342499 275.456993 
L 737.135941 275.24758 
L 739.929398 274.582198 
L 742.722855 275.557346 
L 745.516312 274.057196 
L 748.309769 274.090991 
L 751.103226 275.695826 
L 753.896683 275.300584 
L 756.690155 276.817051 
L 759.483612 275.739058 
L 762.277069 276.369657 
L 765.070526 278.28985 
L 767.863983 279.394959 
L 770.65744 277.971276 
L 773.450897 277.553455 
L 776.244354 276.280293 
L 779.037811 276.001146 
L 781.831268 277.076626 
L 784.624725 277.31895 
L 787.418182 276.253448 
L 787.418182 276.253448 
" style="fill:none;stroke:#008000;stroke-linecap:square;stroke-width:0.5;"/>
   </g>
   <g id="line2d_26">
    <path clip-path="url(#p5fbc9698bc)" d="M 119.781815 241.888729 
L 122.575272 239.644615 
L 125.368729 240.648395 
L 130.955643 241.517331 
L 133.7491 240.48001 
L 136.542557 241.134409 
L 139.336014 241.477166 
L 142.129471 242.746366 
L 144.922928 242.166558 
L 147.716385 243.784393 
L 150.509857 242.844839 
L 153.303314 243.080055 
L 156.096771 243.790347 
L 158.890228 242.904977 
L 161.683685 243.363173 
L 164.477142 244.258824 
L 170.064056 245.01968 
L 172.857513 244.671627 
L 175.65097 245.850287 
L 178.444427 247.241253 
L 181.237885 246.971402 
L 184.031326 248.25331 
L 186.824799 247.882204 
L 189.618256 247.734593 
L 195.20517 248.300216 
L 197.998627 247.884317 
L 200.792084 247.727249 
L 203.585541 247.087121 
L 206.378998 245.359222 
L 209.172455 244.72071 
L 211.965912 244.365774 
L 214.759369 243.266909 
L 217.552826 244.357105 
L 220.346283 244.47238 
L 223.139755 243.241947 
L 225.933212 243.483238 
L 231.520126 245.754078 
L 234.313583 246.699653 
L 237.10704 245.262243 
L 239.900497 244.363144 
L 242.693954 243.132857 
L 245.487411 244.140508 
L 248.280869 244.13908 
L 251.07431 243.146607 
L 253.867767 244.464622 
L 256.66124 243.317319 
L 259.454697 243.503014 
L 262.248154 243.049301 
L 265.041611 242.965035 
L 267.835068 242.474995 
L 270.628525 242.952026 
L 273.421982 242.12442 
L 276.215439 241.86547 
L 279.008896 243.51288 
L 281.802353 242.201608 
L 284.59581 243.414149 
L 287.389267 242.8132 
L 290.182724 243.209051 
L 292.976196 243.846811 
L 295.769653 243.655992 
L 298.56311 243.969978 
L 304.150024 244.163107 
L 306.943481 244.033866 
L 309.736938 244.319663 
L 312.530396 243.537088 
L 315.323853 243.714125 
L 318.11731 243.657729 
L 320.910751 244.266618 
L 323.704208 243.593269 
L 326.497665 244.709533 
L 329.291138 243.993978 
L 332.084595 244.271394 
L 334.878052 243.949102 
L 337.671509 244.554347 
L 340.464966 244.883851 
L 343.258423 244.875063 
L 346.05188 243.423266 
L 348.845337 244.66674 
L 351.638794 244.893091 
L 354.432251 245.001564 
L 357.225708 245.397692 
L 360.019165 244.769962 
L 362.812622 245.503261 
L 365.606094 244.274776 
L 371.193008 246.422449 
L 373.986465 245.957873 
L 376.779922 245.08474 
L 379.57338 245.217095 
L 382.366837 245.923836 
L 385.160294 245.061507 
L 387.953751 245.416887 
L 390.747192 245.995715 
L 393.540649 243.969878 
L 396.334106 245.795851 
L 399.127579 245.880396 
L 401.921036 245.320472 
L 407.50795 244.8876 
L 410.301407 245.443143 
L 413.094864 244.324058 
L 415.888321 244.773172 
L 418.681778 245.434865 
L 421.475235 244.998064 
L 424.268692 244.060528 
L 427.062149 244.767399 
L 429.855606 244.115107 
L 432.649063 244.753349 
L 438.235992 244.694189 
L 441.029449 244.820663 
L 443.822906 244.377991 
L 446.616364 244.511156 
L 449.409821 243.305948 
L 452.203278 244.126695 
L 454.996735 243.212623 
L 457.790192 244.11584 
L 463.37709 244.184493 
L 466.170547 243.588359 
L 468.964005 244.292353 
L 471.757477 243.649892 
L 474.550934 243.971352 
L 477.344391 245.222099 
L 480.137848 243.590315 
L 482.931305 244.011298 
L 488.518219 243.407135 
L 491.311676 243.933305 
L 494.105133 243.627964 
L 496.89859 243.717287 
L 499.692047 242.428806 
L 502.485504 242.53759 
L 505.278976 243.346297 
L 510.865891 243.448022 
L 513.659348 243.233117 
L 516.452805 243.399797 
L 519.246262 242.438077 
L 522.039719 242.754942 
L 527.626633 242.637384 
L 533.213531 243.16625 
L 536.006989 243.200725 
L 538.800446 243.360183 
L 541.593918 242.953091 
L 544.387375 243.398254 
L 547.180832 243.183215 
L 549.974289 244.140442 
L 552.767746 242.908751 
L 555.561203 243.381081 
L 558.35466 243.116813 
L 561.148117 243.254027 
L 566.735031 242.82523 
L 569.528488 243.188616 
L 572.321945 242.95183 
L 575.115402 243.152581 
L 577.908875 244.104533 
L 580.702332 242.830953 
L 583.495789 243.719259 
L 586.289246 242.603151 
L 589.082703 242.506878 
L 591.87616 243.170525 
L 594.669617 242.883357 
L 597.463074 242.211343 
L 600.256516 242.818979 
L 603.049973 242.302769 
L 605.84343 242.297933 
L 608.636887 241.926167 
L 611.430344 241.362981 
L 614.223816 241.367719 
L 617.017273 241.698421 
L 619.81073 241.439862 
L 622.604187 242.458087 
L 625.397644 241.793932 
L 628.191101 241.981938 
L 630.984558 242.583557 
L 633.778015 242.405892 
L 636.571472 241.591996 
L 639.364929 242.281451 
L 642.158386 243.152072 
L 644.951843 243.448486 
L 647.745316 244.757891 
L 650.538773 245.774942 
L 653.33223 246.917758 
L 656.125687 245.859847 
L 658.919144 246.026151 
L 661.712601 245.691395 
L 664.506058 245.781325 
L 667.2995 245.541263 
L 670.092957 244.954694 
L 672.886414 245.270066 
L 675.679871 245.911487 
L 678.473328 244.823995 
L 681.266785 246.281074 
L 684.060257 246.011053 
L 686.853714 244.882121 
L 692.440628 246.932346 
L 695.234085 246.235093 
L 698.027542 245.7232 
L 700.820999 246.021877 
L 703.614456 246.786079 
L 706.407913 246.775104 
L 709.20137 246.632034 
L 711.994827 246.794682 
L 714.788284 247.454973 
L 717.581741 246.306305 
L 720.375214 245.465025 
L 723.168671 244.97508 
L 725.962128 245.12234 
L 731.549042 244.569053 
L 734.342499 244.115517 
L 737.135941 244.795048 
L 739.929398 243.868104 
L 742.722855 243.088593 
L 745.516312 243.465337 
L 748.309769 244.065743 
L 751.103226 243.497058 
L 753.896683 243.665261 
L 756.690155 242.907925 
L 759.483612 243.471769 
L 765.070526 243.076034 
L 767.863983 245.28124 
L 770.65744 244.670478 
L 773.450897 245.502736 
L 779.037811 246.61042 
L 781.831268 247.801912 
L 784.624725 248.087558 
L 787.418182 248.243058 
L 787.418182 248.243058 
" style="fill:none;stroke:#ff0000;stroke-linecap:square;stroke-width:0.5;"/>
   </g>
   <g id="line2d_27">
    <path clip-path="url(#p5fbc9698bc)" d="M 119.781815 190.462667 
L 122.575272 189.415494 
L 125.368729 189.905289 
L 128.162186 188.37393 
L 130.955643 189.224244 
L 133.7491 188.405294 
L 136.542557 188.034289 
L 139.336014 187.786243 
L 142.129471 189.055525 
L 144.922928 187.736656 
L 147.716385 187.752059 
L 150.509857 188.319798 
L 153.303314 189.329974 
L 161.683685 189.24531 
L 167.270599 187.701752 
L 170.064056 188.240267 
L 172.857513 186.67426 
L 175.65097 188.155022 
L 178.444427 187.98875 
L 181.237885 188.003356 
L 184.031326 188.19509 
L 189.618256 188.058596 
L 192.411713 188.189631 
L 195.20517 187.976838 
L 197.998627 188.821504 
L 200.792084 188.565184 
L 203.585541 189.420435 
L 206.378998 189.530309 
L 209.172455 188.632654 
L 211.965912 188.667918 
L 214.759369 188.363302 
L 217.552826 187.787818 
L 220.346283 186.42215 
L 223.139755 186.26843 
L 225.933212 187.794566 
L 231.520126 188.109499 
L 237.10704 188.648799 
L 239.900497 187.587166 
L 242.693954 187.562458 
L 245.487411 187.073245 
L 248.280869 186.704933 
L 251.07431 186.884555 
L 253.867767 186.791769 
L 256.66124 186.415772 
L 259.454697 185.533017 
L 262.248154 186.036436 
L 265.041611 185.773266 
L 267.835068 186.640889 
L 270.628525 186.08472 
L 273.421982 186.049699 
L 276.215439 186.344167 
L 279.008896 186.388162 
L 281.802353 187.776201 
L 284.59581 188.290582 
L 287.389267 187.343444 
L 290.182724 187.754031 
L 292.976196 187.773841 
L 295.769653 188.505228 
L 298.56311 187.290349 
L 304.150024 187.378937 
L 309.736938 189.40218 
L 312.530396 187.746003 
L 315.323853 188.205046 
L 320.910751 187.80526 
L 323.704208 189.264488 
L 326.497665 188.912374 
L 329.291138 189.414563 
L 332.084595 188.61348 
L 334.878052 189.811733 
L 337.671509 187.805724 
L 340.464966 188.582194 
L 343.258423 188.165944 
L 346.05188 188.031575 
L 348.845337 189.378804 
L 351.638794 188.198864 
L 354.432251 187.498892 
L 357.225708 188.061989 
L 360.019165 187.090816 
L 362.812622 187.411872 
L 365.606094 187.365905 
L 368.399551 185.995453 
L 371.193008 185.051172 
L 373.986465 185.483296 
L 376.779922 186.063803 
L 379.57338 185.822301 
L 382.366837 185.837417 
L 385.160294 187.420615 
L 387.953751 184.932924 
L 390.747192 185.714021 
L 393.540649 184.869209 
L 396.334106 185.303325 
L 399.127579 185.894153 
L 401.921036 184.814229 
L 404.714493 185.444092 
L 407.50795 185.126743 
L 410.301407 186.531615 
L 413.094864 184.97309 
L 415.888321 184.994169 
L 418.681778 186.892307 
L 421.475235 186.428316 
L 424.268692 187.077152 
L 427.062149 186.867333 
L 429.855606 187.449776 
L 432.649063 186.718157 
L 438.235992 187.843513 
L 441.029449 188.761819 
L 443.822906 188.910539 
L 446.616364 188.794169 
L 449.409821 189.918972 
L 452.203278 190.343292 
L 454.996735 189.82273 
L 457.790192 190.611313 
L 460.583633 190.829992 
L 463.37709 190.217434 
L 466.170547 191.757292 
L 468.964005 191.199886 
L 471.757477 191.418739 
L 474.550934 192.399118 
L 477.344391 190.836202 
L 480.137848 190.155133 
L 482.931305 192.22221 
L 485.724762 190.470557 
L 488.518219 192.51929 
L 491.311676 192.132402 
L 494.105133 191.528185 
L 496.89859 192.272666 
L 499.692047 193.139071 
L 502.485504 191.697041 
L 505.278976 191.956865 
L 508.072433 192.619404 
L 510.865891 192.695655 
L 513.659348 192.403831 
L 516.452805 193.398172 
L 519.246262 192.364556 
L 522.039719 192.518952 
L 524.833176 192.931851 
L 527.626633 193.08988 
L 533.213531 192.967532 
L 536.006989 192.693204 
L 538.800446 193.431555 
L 541.593918 192.062862 
L 544.387375 192.231856 
L 547.180832 193.010911 
L 549.974289 193.37824 
L 552.767746 193.135815 
L 555.561203 193.434536 
L 558.35466 193.239193 
L 561.148117 192.393054 
L 563.941574 192.458791 
L 566.735031 193.285211 
L 569.528488 192.165027 
L 572.321945 192.420024 
L 575.115402 193.374309 
L 577.908875 192.142303 
L 580.702332 193.117615 
L 583.495789 192.015552 
L 586.289246 190.617326 
L 589.082703 191.392017 
L 591.87616 191.496801 
L 594.669617 190.300562 
L 597.463074 190.155777 
L 600.256516 190.20075 
L 603.049973 189.356048 
L 605.84343 189.853922 
L 608.636887 189.845179 
L 611.430344 191.005019 
L 614.223816 190.369508 
L 617.017273 190.786272 
L 619.81073 189.932231 
L 625.397644 189.923441 
L 628.191101 190.267026 
L 630.984558 189.653776 
L 633.778015 189.682238 
L 636.571472 189.028363 
L 639.364929 190.906247 
L 642.158386 191.907481 
L 644.951843 191.679906 
L 647.745316 190.92969 
L 650.538773 191.348116 
L 653.33223 191.588027 
L 656.125687 191.542626 
L 658.919144 191.946037 
L 661.712601 192.545737 
L 664.506058 191.867123 
L 667.2995 192.697387 
L 670.092957 191.263373 
L 672.886414 192.753337 
L 675.679871 191.0437 
L 678.473328 192.235344 
L 681.266785 192.680095 
L 684.060257 191.441817 
L 686.853714 191.838798 
L 692.440628 191.269158 
L 695.234085 191.955859 
L 698.027542 191.856794 
L 700.820999 192.859759 
L 703.614456 193.177984 
L 706.407913 193.029205 
L 709.20137 192.684643 
L 711.994827 193.917941 
L 714.788284 193.646079 
L 717.581741 192.048005 
L 720.375214 191.534449 
L 723.168671 192.685436 
L 725.962128 192.231915 
L 728.755585 193.462114 
L 731.549042 191.711549 
L 734.342499 192.263617 
L 739.929398 192.154317 
L 742.722855 191.850117 
L 748.309769 191.792478 
L 751.103226 192.103496 
L 753.896683 192.182146 
L 756.690155 190.030417 
L 759.483612 191.313346 
L 762.277069 190.512659 
L 765.070526 190.190621 
L 767.863983 189.52459 
L 770.65744 190.938963 
L 773.450897 190.420969 
L 776.244354 191.910419 
L 779.037811 191.115207 
L 781.831268 190.828633 
L 787.418182 190.939081 
L 787.418182 190.939081 
" style="fill:none;stroke:#000000;stroke-linecap:square;stroke-width:0.5;"/>
   </g>
   <g id="patch_9">
    <path d="M 86.4 306 
L 86.4 179.043478 
" style="fill:none;stroke:#000000;stroke-linecap:square;stroke-linejoin:miter;stroke-width:0.8;"/>
   </g>
   <g id="patch_10">
    <path d="M 820.8 306 
L 820.8 179.043478 
" style="fill:none;stroke:#000000;stroke-linecap:square;stroke-linejoin:miter;stroke-width:0.8;"/>
   </g>
   <g id="patch_11">
    <path d="M 86.399994 306 
L 820.800003 306 
" style="fill:none;stroke:#000000;stroke-linecap:square;stroke-linejoin:miter;stroke-width:0.8;"/>
   </g>
   <g id="patch_12">
    <path d="M 86.399994 179.043478 
L 820.800003 179.043478 
" style="fill:none;stroke:#000000;stroke-linecap:square;stroke-linejoin:miter;stroke-width:0.8;"/>
   </g>
   <g id="legend_2">
    <g id="patch_13">
     <path d="M 752.073437 245.755978 
L 813.8 245.755978 
Q 815.8 245.755978 815.8 243.755978 
L 815.8 186.043478 
Q 815.8 184.043478 813.8 184.043478 
L 752.073437 184.043478 
Q 750.073437 184.043478 750.073437 186.043478 
L 750.073437 243.755978 
Q 750.073437 245.755978 752.073437 245.755978 
z
" style="fill:#ffffff;opacity:0.8;stroke:#cccccc;stroke-linejoin:miter;"/>
    </g>
    <g id="text_17">
     <!-- Bl -->
     <g transform="translate(774.160937 195.641916)scale(0.1 -0.1)">
      <defs>
       <path d="M 603 4863 
L 1178 4863 
L 1178 0 
L 603 0 
L 603 4863 
z
" id="DejaVuSans-6c" transform="scale(0.015625)"/>
      </defs>
      <use xlink:href="#DejaVuSans-42"/>
      <use x="68.603516" xlink:href="#DejaVuSans-6c"/>
     </g>
    </g>
    <g id="line2d_28">
     <path d="M 791.8 192.141916 
L 811.8 192.141916 
" style="fill:none;stroke:#0000ff;stroke-linecap:square;stroke-width:4;"/>
    </g>
    <g id="line2d_29"/>
    <g id="text_18">
     <!-- Bm -->
     <g transform="translate(767.198437 210.320041)scale(0.1 -0.1)">
      <defs>
       <path d="M 3328 2828 
Q 3544 3216 3844 3400 
Q 4144 3584 4550 3584 
Q 5097 3584 5394 3201 
Q 5691 2819 5691 2113 
L 5691 0 
L 5113 0 
L 5113 2094 
Q 5113 2597 4934 2840 
Q 4756 3084 4391 3084 
Q 3944 3084 3684 2787 
Q 3425 2491 3425 1978 
L 3425 0 
L 2847 0 
L 2847 2094 
Q 2847 2600 2669 2842 
Q 2491 3084 2119 3084 
Q 1678 3084 1418 2786 
Q 1159 2488 1159 1978 
L 1159 0 
L 581 0 
L 581 3500 
L 1159 3500 
L 1159 2956 
Q 1356 3278 1631 3431 
Q 1906 3584 2284 3584 
Q 2666 3584 2933 3390 
Q 3200 3197 3328 2828 
z
" id="DejaVuSans-6d" transform="scale(0.015625)"/>
      </defs>
      <use xlink:href="#DejaVuSans-42"/>
      <use x="68.603516" xlink:href="#DejaVuSans-6d"/>
     </g>
    </g>
    <g id="line2d_30">
     <path d="M 791.8 206.820041 
L 811.8 206.820041 
" style="fill:none;stroke:#008000;stroke-linecap:square;stroke-width:4;"/>
    </g>
    <g id="line2d_31"/>
    <g id="text_19">
     <!-- Bn -->
     <g transform="translate(770.601562 224.998166)scale(0.1 -0.1)">
      <use xlink:href="#DejaVuSans-42"/>
      <use x="68.603516" xlink:href="#DejaVuSans-6e"/>
     </g>
    </g>
    <g id="line2d_32">
     <path d="M 791.8 221.498166 
L 811.8 221.498166 
" style="fill:none;stroke:#ff0000;stroke-linecap:square;stroke-width:4;"/>
    </g>
    <g id="line2d_33"/>
    <g id="text_20">
     <!-- Btotal -->
     <g transform="translate(754.073437 239.676291)scale(0.1 -0.1)">
      <defs>
       <path d="M 1172 4494 
L 1172 3500 
L 2356 3500 
L 2356 3053 
L 1172 3053 
L 1172 1153 
Q 1172 725 1289 603 
Q 1406 481 1766 481 
L 2356 481 
L 2356 0 
L 1766 0 
Q 1100 0 847 248 
Q 594 497 594 1153 
L 594 3053 
L 172 3053 
L 172 3500 
L 594 3500 
L 594 4494 
L 1172 4494 
z
" id="DejaVuSans-74" transform="scale(0.015625)"/>
       <path d="M 1959 3097 
Q 1497 3097 1228 2736 
Q 959 2375 959 1747 
Q 959 1119 1226 758 
Q 1494 397 1959 397 
Q 2419 397 2687 759 
Q 2956 1122 2956 1747 
Q 2956 2369 2687 2733 
Q 2419 3097 1959 3097 
z
M 1959 3584 
Q 2709 3584 3137 3096 
Q 3566 2609 3566 1747 
Q 3566 888 3137 398 
Q 2709 -91 1959 -91 
Q 1206 -91 779 398 
Q 353 888 353 1747 
Q 353 2609 779 3096 
Q 1206 3584 1959 3584 
z
" id="DejaVuSans-6f" transform="scale(0.015625)"/>
       <path d="M 2194 1759 
Q 1497 1759 1228 1600 
Q 959 1441 959 1056 
Q 959 750 1161 570 
Q 1363 391 1709 391 
Q 2188 391 2477 730 
Q 2766 1069 2766 1631 
L 2766 1759 
L 2194 1759 
z
M 3341 1997 
L 3341 0 
L 2766 0 
L 2766 531 
Q 2569 213 2275 61 
Q 1981 -91 1556 -91 
Q 1019 -91 701 211 
Q 384 513 384 1019 
Q 384 1609 779 1909 
Q 1175 2209 1959 2209 
L 2766 2209 
L 2766 2266 
Q 2766 2663 2505 2880 
Q 2244 3097 1772 3097 
Q 1472 3097 1187 3025 
Q 903 2953 641 2809 
L 641 3341 
Q 956 3463 1253 3523 
Q 1550 3584 1831 3584 
Q 2591 3584 2966 3190 
Q 3341 2797 3341 1997 
z
" id="DejaVuSans-61" transform="scale(0.015625)"/>
      </defs>
      <use xlink:href="#DejaVuSans-42"/>
      <use x="68.603516" xlink:href="#DejaVuSans-74"/>
      <use x="107.8125" xlink:href="#DejaVuSans-6f"/>
      <use x="168.994141" xlink:href="#DejaVuSans-74"/>
      <use x="208.203125" xlink:href="#DejaVuSans-61"/>
      <use x="269.482422" xlink:href="#DejaVuSans-6c"/>
     </g>
    </g>
    <g id="line2d_34">
     <path d="M 791.8 236.176291 
L 811.8 236.176291 
" style="fill:none;stroke:#000000;stroke-linecap:square;stroke-width:4;"/>
    </g>
    <g id="line2d_35"/>
   </g>
  </g>
 </g>
 <defs>
  <clipPath id="pa82715dc99">
   <rect height="126.956522" width="734.4" x="86.4" y="43.2"/>
  </clipPath>
  <clipPath id="p5fbc9698bc">
   <rect height="126.956522" width="734.4" x="86.4" y="179.043478"/>
  </clipPath>
 </defs>
</svg>
