<?xml version="1.0" encoding="utf-8" standalone="no"?>
<!DOCTYPE svg PUBLIC "-//W3C//DTD SVG 1.1//EN"
  "http://www.w3.org/Graphics/SVG/1.1/DTD/svg11.dtd">
<svg height="360pt" version="1.1" viewBox="0 0 864 360" width="864pt" xmlns="http://www.w3.org/2000/svg" xmlns:xlink="http://www.w3.org/1999/xlink">
 <metadata>
  <rdf:RDF xmlns:cc="http://creativecommons.org/ns#" xmlns:dc="http://purl.org/dc/elements/1.1/" xmlns:rdf="http://www.w3.org/1999/02/22-rdf-syntax-ns#">
   <cc:Work>
    <dc:type rdf:resource="http://purl.org/dc/dcmitype/StillImage"/>
    <dc:date>2023-06-29T15:40:31.017694</dc:date>
    <dc:format>image/svg+xml</dc:format>
    <dc:creator>
     <cc:Agent>
      <dc:title>Matplotlib v3.4.3, https://matplotlib.org/</dc:title>
     </cc:Agent>
    </dc:creator>
   </cc:Work>
  </rdf:RDF>
 </metadata>
 <defs>
  <style type="text/css">*{stroke-linecap:butt;stroke-linejoin:round;}</style>
 </defs>
 <g id="figure_1">
  <g id="patch_1">
   <path d="M 0 360 
L 864 360 
L 864 0 
L 0 0 
z
" style="fill:none;"/>
  </g>
  <g id="axes_1">
   <g id="patch_2">
    <path d="M 86.4 170.156522 
L 820.8 170.156522 
L 820.8 43.2 
L 86.4 43.2 
z
" style="fill:#ffffff;"/>
   </g>
   <g id="matplotlib.axis_1">
    <g id="xtick_1">
     <g id="line2d_1">
      <defs>
       <path d="M 0 0 
L 0 3.5 
" id="mfbb2213027" style="stroke:#000000;stroke-width:0.8;"/>
      </defs>
      <g>
       <use style="stroke:#000000;stroke-width:0.8;" x="117.224075" xlink:href="#mfbb2213027" y="170.156522"/>
      </g>
     </g>
    </g>
    <g id="xtick_2">
     <g id="line2d_2">
      <g>
       <use style="stroke:#000000;stroke-width:0.8;" x="184.407608" xlink:href="#mfbb2213027" y="170.156522"/>
      </g>
     </g>
    </g>
    <g id="xtick_3">
     <g id="line2d_3">
      <g>
       <use style="stroke:#000000;stroke-width:0.8;" x="251.591156" xlink:href="#mfbb2213027" y="170.156522"/>
      </g>
     </g>
    </g>
    <g id="xtick_4">
     <g id="line2d_4">
      <g>
       <use style="stroke:#000000;stroke-width:0.8;" x="318.774673" xlink:href="#mfbb2213027" y="170.156522"/>
      </g>
     </g>
    </g>
    <g id="xtick_5">
     <g id="line2d_5">
      <g>
       <use style="stroke:#000000;stroke-width:0.8;" x="385.958206" xlink:href="#mfbb2213027" y="170.156522"/>
      </g>
     </g>
    </g>
    <g id="xtick_6">
     <g id="line2d_6">
      <g>
       <use style="stroke:#000000;stroke-width:0.8;" x="453.141724" xlink:href="#mfbb2213027" y="170.156522"/>
      </g>
     </g>
    </g>
    <g id="xtick_7">
     <g id="line2d_7">
      <g>
       <use style="stroke:#000000;stroke-width:0.8;" x="520.325272" xlink:href="#mfbb2213027" y="170.156522"/>
      </g>
     </g>
    </g>
    <g id="xtick_8">
     <g id="line2d_8">
      <g>
       <use style="stroke:#000000;stroke-width:0.8;" x="587.508804" xlink:href="#mfbb2213027" y="170.156522"/>
      </g>
     </g>
    </g>
    <g id="xtick_9">
     <g id="line2d_9">
      <g>
       <use style="stroke:#000000;stroke-width:0.8;" x="654.692322" xlink:href="#mfbb2213027" y="170.156522"/>
      </g>
     </g>
    </g>
    <g id="xtick_10">
     <g id="line2d_10">
      <g>
       <use style="stroke:#000000;stroke-width:0.8;" x="721.875854" xlink:href="#mfbb2213027" y="170.156522"/>
      </g>
     </g>
    </g>
    <g id="xtick_11">
     <g id="line2d_11">
      <g>
       <use style="stroke:#000000;stroke-width:0.8;" x="789.059402" xlink:href="#mfbb2213027" y="170.156522"/>
      </g>
     </g>
    </g>
   </g>
   <g id="matplotlib.axis_2">
    <g id="ytick_1">
     <g id="line2d_12">
      <defs>
       <path d="M 0 0 
L -3.5 0 
" id="m80a30871f8" style="stroke:#000000;stroke-width:0.8;"/>
      </defs>
      <g>
       <use style="stroke:#000000;stroke-width:0.8;" x="86.4" xlink:href="#m80a30871f8" y="139.996112"/>
      </g>
     </g>
     <g id="text_1">
      <!-- −5 -->
      <g transform="translate(61.709375 144.555174)scale(0.12 -0.12)">
       <defs>
        <path d="M 678 2272 
L 4684 2272 
L 4684 1741 
L 678 1741 
L 678 2272 
z
" id="DejaVuSans-2212" transform="scale(0.015625)"/>
        <path d="M 691 4666 
L 3169 4666 
L 3169 4134 
L 1269 4134 
L 1269 2991 
Q 1406 3038 1543 3061 
Q 1681 3084 1819 3084 
Q 2600 3084 3056 2656 
Q 3513 2228 3513 1497 
Q 3513 744 3044 326 
Q 2575 -91 1722 -91 
Q 1428 -91 1123 -41 
Q 819 9 494 109 
L 494 744 
Q 775 591 1075 516 
Q 1375 441 1709 441 
Q 2250 441 2565 725 
Q 2881 1009 2881 1497 
Q 2881 1984 2565 2268 
Q 2250 2553 1709 2553 
Q 1456 2553 1204 2497 
Q 953 2441 691 2322 
L 691 4666 
z
" id="DejaVuSans-35" transform="scale(0.015625)"/>
       </defs>
       <use xlink:href="#DejaVuSans-2212"/>
       <use x="83.789062" xlink:href="#DejaVuSans-35"/>
      </g>
     </g>
    </g>
    <g id="ytick_2">
     <g id="line2d_13">
      <g>
       <use style="stroke:#000000;stroke-width:0.8;" x="86.4" xlink:href="#m80a30871f8" y="109.073993"/>
      </g>
     </g>
     <g id="text_2">
      <!-- 0 -->
      <g transform="translate(71.765 113.633055)scale(0.12 -0.12)">
       <defs>
        <path d="M 2034 4250 
Q 1547 4250 1301 3770 
Q 1056 3291 1056 2328 
Q 1056 1369 1301 889 
Q 1547 409 2034 409 
Q 2525 409 2770 889 
Q 3016 1369 3016 2328 
Q 3016 3291 2770 3770 
Q 2525 4250 2034 4250 
z
M 2034 4750 
Q 2819 4750 3233 4129 
Q 3647 3509 3647 2328 
Q 3647 1150 3233 529 
Q 2819 -91 2034 -91 
Q 1250 -91 836 529 
Q 422 1150 422 2328 
Q 422 3509 836 4129 
Q 1250 4750 2034 4750 
z
" id="DejaVuSans-30" transform="scale(0.015625)"/>
       </defs>
       <use xlink:href="#DejaVuSans-30"/>
      </g>
     </g>
    </g>
    <g id="ytick_3">
     <g id="line2d_14">
      <g>
       <use style="stroke:#000000;stroke-width:0.8;" x="86.4" xlink:href="#m80a30871f8" y="78.151873"/>
      </g>
     </g>
     <g id="text_3">
      <!-- 5 -->
      <g transform="translate(71.765 82.710936)scale(0.12 -0.12)">
       <use xlink:href="#DejaVuSans-35"/>
      </g>
     </g>
    </g>
    <g id="ytick_4">
     <g id="line2d_15">
      <g>
       <use style="stroke:#000000;stroke-width:0.8;" x="86.4" xlink:href="#m80a30871f8" y="47.229754"/>
      </g>
     </g>
     <g id="text_4">
      <!-- 10 -->
      <g transform="translate(64.13 51.788816)scale(0.12 -0.12)">
       <defs>
        <path d="M 794 531 
L 1825 531 
L 1825 4091 
L 703 3866 
L 703 4441 
L 1819 4666 
L 2450 4666 
L 2450 531 
L 3481 531 
L 3481 0 
L 794 0 
L 794 531 
z
" id="DejaVuSans-31" transform="scale(0.015625)"/>
       </defs>
       <use xlink:href="#DejaVuSans-31"/>
       <use x="63.623047" xlink:href="#DejaVuSans-30"/>
      </g>
     </g>
    </g>
    <g id="text_5">
     <!-- THC FGL -->
     <g transform="translate(41.776375 132.394823)rotate(-90)scale(0.12 -0.12)">
      <defs>
       <path d="M -19 4666 
L 3928 4666 
L 3928 4134 
L 2272 4134 
L 2272 0 
L 1638 0 
L 1638 4134 
L -19 4134 
L -19 4666 
z
" id="DejaVuSans-54" transform="scale(0.015625)"/>
       <path d="M 628 4666 
L 1259 4666 
L 1259 2753 
L 3553 2753 
L 3553 4666 
L 4184 4666 
L 4184 0 
L 3553 0 
L 3553 2222 
L 1259 2222 
L 1259 0 
L 628 0 
L 628 4666 
z
" id="DejaVuSans-48" transform="scale(0.015625)"/>
       <path d="M 4122 4306 
L 4122 3641 
Q 3803 3938 3442 4084 
Q 3081 4231 2675 4231 
Q 1875 4231 1450 3742 
Q 1025 3253 1025 2328 
Q 1025 1406 1450 917 
Q 1875 428 2675 428 
Q 3081 428 3442 575 
Q 3803 722 4122 1019 
L 4122 359 
Q 3791 134 3420 21 
Q 3050 -91 2638 -91 
Q 1578 -91 968 557 
Q 359 1206 359 2328 
Q 359 3453 968 4101 
Q 1578 4750 2638 4750 
Q 3056 4750 3426 4639 
Q 3797 4528 4122 4306 
z
" id="DejaVuSans-43" transform="scale(0.015625)"/>
       <path id="DejaVuSans-20" transform="scale(0.015625)"/>
       <path d="M 628 4666 
L 3309 4666 
L 3309 4134 
L 1259 4134 
L 1259 2759 
L 3109 2759 
L 3109 2228 
L 1259 2228 
L 1259 0 
L 628 0 
L 628 4666 
z
" id="DejaVuSans-46" transform="scale(0.015625)"/>
       <path d="M 3809 666 
L 3809 1919 
L 2778 1919 
L 2778 2438 
L 4434 2438 
L 4434 434 
Q 4069 175 3628 42 
Q 3188 -91 2688 -91 
Q 1594 -91 976 548 
Q 359 1188 359 2328 
Q 359 3472 976 4111 
Q 1594 4750 2688 4750 
Q 3144 4750 3555 4637 
Q 3966 4525 4313 4306 
L 4313 3634 
Q 3963 3931 3569 4081 
Q 3175 4231 2741 4231 
Q 1884 4231 1454 3753 
Q 1025 3275 1025 2328 
Q 1025 1384 1454 906 
Q 1884 428 2741 428 
Q 3075 428 3337 486 
Q 3600 544 3809 666 
z
" id="DejaVuSans-47" transform="scale(0.015625)"/>
       <path d="M 628 4666 
L 1259 4666 
L 1259 531 
L 3531 531 
L 3531 0 
L 628 0 
L 628 4666 
z
" id="DejaVuSans-4c" transform="scale(0.015625)"/>
      </defs>
      <use xlink:href="#DejaVuSans-54"/>
      <use x="61.083984" xlink:href="#DejaVuSans-48"/>
      <use x="136.279297" xlink:href="#DejaVuSans-43"/>
      <use x="206.103516" xlink:href="#DejaVuSans-20"/>
      <use x="237.890625" xlink:href="#DejaVuSans-46"/>
      <use x="295.410156" xlink:href="#DejaVuSans-47"/>
      <use x="372.900391" xlink:href="#DejaVuSans-4c"/>
     </g>
     <!-- [nT GSM] -->
     <g transform="translate(55.21375 134.369198)rotate(-90)scale(0.12 -0.12)">
      <defs>
       <path d="M 550 4863 
L 1875 4863 
L 1875 4416 
L 1125 4416 
L 1125 -397 
L 1875 -397 
L 1875 -844 
L 550 -844 
L 550 4863 
z
" id="DejaVuSans-5b" transform="scale(0.015625)"/>
       <path d="M 3513 2113 
L 3513 0 
L 2938 0 
L 2938 2094 
Q 2938 2591 2744 2837 
Q 2550 3084 2163 3084 
Q 1697 3084 1428 2787 
Q 1159 2491 1159 1978 
L 1159 0 
L 581 0 
L 581 3500 
L 1159 3500 
L 1159 2956 
Q 1366 3272 1645 3428 
Q 1925 3584 2291 3584 
Q 2894 3584 3203 3211 
Q 3513 2838 3513 2113 
z
" id="DejaVuSans-6e" transform="scale(0.015625)"/>
       <path d="M 3425 4513 
L 3425 3897 
Q 3066 4069 2747 4153 
Q 2428 4238 2131 4238 
Q 1616 4238 1336 4038 
Q 1056 3838 1056 3469 
Q 1056 3159 1242 3001 
Q 1428 2844 1947 2747 
L 2328 2669 
Q 3034 2534 3370 2195 
Q 3706 1856 3706 1288 
Q 3706 609 3251 259 
Q 2797 -91 1919 -91 
Q 1588 -91 1214 -16 
Q 841 59 441 206 
L 441 856 
Q 825 641 1194 531 
Q 1563 422 1919 422 
Q 2459 422 2753 634 
Q 3047 847 3047 1241 
Q 3047 1584 2836 1778 
Q 2625 1972 2144 2069 
L 1759 2144 
Q 1053 2284 737 2584 
Q 422 2884 422 3419 
Q 422 4038 858 4394 
Q 1294 4750 2059 4750 
Q 2388 4750 2728 4690 
Q 3069 4631 3425 4513 
z
" id="DejaVuSans-53" transform="scale(0.015625)"/>
       <path d="M 628 4666 
L 1569 4666 
L 2759 1491 
L 3956 4666 
L 4897 4666 
L 4897 0 
L 4281 0 
L 4281 4097 
L 3078 897 
L 2444 897 
L 1241 4097 
L 1241 0 
L 628 0 
L 628 4666 
z
" id="DejaVuSans-4d" transform="scale(0.015625)"/>
       <path d="M 1947 4863 
L 1947 -844 
L 622 -844 
L 622 -397 
L 1369 -397 
L 1369 4416 
L 622 4416 
L 622 4863 
L 1947 4863 
z
" id="DejaVuSans-5d" transform="scale(0.015625)"/>
      </defs>
      <use xlink:href="#DejaVuSans-5b"/>
      <use x="39.013672" xlink:href="#DejaVuSans-6e"/>
      <use x="102.392578" xlink:href="#DejaVuSans-54"/>
      <use x="163.476562" xlink:href="#DejaVuSans-20"/>
      <use x="195.263672" xlink:href="#DejaVuSans-47"/>
      <use x="272.753906" xlink:href="#DejaVuSans-53"/>
      <use x="336.230469" xlink:href="#DejaVuSans-4d"/>
      <use x="422.509766" xlink:href="#DejaVuSans-5d"/>
     </g>
    </g>
   </g>
   <g id="line2d_16">
    <path clip-path="url(#p0e41a455bf)" d="M 119.781815 84.988457 
L 123.980789 84.59106 
L 128.179764 85.170324 
L 132.378723 84.253694 
L 136.577698 82.7533 
L 144.975647 82.852771 
L 149.174622 83.430641 
L 153.373596 83.703954 
L 157.572556 83.416958 
L 161.77153 82.926867 
L 165.970505 84.594477 
L 170.169464 84.64944 
L 174.368439 85.130852 
L 178.567413 84.92234 
L 182.766373 83.504869 
L 186.965347 83.128709 
L 191.164307 84.221379 
L 195.363297 84.469913 
L 199.562271 84.245664 
L 203.761246 83.161489 
L 207.960205 82.716222 
L 216.358154 82.626999 
L 220.557114 82.30557 
L 224.756088 81.844152 
L 228.955048 81.127513 
L 233.154022 80.1702 
L 237.352997 79.39881 
L 241.551956 80.077918 
L 245.750931 81.417534 
L 249.949921 82.255515 
L 254.148895 84.389799 
L 258.347855 85.239861 
L 262.546829 86.491324 
L 266.745804 86.165633 
L 270.944763 85.265716 
L 275.143738 84.835496 
L 283.541672 84.46308 
L 287.740646 83.840506 
L 296.13858 83.372868 
L 300.337555 82.71614 
L 308.735504 81.093558 
L 312.934479 83.026135 
L 317.133453 85.205671 
L 325.531387 90.416375 
L 329.730347 92.406357 
L 338.128296 92.659253 
L 342.327255 93.09264 
L 346.52623 92.26003 
L 350.725204 91.124406 
L 354.924194 90.693123 
L 359.123154 90.731246 
L 363.322128 92.30233 
L 371.720062 94.542915 
L 375.919037 94.716628 
L 380.117996 94.40478 
L 384.316971 93.856578 
L 392.714905 94.123136 
L 396.913879 93.757237 
L 401.112854 94.046221 
L 405.311813 92.911329 
L 409.510803 93.059318 
L 413.709778 92.483771 
L 417.908752 91.700203 
L 422.107712 91.537354 
L 430.505646 93.279094 
L 434.70462 92.477186 
L 438.903595 91.842089 
L 443.102554 92.098981 
L 447.301529 91.839539 
L 451.500504 90.973093 
L 455.699463 91.284006 
L 459.898438 91.060903 
L 464.097427 90.644235 
L 468.296402 90.937976 
L 472.495361 92.161412 
L 476.694336 93.006953 
L 480.893295 93.39395 
L 485.09227 93.30457 
L 489.291245 93.771046 
L 493.490204 94.089886 
L 497.689178 94.749552 
L 501.888153 95.853324 
L 506.087112 96.734859 
L 510.286087 97.397841 
L 518.684052 99.31558 
L 522.883011 99.872434 
L 527.081985 100.765914 
L 531.280945 102.395774 
L 535.479919 103.505752 
L 539.678894 104.463772 
L 543.877853 105.67206 
L 548.076828 106.714437 
L 552.275803 106.589156 
L 556.474762 108.024168 
L 560.673737 108.065267 
L 564.872696 110.323148 
L 569.071686 111.223949 
L 573.27066 111.795423 
L 577.469635 112.671231 
L 581.668594 112.709401 
L 590.066544 114.220635 
L 594.265503 115.516858 
L 598.464478 116.685902 
L 602.663452 117.60334 
L 606.862411 119.103657 
L 611.061386 119.181556 
L 615.260345 119.862434 
L 619.45932 120.222845 
L 623.65831 120.740375 
L 627.857285 121.077146 
L 632.056244 120.45676 
L 640.454193 118.794346 
L 644.653152 118.784138 
L 648.852127 118.148827 
L 653.051102 117.26816 
L 657.250061 117.220064 
L 661.449036 116.48067 
L 665.647995 115.927939 
L 669.84697 116.086583 
L 674.045944 115.538208 
L 678.244934 115.613313 
L 682.443893 116.001035 
L 690.841843 115.761168 
L 695.040802 115.746487 
L 699.239777 115.88307 
L 703.438751 114.571577 
L 707.637711 115.362469 
L 711.836685 115.121352 
L 716.035645 115.934574 
L 720.234619 116.258462 
L 724.433594 116.333481 
L 732.831543 117.941997 
L 737.030518 117.701006 
L 741.229492 117.987116 
L 749.627426 117.890157 
L 753.826401 117.693397 
L 758.02536 117.800504 
L 762.224335 117.757634 
L 766.423294 118.703292 
L 770.622269 119.342962 
L 774.821243 119.715214 
L 779.020203 118.412255 
L 783.219193 118.251039 
L 787.418167 116.813094 
L 787.418167 116.813094 
" style="fill:none;stroke:#0000ff;stroke-linecap:square;stroke-width:0.5;"/>
   </g>
   <g id="line2d_17">
    <path clip-path="url(#p0e41a455bf)" d="M 119.781815 154.303127 
L 123.980789 153.944834 
L 128.179764 153.468547 
L 136.577698 153.423056 
L 140.776688 153.618443 
L 144.975647 154.51412 
L 149.174622 154.321499 
L 153.373596 153.437235 
L 157.572556 152.839439 
L 161.77153 152.767478 
L 165.970505 153.116833 
L 170.169464 153.043392 
L 178.567413 153.704393 
L 182.766373 154.009726 
L 186.965347 153.141681 
L 191.164307 153.998992 
L 195.363297 154.521474 
L 199.562271 154.546048 
L 203.761246 152.859504 
L 207.960205 152.868413 
L 212.15918 152.540246 
L 216.358154 151.723224 
L 220.557114 151.762203 
L 224.756088 150.153568 
L 228.955048 151.07352 
L 233.154022 150.627973 
L 237.352997 150.406359 
L 241.551956 152.580974 
L 249.949921 152.762368 
L 254.148895 152.957713 
L 258.347855 152.850645 
L 262.546829 152.445514 
L 266.745804 150.636142 
L 270.944763 150.896774 
L 275.143738 152.165913 
L 279.342697 152.569175 
L 283.541672 151.895673 
L 287.740646 151.094476 
L 296.13858 148.967961 
L 300.337555 147.946867 
L 304.536545 147.064659 
L 308.735504 152.691658 
L 312.934479 157.452991 
L 317.133453 159.244218 
L 321.332413 158.249663 
L 325.531387 154.955137 
L 329.730347 150.745082 
L 333.929321 149.125158 
L 338.128296 147.147592 
L 342.327255 144.193126 
L 346.52623 142.510979 
L 350.725204 142.69735 
L 354.924194 143.854715 
L 359.123154 146.118705 
L 363.322128 148.977568 
L 367.521103 152.154295 
L 371.720062 154.779438 
L 375.919037 157.225323 
L 380.117996 160.747871 
L 384.316971 162.845445 
L 388.515945 164.385771 
L 392.714905 163.437184 
L 396.913879 163.431675 
L 401.112854 164.081862 
L 405.311813 164.345352 
L 409.510803 164.00582 
L 413.709778 163.882436 
L 422.107712 162.886005 
L 426.306686 160.697898 
L 430.505646 161.125716 
L 434.70462 160.221168 
L 438.903595 158.846191 
L 443.102554 156.149402 
L 447.301529 154.549493 
L 451.500504 153.254827 
L 455.699463 152.225509 
L 459.898438 151.684127 
L 464.097427 150.581875 
L 468.296402 149.249696 
L 472.495361 147.57728 
L 476.694336 146.823427 
L 480.893295 145.705809 
L 485.09227 146.132073 
L 489.291245 146.686298 
L 493.490204 146.858883 
L 497.689178 146.02391 
L 501.888153 144.640455 
L 506.087112 142.931772 
L 518.684052 138.794934 
L 522.883011 136.27286 
L 527.081985 134.316303 
L 531.280945 131.436676 
L 535.479919 127.643803 
L 539.678894 124.984083 
L 543.877853 122.178273 
L 548.076828 120.469789 
L 552.275803 118.089538 
L 556.474762 116.330634 
L 560.673737 114.394475 
L 564.872696 112.096578 
L 569.071686 109.363077 
L 573.27066 108.578483 
L 577.469635 107.388883 
L 581.668594 105.575409 
L 585.867569 104.199573 
L 590.066544 104.264959 
L 598.464478 105.040554 
L 602.663452 105.02242 
L 606.862411 103.607388 
L 611.061386 103.180212 
L 615.260345 103.099087 
L 619.45932 102.056977 
L 623.65831 102.466312 
L 627.857285 102.187525 
L 632.056244 102.659379 
L 636.255219 102.5393 
L 640.454193 101.862293 
L 644.653152 101.836177 
L 648.852127 102.435827 
L 653.051102 103.346246 
L 657.250061 103.50983 
L 661.449036 103.953647 
L 665.647995 105.015584 
L 669.84697 105.352163 
L 674.045944 105.126908 
L 678.244934 103.770056 
L 682.443893 103.691868 
L 686.642868 103.500198 
L 695.040802 104.737409 
L 699.239777 104.362329 
L 703.438751 103.461077 
L 707.637711 102.924676 
L 711.836685 102.530656 
L 716.035645 101.620087 
L 720.234619 101.827287 
L 724.433594 101.382133 
L 728.632584 100.799126 
L 732.831543 100.931778 
L 737.030518 99.631697 
L 741.229492 98.868084 
L 745.428452 99.234349 
L 753.826401 99.108281 
L 758.02536 98.096171 
L 762.224335 98.796319 
L 766.423294 99.659419 
L 770.622269 101.229413 
L 779.020203 100.286816 
L 783.219193 100.61131 
L 787.418167 98.519455 
L 787.418167 98.519455 
" style="fill:none;stroke:#008000;stroke-linecap:square;stroke-width:0.5;"/>
   </g>
   <g id="line2d_18">
    <path clip-path="url(#p0e41a455bf)" d="M 119.781815 142.040563 
L 123.980789 141.632707 
L 128.179764 141.508874 
L 132.378723 141.658245 
L 136.577698 140.930181 
L 140.776688 139.522544 
L 149.174622 137.700972 
L 153.373596 137.565933 
L 157.572556 138.498207 
L 161.77153 138.853946 
L 165.970505 139.650779 
L 170.169464 139.407708 
L 174.368439 139.951456 
L 178.567413 139.723244 
L 182.766373 139.338254 
L 186.965347 140.887923 
L 191.164307 140.749867 
L 195.363297 139.334427 
L 199.562271 139.218341 
L 207.960205 140.785599 
L 212.15918 140.633925 
L 216.358154 140.844924 
L 220.557114 139.790805 
L 224.756088 142.39755 
L 228.955048 142.745124 
L 233.154022 142.658869 
L 237.352997 143.524974 
L 241.551956 140.575082 
L 245.750931 140.706744 
L 249.949921 141.371641 
L 258.347855 141.248433 
L 262.546829 142.837072 
L 266.745804 144.01687 
L 270.944763 143.833005 
L 275.143738 142.862846 
L 279.342697 142.322045 
L 283.541672 142.488157 
L 287.740646 141.672161 
L 291.939606 142.498735 
L 296.13858 143.062883 
L 300.337555 145.120785 
L 304.536545 147.791773 
L 308.735504 145.640595 
L 312.934479 141.537626 
L 317.133453 136.273878 
L 321.332413 134.258724 
L 325.531387 134.952748 
L 329.730347 137.074624 
L 333.929321 139.897398 
L 338.128296 137.730465 
L 342.327255 134.980256 
L 346.52623 132.96167 
L 350.725204 131.277174 
L 354.924194 128.786606 
L 359.123154 127.943857 
L 363.322128 128.852302 
L 367.521103 130.414658 
L 371.720062 132.829999 
L 375.919037 132.792063 
L 380.117996 132.020053 
L 384.316971 131.779602 
L 388.515945 130.213062 
L 392.714905 127.725173 
L 396.913879 122.371366 
L 401.112854 115.334631 
L 405.311813 109.153198 
L 409.510803 104.518832 
L 413.709778 100.8463 
L 417.908752 100.358973 
L 422.107712 99.476189 
L 426.306686 97.352838 
L 430.505646 96.89231 
L 434.70462 91.739893 
L 438.903595 87.808596 
L 443.102554 83.590227 
L 447.301529 80.044252 
L 451.500504 77.543921 
L 455.699463 76.083394 
L 464.097427 74.198936 
L 468.296402 72.375533 
L 476.694336 67.888951 
L 480.893295 66.582834 
L 485.09227 65.715306 
L 489.291245 65.861214 
L 493.490204 65.554649 
L 497.689178 65.587359 
L 501.888153 64.781404 
L 506.087112 63.854663 
L 510.286087 62.075341 
L 518.684052 59.60401 
L 522.883011 57.995504 
L 527.081985 56.912981 
L 539.678894 54.492502 
L 552.275803 52.531677 
L 556.474762 52.39225 
L 560.673737 51.82366 
L 564.872696 50.987022 
L 569.071686 51.318397 
L 573.27066 51.273732 
L 577.469635 51.001466 
L 581.668594 50.229333 
L 585.867569 50.512062 
L 590.066544 50.329822 
L 594.265503 50.033776 
L 598.464478 50.651318 
L 602.663452 51.02921 
L 606.862411 50.550045 
L 611.061386 50.592716 
L 615.260345 50.123489 
L 619.45932 50.425132 
L 627.857285 51.243275 
L 632.056244 50.967936 
L 636.255219 50.936565 
L 640.454193 50.628629 
L 644.653152 50.572162 
L 648.852127 49.93597 
L 653.051102 49.964622 
L 657.250061 49.752934 
L 661.449036 49.70496 
L 665.647995 49.387434 
L 669.84697 49.588647 
L 674.045944 49.18343 
L 678.244934 49.471432 
L 682.443893 49.092561 
L 686.642868 49.245954 
L 690.841843 48.970751 
L 695.040802 49.932083 
L 699.239777 50.218628 
L 703.438751 50.274128 
L 711.836685 51.091905 
L 716.035645 50.735705 
L 720.234619 50.643656 
L 724.433594 51.001124 
L 728.632584 50.872119 
L 732.831543 51.421239 
L 741.229492 51.070065 
L 745.428452 51.168914 
L 753.826401 50.575429 
L 758.02536 50.17522 
L 762.224335 49.917103 
L 766.423294 49.127748 
L 779.020203 50.571254 
L 787.418167 50.548039 
L 787.418167 50.548039 
" style="fill:none;stroke:#ff0000;stroke-linecap:square;stroke-width:0.5;"/>
   </g>
   <g id="patch_3">
    <path d="M 86.4 170.156522 
L 86.4 43.2 
" style="fill:none;stroke:#000000;stroke-linecap:square;stroke-linejoin:miter;stroke-width:0.8;"/>
   </g>
   <g id="patch_4">
    <path d="M 820.8 170.156522 
L 820.8 43.2 
" style="fill:none;stroke:#000000;stroke-linecap:square;stroke-linejoin:miter;stroke-width:0.8;"/>
   </g>
   <g id="patch_5">
    <path d="M 86.399994 170.156522 
L 820.799988 170.156522 
" style="fill:none;stroke:#000000;stroke-linecap:square;stroke-linejoin:miter;stroke-width:0.8;"/>
   </g>
   <g id="patch_6">
    <path d="M 86.399994 43.2 
L 820.799988 43.2 
" style="fill:none;stroke:#000000;stroke-linecap:square;stroke-linejoin:miter;stroke-width:0.8;"/>
   </g>
   <g id="legend_1">
    <g id="patch_7">
     <path d="M 743.117187 95.234375 
L 813.8 95.234375 
Q 815.8 95.234375 815.8 93.234375 
L 815.8 50.2 
Q 815.8 48.2 813.8 48.2 
L 743.117187 48.2 
Q 741.117187 48.2 741.117187 50.2 
L 741.117187 93.234375 
Q 741.117187 95.234375 743.117187 95.234375 
z
" style="fill:#ffffff;opacity:0.8;stroke:#cccccc;stroke-linejoin:miter;"/>
    </g>
    <g id="text_6">
     <!-- Bx GSM -->
     <g transform="translate(745.117187 59.798437)scale(0.1 -0.1)">
      <defs>
       <path d="M 1259 2228 
L 1259 519 
L 2272 519 
Q 2781 519 3026 730 
Q 3272 941 3272 1375 
Q 3272 1813 3026 2020 
Q 2781 2228 2272 2228 
L 1259 2228 
z
M 1259 4147 
L 1259 2741 
L 2194 2741 
Q 2656 2741 2882 2914 
Q 3109 3088 3109 3444 
Q 3109 3797 2882 3972 
Q 2656 4147 2194 4147 
L 1259 4147 
z
M 628 4666 
L 2241 4666 
Q 2963 4666 3353 4366 
Q 3744 4066 3744 3513 
Q 3744 3084 3544 2831 
Q 3344 2578 2956 2516 
Q 3422 2416 3680 2098 
Q 3938 1781 3938 1306 
Q 3938 681 3513 340 
Q 3088 0 2303 0 
L 628 0 
L 628 4666 
z
" id="DejaVuSans-42" transform="scale(0.015625)"/>
       <path d="M 3513 3500 
L 2247 1797 
L 3578 0 
L 2900 0 
L 1881 1375 
L 863 0 
L 184 0 
L 1544 1831 
L 300 3500 
L 978 3500 
L 1906 2253 
L 2834 3500 
L 3513 3500 
z
" id="DejaVuSans-78" transform="scale(0.015625)"/>
      </defs>
      <use xlink:href="#DejaVuSans-42"/>
      <use x="68.603516" xlink:href="#DejaVuSans-78"/>
      <use x="127.783203" xlink:href="#DejaVuSans-20"/>
      <use x="159.570312" xlink:href="#DejaVuSans-47"/>
      <use x="237.060547" xlink:href="#DejaVuSans-53"/>
      <use x="300.537109" xlink:href="#DejaVuSans-4d"/>
     </g>
    </g>
    <g id="line2d_19">
     <path d="M 791.8 56.298437 
L 811.8 56.298437 
" style="fill:none;stroke:#0000ff;stroke-linecap:square;stroke-width:4;"/>
    </g>
    <g id="line2d_20"/>
    <g id="text_7">
     <!-- By GSM -->
     <g transform="translate(745.117187 74.476562)scale(0.1 -0.1)">
      <defs>
       <path d="M 2059 -325 
Q 1816 -950 1584 -1140 
Q 1353 -1331 966 -1331 
L 506 -1331 
L 506 -850 
L 844 -850 
Q 1081 -850 1212 -737 
Q 1344 -625 1503 -206 
L 1606 56 
L 191 3500 
L 800 3500 
L 1894 763 
L 2988 3500 
L 3597 3500 
L 2059 -325 
z
" id="DejaVuSans-79" transform="scale(0.015625)"/>
      </defs>
      <use xlink:href="#DejaVuSans-42"/>
      <use x="68.603516" xlink:href="#DejaVuSans-79"/>
      <use x="127.783203" xlink:href="#DejaVuSans-20"/>
      <use x="159.570312" xlink:href="#DejaVuSans-47"/>
      <use x="237.060547" xlink:href="#DejaVuSans-53"/>
      <use x="300.537109" xlink:href="#DejaVuSans-4d"/>
     </g>
    </g>
    <g id="line2d_21">
     <path d="M 791.8 70.976562 
L 811.8 70.976562 
" style="fill:none;stroke:#008000;stroke-linecap:square;stroke-width:4;"/>
    </g>
    <g id="line2d_22"/>
    <g id="text_8">
     <!-- Bz GSM -->
     <g transform="translate(745.7875 89.154687)scale(0.1 -0.1)">
      <defs>
       <path d="M 353 3500 
L 3084 3500 
L 3084 2975 
L 922 459 
L 3084 459 
L 3084 0 
L 275 0 
L 275 525 
L 2438 3041 
L 353 3041 
L 353 3500 
z
" id="DejaVuSans-7a" transform="scale(0.015625)"/>
      </defs>
      <use xlink:href="#DejaVuSans-42"/>
      <use x="68.603516" xlink:href="#DejaVuSans-7a"/>
      <use x="121.09375" xlink:href="#DejaVuSans-20"/>
      <use x="152.880859" xlink:href="#DejaVuSans-47"/>
      <use x="230.371094" xlink:href="#DejaVuSans-53"/>
      <use x="293.847656" xlink:href="#DejaVuSans-4d"/>
     </g>
    </g>
    <g id="line2d_23">
     <path d="M 791.8 85.654687 
L 811.8 85.654687 
" style="fill:none;stroke:#ff0000;stroke-linecap:square;stroke-width:4;"/>
    </g>
    <g id="line2d_24"/>
   </g>
  </g>
  <g id="axes_2">
   <g id="patch_8">
    <path d="M 86.4 306 
L 820.8 306 
L 820.8 179.043478 
L 86.4 179.043478 
z
" style="fill:#ffffff;"/>
   </g>
   <g id="matplotlib.axis_3">
    <g id="xtick_12">
     <g id="line2d_25">
      <g>
       <use style="stroke:#000000;stroke-width:0.8;" x="117.224075" xlink:href="#mfbb2213027" y="306"/>
      </g>
     </g>
     <g id="text_9">
      <!-- 05 -->
      <g transform="translate(109.589075 322.118125)scale(0.12 -0.12)">
       <use xlink:href="#DejaVuSans-30"/>
       <use x="63.623047" xlink:href="#DejaVuSans-35"/>
      </g>
     </g>
    </g>
    <g id="xtick_13">
     <g id="line2d_26">
      <g>
       <use style="stroke:#000000;stroke-width:0.8;" x="184.407608" xlink:href="#mfbb2213027" y="306"/>
      </g>
     </g>
     <g id="text_10">
      <!-- 06 -->
      <g transform="translate(176.772608 322.118125)scale(0.12 -0.12)">
       <defs>
        <path d="M 2113 2584 
Q 1688 2584 1439 2293 
Q 1191 2003 1191 1497 
Q 1191 994 1439 701 
Q 1688 409 2113 409 
Q 2538 409 2786 701 
Q 3034 994 3034 1497 
Q 3034 2003 2786 2293 
Q 2538 2584 2113 2584 
z
M 3366 4563 
L 3366 3988 
Q 3128 4100 2886 4159 
Q 2644 4219 2406 4219 
Q 1781 4219 1451 3797 
Q 1122 3375 1075 2522 
Q 1259 2794 1537 2939 
Q 1816 3084 2150 3084 
Q 2853 3084 3261 2657 
Q 3669 2231 3669 1497 
Q 3669 778 3244 343 
Q 2819 -91 2113 -91 
Q 1303 -91 875 529 
Q 447 1150 447 2328 
Q 447 3434 972 4092 
Q 1497 4750 2381 4750 
Q 2619 4750 2861 4703 
Q 3103 4656 3366 4563 
z
" id="DejaVuSans-36" transform="scale(0.015625)"/>
       </defs>
       <use xlink:href="#DejaVuSans-30"/>
       <use x="63.623047" xlink:href="#DejaVuSans-36"/>
      </g>
     </g>
    </g>
    <g id="xtick_14">
     <g id="line2d_27">
      <g>
       <use style="stroke:#000000;stroke-width:0.8;" x="251.591156" xlink:href="#mfbb2213027" y="306"/>
      </g>
     </g>
     <g id="text_11">
      <!-- 07 -->
      <g transform="translate(243.956156 322.118125)scale(0.12 -0.12)">
       <defs>
        <path d="M 525 4666 
L 3525 4666 
L 3525 4397 
L 1831 0 
L 1172 0 
L 2766 4134 
L 525 4134 
L 525 4666 
z
" id="DejaVuSans-37" transform="scale(0.015625)"/>
       </defs>
       <use xlink:href="#DejaVuSans-30"/>
       <use x="63.623047" xlink:href="#DejaVuSans-37"/>
      </g>
     </g>
    </g>
    <g id="xtick_15">
     <g id="line2d_28">
      <g>
       <use style="stroke:#000000;stroke-width:0.8;" x="318.774673" xlink:href="#mfbb2213027" y="306"/>
      </g>
     </g>
     <g id="text_12">
      <!-- 08 -->
      <g transform="translate(311.139673 322.118125)scale(0.12 -0.12)">
       <defs>
        <path d="M 2034 2216 
Q 1584 2216 1326 1975 
Q 1069 1734 1069 1313 
Q 1069 891 1326 650 
Q 1584 409 2034 409 
Q 2484 409 2743 651 
Q 3003 894 3003 1313 
Q 3003 1734 2745 1975 
Q 2488 2216 2034 2216 
z
M 1403 2484 
Q 997 2584 770 2862 
Q 544 3141 544 3541 
Q 544 4100 942 4425 
Q 1341 4750 2034 4750 
Q 2731 4750 3128 4425 
Q 3525 4100 3525 3541 
Q 3525 3141 3298 2862 
Q 3072 2584 2669 2484 
Q 3125 2378 3379 2068 
Q 3634 1759 3634 1313 
Q 3634 634 3220 271 
Q 2806 -91 2034 -91 
Q 1263 -91 848 271 
Q 434 634 434 1313 
Q 434 1759 690 2068 
Q 947 2378 1403 2484 
z
M 1172 3481 
Q 1172 3119 1398 2916 
Q 1625 2713 2034 2713 
Q 2441 2713 2670 2916 
Q 2900 3119 2900 3481 
Q 2900 3844 2670 4047 
Q 2441 4250 2034 4250 
Q 1625 4250 1398 4047 
Q 1172 3844 1172 3481 
z
" id="DejaVuSans-38" transform="scale(0.015625)"/>
       </defs>
       <use xlink:href="#DejaVuSans-30"/>
       <use x="63.623047" xlink:href="#DejaVuSans-38"/>
      </g>
     </g>
    </g>
    <g id="xtick_16">
     <g id="line2d_29">
      <g>
       <use style="stroke:#000000;stroke-width:0.8;" x="385.958206" xlink:href="#mfbb2213027" y="306"/>
      </g>
     </g>
     <g id="text_13">
      <!-- 09 -->
      <g transform="translate(378.323206 322.118125)scale(0.12 -0.12)">
       <defs>
        <path d="M 703 97 
L 703 672 
Q 941 559 1184 500 
Q 1428 441 1663 441 
Q 2288 441 2617 861 
Q 2947 1281 2994 2138 
Q 2813 1869 2534 1725 
Q 2256 1581 1919 1581 
Q 1219 1581 811 2004 
Q 403 2428 403 3163 
Q 403 3881 828 4315 
Q 1253 4750 1959 4750 
Q 2769 4750 3195 4129 
Q 3622 3509 3622 2328 
Q 3622 1225 3098 567 
Q 2575 -91 1691 -91 
Q 1453 -91 1209 -44 
Q 966 3 703 97 
z
M 1959 2075 
Q 2384 2075 2632 2365 
Q 2881 2656 2881 3163 
Q 2881 3666 2632 3958 
Q 2384 4250 1959 4250 
Q 1534 4250 1286 3958 
Q 1038 3666 1038 3163 
Q 1038 2656 1286 2365 
Q 1534 2075 1959 2075 
z
" id="DejaVuSans-39" transform="scale(0.015625)"/>
       </defs>
       <use xlink:href="#DejaVuSans-30"/>
       <use x="63.623047" xlink:href="#DejaVuSans-39"/>
      </g>
     </g>
    </g>
    <g id="xtick_17">
     <g id="line2d_30">
      <g>
       <use style="stroke:#000000;stroke-width:0.8;" x="453.141724" xlink:href="#mfbb2213027" y="306"/>
      </g>
     </g>
     <g id="text_14">
      <!-- 10 -->
      <g transform="translate(445.506724 322.118125)scale(0.12 -0.12)">
       <use xlink:href="#DejaVuSans-31"/>
       <use x="63.623047" xlink:href="#DejaVuSans-30"/>
      </g>
     </g>
    </g>
    <g id="xtick_18">
     <g id="line2d_31">
      <g>
       <use style="stroke:#000000;stroke-width:0.8;" x="520.325272" xlink:href="#mfbb2213027" y="306"/>
      </g>
     </g>
     <g id="text_15">
      <!-- 11 -->
      <g transform="translate(512.690272 322.118125)scale(0.12 -0.12)">
       <use xlink:href="#DejaVuSans-31"/>
       <use x="63.623047" xlink:href="#DejaVuSans-31"/>
      </g>
     </g>
    </g>
    <g id="xtick_19">
     <g id="line2d_32">
      <g>
       <use style="stroke:#000000;stroke-width:0.8;" x="587.508804" xlink:href="#mfbb2213027" y="306"/>
      </g>
     </g>
     <g id="text_16">
      <!-- 12 -->
      <g transform="translate(579.873804 322.118125)scale(0.12 -0.12)">
       <defs>
        <path d="M 1228 531 
L 3431 531 
L 3431 0 
L 469 0 
L 469 531 
Q 828 903 1448 1529 
Q 2069 2156 2228 2338 
Q 2531 2678 2651 2914 
Q 2772 3150 2772 3378 
Q 2772 3750 2511 3984 
Q 2250 4219 1831 4219 
Q 1534 4219 1204 4116 
Q 875 4013 500 3803 
L 500 4441 
Q 881 4594 1212 4672 
Q 1544 4750 1819 4750 
Q 2544 4750 2975 4387 
Q 3406 4025 3406 3419 
Q 3406 3131 3298 2873 
Q 3191 2616 2906 2266 
Q 2828 2175 2409 1742 
Q 1991 1309 1228 531 
z
" id="DejaVuSans-32" transform="scale(0.015625)"/>
       </defs>
       <use xlink:href="#DejaVuSans-31"/>
       <use x="63.623047" xlink:href="#DejaVuSans-32"/>
      </g>
     </g>
    </g>
    <g id="xtick_20">
     <g id="line2d_33">
      <g>
       <use style="stroke:#000000;stroke-width:0.8;" x="654.692322" xlink:href="#mfbb2213027" y="306"/>
      </g>
     </g>
     <g id="text_17">
      <!-- 13 -->
      <g transform="translate(647.057322 322.118125)scale(0.12 -0.12)">
       <defs>
        <path d="M 2597 2516 
Q 3050 2419 3304 2112 
Q 3559 1806 3559 1356 
Q 3559 666 3084 287 
Q 2609 -91 1734 -91 
Q 1441 -91 1130 -33 
Q 819 25 488 141 
L 488 750 
Q 750 597 1062 519 
Q 1375 441 1716 441 
Q 2309 441 2620 675 
Q 2931 909 2931 1356 
Q 2931 1769 2642 2001 
Q 2353 2234 1838 2234 
L 1294 2234 
L 1294 2753 
L 1863 2753 
Q 2328 2753 2575 2939 
Q 2822 3125 2822 3475 
Q 2822 3834 2567 4026 
Q 2313 4219 1838 4219 
Q 1578 4219 1281 4162 
Q 984 4106 628 3988 
L 628 4550 
Q 988 4650 1302 4700 
Q 1616 4750 1894 4750 
Q 2613 4750 3031 4423 
Q 3450 4097 3450 3541 
Q 3450 3153 3228 2886 
Q 3006 2619 2597 2516 
z
" id="DejaVuSans-33" transform="scale(0.015625)"/>
       </defs>
       <use xlink:href="#DejaVuSans-31"/>
       <use x="63.623047" xlink:href="#DejaVuSans-33"/>
      </g>
     </g>
    </g>
    <g id="xtick_21">
     <g id="line2d_34">
      <g>
       <use style="stroke:#000000;stroke-width:0.8;" x="721.875854" xlink:href="#mfbb2213027" y="306"/>
      </g>
     </g>
     <g id="text_18">
      <!-- 14 -->
      <g transform="translate(714.240854 322.118125)scale(0.12 -0.12)">
       <defs>
        <path d="M 2419 4116 
L 825 1625 
L 2419 1625 
L 2419 4116 
z
M 2253 4666 
L 3047 4666 
L 3047 1625 
L 3713 1625 
L 3713 1100 
L 3047 1100 
L 3047 0 
L 2419 0 
L 2419 1100 
L 313 1100 
L 313 1709 
L 2253 4666 
z
" id="DejaVuSans-34" transform="scale(0.015625)"/>
       </defs>
       <use xlink:href="#DejaVuSans-31"/>
       <use x="63.623047" xlink:href="#DejaVuSans-34"/>
      </g>
     </g>
    </g>
    <g id="xtick_22">
     <g id="line2d_35">
      <g>
       <use style="stroke:#000000;stroke-width:0.8;" x="789.059402" xlink:href="#mfbb2213027" y="306"/>
      </g>
     </g>
     <g id="text_19">
      <!-- 15 -->
      <g transform="translate(781.424402 322.118125)scale(0.12 -0.12)">
       <use xlink:href="#DejaVuSans-31"/>
       <use x="63.623047" xlink:href="#DejaVuSans-35"/>
      </g>
     </g>
    </g>
    <g id="text_20">
     <!-- 2021-Apr-16 19:19 -->
     <g transform="translate(726.975 335.212188)scale(0.1 -0.1)">
      <defs>
       <path d="M 313 2009 
L 1997 2009 
L 1997 1497 
L 313 1497 
L 313 2009 
z
" id="DejaVuSans-2d" transform="scale(0.015625)"/>
       <path d="M 2188 4044 
L 1331 1722 
L 3047 1722 
L 2188 4044 
z
M 1831 4666 
L 2547 4666 
L 4325 0 
L 3669 0 
L 3244 1197 
L 1141 1197 
L 716 0 
L 50 0 
L 1831 4666 
z
" id="DejaVuSans-41" transform="scale(0.015625)"/>
       <path d="M 1159 525 
L 1159 -1331 
L 581 -1331 
L 581 3500 
L 1159 3500 
L 1159 2969 
Q 1341 3281 1617 3432 
Q 1894 3584 2278 3584 
Q 2916 3584 3314 3078 
Q 3713 2572 3713 1747 
Q 3713 922 3314 415 
Q 2916 -91 2278 -91 
Q 1894 -91 1617 61 
Q 1341 213 1159 525 
z
M 3116 1747 
Q 3116 2381 2855 2742 
Q 2594 3103 2138 3103 
Q 1681 3103 1420 2742 
Q 1159 2381 1159 1747 
Q 1159 1113 1420 752 
Q 1681 391 2138 391 
Q 2594 391 2855 752 
Q 3116 1113 3116 1747 
z
" id="DejaVuSans-70" transform="scale(0.015625)"/>
       <path d="M 2631 2963 
Q 2534 3019 2420 3045 
Q 2306 3072 2169 3072 
Q 1681 3072 1420 2755 
Q 1159 2438 1159 1844 
L 1159 0 
L 581 0 
L 581 3500 
L 1159 3500 
L 1159 2956 
Q 1341 3275 1631 3429 
Q 1922 3584 2338 3584 
Q 2397 3584 2469 3576 
Q 2541 3569 2628 3553 
L 2631 2963 
z
" id="DejaVuSans-72" transform="scale(0.015625)"/>
       <path d="M 750 794 
L 1409 794 
L 1409 0 
L 750 0 
L 750 794 
z
M 750 3309 
L 1409 3309 
L 1409 2516 
L 750 2516 
L 750 3309 
z
" id="DejaVuSans-3a" transform="scale(0.015625)"/>
      </defs>
      <use xlink:href="#DejaVuSans-32"/>
      <use x="63.623047" xlink:href="#DejaVuSans-30"/>
      <use x="127.246094" xlink:href="#DejaVuSans-32"/>
      <use x="190.869141" xlink:href="#DejaVuSans-31"/>
      <use x="254.492188" xlink:href="#DejaVuSans-2d"/>
      <use x="288.326172" xlink:href="#DejaVuSans-41"/>
      <use x="356.734375" xlink:href="#DejaVuSans-70"/>
      <use x="420.210938" xlink:href="#DejaVuSans-72"/>
      <use x="454.949219" xlink:href="#DejaVuSans-2d"/>
      <use x="491.033203" xlink:href="#DejaVuSans-31"/>
      <use x="554.65625" xlink:href="#DejaVuSans-36"/>
      <use x="618.279297" xlink:href="#DejaVuSans-20"/>
      <use x="650.066406" xlink:href="#DejaVuSans-31"/>
      <use x="713.689453" xlink:href="#DejaVuSans-39"/>
      <use x="777.3125" xlink:href="#DejaVuSans-3a"/>
      <use x="811.003906" xlink:href="#DejaVuSans-31"/>
      <use x="874.626953" xlink:href="#DejaVuSans-39"/>
     </g>
    </g>
   </g>
   <g id="matplotlib.axis_4">
    <g id="ytick_5">
     <g id="line2d_36">
      <g>
       <use style="stroke:#000000;stroke-width:0.8;" x="86.4" xlink:href="#m80a30871f8" y="303.33932"/>
      </g>
     </g>
     <g id="text_21">
      <!-- −10 -->
      <g transform="translate(54.074375 307.898382)scale(0.12 -0.12)">
       <use xlink:href="#DejaVuSans-2212"/>
       <use x="83.789062" xlink:href="#DejaVuSans-31"/>
       <use x="147.412109" xlink:href="#DejaVuSans-30"/>
      </g>
     </g>
    </g>
    <g id="ytick_6">
     <g id="line2d_37">
      <g>
       <use style="stroke:#000000;stroke-width:0.8;" x="86.4" xlink:href="#m80a30871f8" y="274.173769"/>
      </g>
     </g>
     <g id="text_22">
      <!-- −5 -->
      <g transform="translate(61.709375 278.732832)scale(0.12 -0.12)">
       <use xlink:href="#DejaVuSans-2212"/>
       <use x="83.789062" xlink:href="#DejaVuSans-35"/>
      </g>
     </g>
    </g>
    <g id="ytick_7">
     <g id="line2d_38">
      <g>
       <use style="stroke:#000000;stroke-width:0.8;" x="86.4" xlink:href="#m80a30871f8" y="245.008219"/>
      </g>
     </g>
     <g id="text_23">
      <!-- 0 -->
      <g transform="translate(71.765 249.567281)scale(0.12 -0.12)">
       <use xlink:href="#DejaVuSans-30"/>
      </g>
     </g>
    </g>
    <g id="ytick_8">
     <g id="line2d_39">
      <g>
       <use style="stroke:#000000;stroke-width:0.8;" x="86.4" xlink:href="#m80a30871f8" y="215.842668"/>
      </g>
     </g>
     <g id="text_24">
      <!-- 5 -->
      <g transform="translate(71.765 220.401731)scale(0.12 -0.12)">
       <use xlink:href="#DejaVuSans-35"/>
      </g>
     </g>
    </g>
    <g id="ytick_9">
     <g id="line2d_40">
      <g>
       <use style="stroke:#000000;stroke-width:0.8;" x="86.4" xlink:href="#m80a30871f8" y="186.677118"/>
      </g>
     </g>
     <g id="text_25">
      <!-- 10 -->
      <g transform="translate(64.13 191.23618)scale(0.12 -0.12)">
       <use xlink:href="#DejaVuSans-31"/>
       <use x="63.623047" xlink:href="#DejaVuSans-30"/>
      </g>
     </g>
    </g>
    <g id="text_26">
     <!-- THC FGL -->
     <g transform="translate(34.141375 268.238302)rotate(-90)scale(0.12 -0.12)">
      <use xlink:href="#DejaVuSans-54"/>
      <use x="61.083984" xlink:href="#DejaVuSans-48"/>
      <use x="136.279297" xlink:href="#DejaVuSans-43"/>
      <use x="206.103516" xlink:href="#DejaVuSans-20"/>
      <use x="237.890625" xlink:href="#DejaVuSans-46"/>
      <use x="295.410156" xlink:href="#DejaVuSans-47"/>
      <use x="372.900391" xlink:href="#DejaVuSans-4c"/>
     </g>
     <!-- [nT] -->
     <g transform="translate(47.57875 254.670802)rotate(-90)scale(0.12 -0.12)">
      <use xlink:href="#DejaVuSans-5b"/>
      <use x="39.013672" xlink:href="#DejaVuSans-6e"/>
      <use x="102.392578" xlink:href="#DejaVuSans-54"/>
      <use x="163.476562" xlink:href="#DejaVuSans-5d"/>
     </g>
    </g>
   </g>
   <g id="line2d_41">
    <path clip-path="url(#pf61eca5c8e)" d="M 119.781815 297.017753 
L 128.179764 296.188453 
L 132.378723 296.530204 
L 136.577698 296.344398 
L 140.776688 295.295626 
L 144.975647 294.924406 
L 149.174622 293.972378 
L 153.373596 293.414336 
L 157.572556 293.978519 
L 165.970505 294.706682 
L 170.169464 294.466753 
L 174.368439 294.927618 
L 178.567413 294.929361 
L 182.766373 295.126399 
L 186.965347 296.091338 
L 191.164307 296.059671 
L 195.363297 295.08774 
L 199.562271 295.064717 
L 203.761246 295.211636 
L 207.960205 296.001555 
L 216.358154 295.582663 
L 220.557114 294.842658 
L 224.756088 296.357136 
L 228.955048 297.216992 
L 233.154022 297.210018 
L 237.352997 298.009995 
L 241.551956 296.406262 
L 245.750931 296.185568 
L 249.949921 296.545481 
L 254.148895 296.043636 
L 258.347855 295.697961 
L 262.546829 296.462807 
L 270.944763 296.918604 
L 283.541672 296.483953 
L 287.740646 295.654106 
L 291.939606 295.949049 
L 296.13858 295.978069 
L 300.337555 297.357222 
L 304.536545 299.328602 
L 308.735504 300.229249 
L 312.934479 298.480857 
L 317.133453 294.470521 
L 321.332413 291.736012 
L 325.531387 290.20762 
L 329.730347 289.576091 
L 333.929321 291.115191 
L 338.128296 288.494349 
L 342.327255 284.921201 
L 346.52623 282.810027 
L 350.725204 281.84456 
L 354.924194 280.465211 
L 359.123154 280.75071 
L 363.322128 282.284265 
L 367.521103 284.595411 
L 371.720062 287.349924 
L 380.117996 289.292397 
L 384.316971 290.142102 
L 388.515945 289.514841 
L 392.714905 287.088511 
L 396.913879 282.909052 
L 401.112854 277.493971 
L 405.311813 272.97169 
L 409.510803 269.088154 
L 413.709778 266.255613 
L 417.908752 265.872906 
L 422.107712 264.985348 
L 426.306686 262.128549 
L 430.505646 261.710703 
L 434.70462 257.422469 
L 438.903595 253.863795 
L 443.102554 249.275456 
L 447.301529 245.829105 
L 451.500504 243.508025 
L 455.699463 241.819984 
L 459.898438 240.901025 
L 464.097427 239.781498 
L 468.296402 237.678798 
L 472.495361 234.803815 
L 476.694336 232.514239 
L 480.893295 230.891627 
L 485.09227 230.405009 
L 489.291245 230.635507 
L 493.490204 230.380534 
L 497.689178 229.8756 
L 501.888153 228.349538 
L 506.087112 226.646568 
L 510.286087 224.474531 
L 518.684052 220.803822 
L 522.883011 218.294388 
L 527.081985 216.357907 
L 531.280945 214.036961 
L 535.479919 211.40849 
L 543.877853 207.444213 
L 552.275803 204.385261 
L 560.673737 201.85057 
L 564.872696 199.604607 
L 569.071686 198.462533 
L 573.27066 197.940636 
L 577.469635 196.983601 
L 581.668594 195.581609 
L 585.867569 195.022825 
L 594.265503 194.299129 
L 598.464478 194.641164 
L 602.663452 194.69314 
L 606.862411 193.309865 
L 611.061386 193.140691 
L 615.260345 192.551906 
L 619.45932 192.251965 
L 623.65831 192.654778 
L 632.056244 192.881203 
L 636.255219 193.035022 
L 640.454193 192.707813 
L 648.852127 192.570412 
L 653.051102 193.214868 
L 657.250061 193.128536 
L 669.84697 194.084205 
L 678.244934 193.4388 
L 682.443893 193.000696 
L 690.841843 193.148267 
L 695.040802 194.185107 
L 703.438751 194.222084 
L 707.637711 194.149196 
L 711.836685 194.331971 
L 716.035645 193.443776 
L 720.234619 193.37351 
L 724.433594 193.448688 
L 728.632584 192.881838 
L 732.831543 193.16729 
L 737.030518 192.502362 
L 741.229492 191.992475 
L 745.428452 192.23352 
L 753.826401 191.777817 
L 758.02536 190.997256 
L 762.224335 191.101961 
L 766.423294 190.591647 
L 770.622269 191.495657 
L 774.821243 191.647236 
L 779.020203 192.088967 
L 783.219193 192.301955 
L 787.418167 191.736247 
L 787.418167 191.736247 
" style="fill:none;stroke:#0000ff;stroke-linecap:square;stroke-width:0.5;"/>
   </g>
   <g id="line2d_42">
    <path clip-path="url(#pf61eca5c8e)" d="M 119.781815 220.64709 
L 123.980789 220.625505 
L 128.179764 221.070655 
L 132.378723 220.956455 
L 136.577698 220.235747 
L 140.776688 219.402052 
L 144.975647 218.27692 
L 149.174622 218.123246 
L 153.373596 218.802015 
L 157.572556 219.649571 
L 161.77153 219.760909 
L 165.970505 220.288176 
L 170.169464 220.238436 
L 174.368439 220.346185 
L 178.567413 219.952086 
L 182.766373 219.185127 
L 186.965347 220.521951 
L 191.164307 220.060566 
L 195.363297 219.024099 
L 199.562271 218.893869 
L 203.761246 220.284622 
L 207.960205 220.581565 
L 212.15918 220.74209 
L 216.358154 221.468355 
L 220.557114 220.842595 
L 224.756088 223.246804 
L 228.955048 222.537682 
L 233.154022 222.60549 
L 237.352997 223.014373 
L 241.551956 220.059732 
L 249.949921 220.839356 
L 254.148895 221.192443 
L 258.347855 221.433936 
L 262.546829 222.828755 
L 266.745804 224.718789 
L 270.944763 224.210346 
L 275.143738 222.654999 
L 279.342697 222.037859 
L 283.541672 222.588158 
L 287.740646 222.651531 
L 296.13858 224.854321 
L 300.337555 226.490427 
L 304.536545 228.28125 
L 308.735504 222.709862 
L 312.934479 217.506222 
L 317.133453 214.072406 
L 321.332413 214.489394 
L 325.531387 217.978488 
L 329.730347 222.735562 
L 333.929321 225.385948 
L 338.128296 225.881165 
L 342.327255 226.903125 
L 346.52623 227.001067 
L 350.725204 225.755164 
L 359.123154 221.39516 
L 367.521103 218.626455 
L 371.720062 218.069884 
L 375.919037 216.215423 
L 380.117996 213.055994 
L 388.515945 209.27485 
L 392.714905 208.812556 
L 396.913879 206.097401 
L 401.112854 202.210492 
L 405.311813 198.695853 
L 409.510803 196.715152 
L 413.709778 194.865861 
L 422.107712 194.728404 
L 426.306686 195.572685 
L 430.505646 195.232154 
L 434.70462 193.200606 
L 438.903595 192.170686 
L 443.102554 192.230629 
L 447.301529 191.653741 
L 451.500504 191.209266 
L 455.699463 191.357194 
L 459.898438 191.259434 
L 472.495361 192.185669 
L 476.694336 191.895566 
L 480.893295 192.205594 
L 485.09227 191.430381 
L 493.490204 190.983635 
L 497.689178 191.800573 
L 501.888153 192.734099 
L 506.087112 193.804143 
L 510.286087 194.12609 
L 518.684052 195.516765 
L 527.081985 197.984362 
L 531.280945 200.184029 
L 535.479919 202.925673 
L 539.678894 204.855805 
L 543.877853 206.99695 
L 548.076828 208.228411 
L 552.275803 209.700616 
L 556.474762 211.330158 
L 560.673737 212.547262 
L 564.872696 214.44736 
L 569.071686 216.927118 
L 573.27066 217.645993 
L 581.668594 219.659887 
L 585.867569 221.035253 
L 590.066544 221.081469 
L 594.265503 220.936977 
L 598.464478 221.241123 
L 602.663452 221.662966 
L 606.862411 222.877368 
L 611.061386 223.245183 
L 615.260345 223.241829 
L 619.45932 224.277463 
L 623.65831 224.312751 
L 627.857285 224.786188 
L 632.056244 224.138336 
L 636.255219 224.003631 
L 640.454193 224.180905 
L 644.653152 224.170738 
L 653.051102 222.34559 
L 657.250061 222.104323 
L 661.449036 221.560893 
L 665.647995 220.455645 
L 674.045944 220.175525 
L 678.244934 221.376999 
L 682.443893 221.344779 
L 686.642868 221.52943 
L 690.841843 220.90089 
L 695.040802 220.892899 
L 703.438751 221.756314 
L 707.637711 222.58446 
L 711.836685 223.005684 
L 716.035645 223.726757 
L 720.234619 223.600899 
L 728.632584 224.717812 
L 732.831543 225.078343 
L 737.030518 225.911982 
L 741.229492 226.501174 
L 745.428452 226.263487 
L 753.826401 226.002554 
L 758.02536 226.608921 
L 762.224335 225.934144 
L 770.622269 224.309196 
L 774.821243 225.004667 
L 779.020203 225.269777 
L 783.219193 225.001099 
L 787.418167 226.227947 
L 787.418167 226.227947 
" style="fill:none;stroke:#008000;stroke-linecap:square;stroke-width:0.5;"/>
   </g>
   <g id="line2d_43">
    <path clip-path="url(#pf61eca5c8e)" d="M 119.781815 242.931949 
L 123.980789 242.419768 
L 128.179764 242.74918 
L 132.378723 241.949638 
L 136.577698 240.563887 
L 140.776688 240.512081 
L 149.174622 241.124083 
L 153.373596 241.04567 
L 161.77153 240.27328 
L 165.970505 241.931541 
L 170.169464 241.928881 
L 174.368439 242.529043 
L 178.567413 242.426391 
L 182.766373 241.253711 
L 186.965347 240.790699 
L 191.164307 242.023202 
L 195.363297 242.270605 
L 199.562271 242.071174 
L 203.761246 240.624168 
L 212.15918 240.137334 
L 220.557114 239.485154 
L 224.756088 238.804978 
L 228.955048 238.531045 
L 233.154022 237.534121 
L 237.352997 236.875915 
L 241.551956 237.903857 
L 245.750931 239.10856 
L 249.949921 239.949592 
L 254.148895 241.875854 
L 258.347855 242.571006 
L 262.546829 243.690814 
L 270.944763 242.195496 
L 279.342697 242.083794 
L 283.541672 241.696172 
L 287.740646 240.793088 
L 296.13858 239.802728 
L 304.536545 238.356843 
L 308.735504 239.358895 
L 312.934479 242.245372 
L 317.133453 244.208795 
L 321.332413 245.975504 
L 325.531387 247.148654 
L 329.730347 247.666063 
L 333.929321 247.477854 
L 338.128296 246.723785 
L 342.327255 245.802174 
L 346.52623 244.28816 
L 350.725204 243.184488 
L 354.924194 242.943376 
L 359.123154 243.663447 
L 363.322128 246.10837 
L 371.720062 250.466786 
L 375.919037 251.451798 
L 380.117996 252.304801 
L 384.316971 252.519401 
L 388.515945 253.000268 
L 392.714905 252.529656 
L 396.913879 251.647368 
L 401.112854 251.384631 
L 405.311813 249.836685 
L 409.510803 249.363852 
L 417.908752 247.539309 
L 422.107712 247.123898 
L 426.306686 246.90029 
L 430.505646 247.770229 
L 438.903595 244.783817 
L 447.301529 242.496743 
L 451.500504 241.035378 
L 455.699463 240.801189 
L 459.898438 240.323174 
L 464.097427 239.482688 
L 468.296402 239.09179 
L 476.694336 239.596231 
L 480.893295 239.414384 
L 485.09227 239.39141 
L 489.291245 240.003496 
L 501.888153 241.006848 
L 506.087112 241.093925 
L 510.286087 241.024111 
L 518.684052 241.48398 
L 522.883011 240.937805 
L 527.081985 240.934112 
L 531.280945 241.283788 
L 535.479919 240.860055 
L 539.678894 240.712016 
L 543.877853 240.740495 
L 548.076828 240.99414 
L 552.275803 240.000573 
L 556.474762 240.63593 
L 560.673737 239.949308 
L 564.872696 241.045079 
L 569.071686 240.929957 
L 577.469635 241.483707 
L 581.668594 240.8152 
L 585.867569 241.022559 
L 590.066544 241.695752 
L 598.464478 244.146153 
L 606.862411 245.754563 
L 611.061386 245.680754 
L 615.260345 246.197926 
L 619.45932 246.187239 
L 623.65831 246.826797 
L 627.857285 247.063136 
L 632.056244 246.654488 
L 636.255219 245.848259 
L 640.454193 244.895421 
L 644.653152 244.871654 
L 653.051102 244.002164 
L 657.250061 243.994017 
L 661.449036 243.495755 
L 665.647995 243.343749 
L 669.84697 243.618505 
L 674.045944 243.020408 
L 678.244934 242.651577 
L 682.443893 242.92342 
L 686.642868 242.737406 
L 690.841843 242.84669 
L 695.040802 243.14726 
L 699.239777 243.168055 
L 703.438751 241.720913 
L 707.637711 242.275319 
L 711.836685 241.967798 
L 720.234619 242.67223 
L 724.433594 242.622747 
L 728.632584 243.119559 
L 732.831543 243.91616 
L 737.030518 243.238116 
L 741.229492 243.212168 
L 745.428452 243.329739 
L 749.627426 243.218743 
L 758.02536 242.691262 
L 762.224335 242.866514 
L 770.622269 245.052832 
L 774.821243 245.28509 
L 779.020203 244.016597 
L 783.219193 243.991182 
L 787.418167 242.013656 
L 787.418167 242.013656 
" style="fill:none;stroke:#ff0000;stroke-linecap:square;stroke-width:0.5;"/>
   </g>
   <g id="line2d_44">
    <path clip-path="url(#pf61eca5c8e)" d="M 119.781815 187.538509 
L 123.980789 187.846659 
L 128.179764 188.461542 
L 132.378723 188.066516 
L 136.577698 187.834532 
L 140.776688 188.398019 
L 144.975647 188.227361 
L 153.373596 189.821095 
L 157.572556 189.692642 
L 161.77153 189.370668 
L 165.970505 189.4161 
L 170.169464 189.608114 
L 174.368439 189.273951 
L 178.567413 189.09224 
L 182.766373 188.503703 
L 186.965347 188.202851 
L 191.164307 188.108777 
L 195.363297 188.522578 
L 199.562271 188.472929 
L 203.761246 188.875699 
L 207.960205 188.27286 
L 212.15918 188.544373 
L 220.557114 189.348961 
L 224.756088 188.89449 
L 228.955048 187.801272 
L 233.154022 187.712733 
L 237.352997 187.050888 
L 245.750931 187.916112 
L 249.949921 187.860922 
L 254.148895 188.6024 
L 258.347855 189.051653 
L 262.546829 188.961462 
L 266.745804 189.422086 
L 275.143738 188.52591 
L 279.342697 188.47037 
L 283.541672 188.764285 
L 287.740646 189.487094 
L 291.939606 189.618494 
L 296.13858 189.951862 
L 300.337555 189.166616 
L 304.536545 187.782903 
L 308.735504 185.187699 
L 312.934479 184.814229 
L 317.133453 186.662838 
L 321.332413 189.188678 
L 325.531387 192.299834 
L 329.730347 195.114015 
L 333.929321 194.838647 
L 338.128296 197.470538 
L 342.327255 201.173632 
L 346.52623 203.130389 
L 350.725204 203.403866 
L 354.924194 203.506167 
L 359.123154 202.14902 
L 363.322128 200.122046 
L 371.720062 194.527626 
L 375.919037 192.601676 
L 380.117996 189.914902 
L 384.316971 188.114913 
L 388.515945 187.37501 
L 392.714905 188.995284 
L 396.913879 190.285251 
L 401.112854 190.900657 
L 405.311813 190.69335 
L 409.510803 190.869182 
L 413.709778 190.442225 
L 417.908752 190.574888 
L 422.107712 190.863763 
L 426.306686 192.657878 
L 430.505646 192.432003 
L 434.70462 191.720198 
L 438.903595 191.433253 
L 443.102554 192.040787 
L 451.500504 191.041921 
L 455.699463 191.098145 
L 459.898438 190.899522 
L 464.097427 190.999937 
L 472.495361 190.911844 
L 476.694336 190.178088 
L 480.893295 190.065645 
L 485.09227 189.192561 
L 489.291245 189.07905 
L 493.490204 188.841404 
L 497.689178 189.515275 
L 506.087112 190.470801 
L 510.286087 189.994612 
L 522.883011 189.741089 
L 527.081985 189.793347 
L 535.479919 190.998124 
L 543.877853 191.397356 
L 552.275803 190.953354 
L 556.474762 191.100909 
L 560.673737 190.769033 
L 564.872696 190.134174 
L 569.071686 190.495083 
L 573.27066 190.428974 
L 577.469635 190.106571 
L 581.668594 189.302656 
L 585.867569 189.428283 
L 590.066544 189.204193 
L 594.265503 188.837643 
L 598.464478 189.308503 
L 602.663452 189.541026 
L 606.862411 188.767206 
L 611.061386 188.755908 
L 615.260345 188.202795 
L 619.45932 188.312746 
L 623.65831 188.683334 
L 627.857285 188.922744 
L 632.056244 188.834489 
L 636.255219 188.944757 
L 640.454193 188.713257 
L 644.653152 188.659692 
L 648.852127 188.230432 
L 653.051102 188.464796 
L 657.250061 188.288564 
L 661.449036 188.371345 
L 665.647995 188.213126 
L 669.84697 188.404522 
L 674.045944 188.069887 
L 678.244934 188.23328 
L 682.443893 187.832285 
L 686.642868 187.975763 
L 690.841843 187.778069 
L 695.040802 188.723226 
L 699.239777 188.949507 
L 703.438751 189.055653 
L 711.836685 189.677951 
L 716.035645 189.160441 
L 720.234619 189.062946 
L 724.433594 189.33323 
L 728.632584 189.040127 
L 732.831543 189.457571 
L 741.229492 188.826317 
L 745.428452 188.978306 
L 753.826401 188.450461 
L 758.02536 187.902294 
L 762.224335 187.786791 
L 766.423294 187.058109 
L 770.622269 187.631865 
L 779.020203 188.518956 
L 783.219193 188.623205 
L 787.418167 188.443485 
L 787.418167 188.443485 
" style="fill:none;stroke:#000000;stroke-linecap:square;stroke-width:0.5;"/>
   </g>
   <g id="patch_9">
    <path d="M 86.4 306 
L 86.4 179.043478 
" style="fill:none;stroke:#000000;stroke-linecap:square;stroke-linejoin:miter;stroke-width:0.8;"/>
   </g>
   <g id="patch_10">
    <path d="M 820.8 306 
L 820.8 179.043478 
" style="fill:none;stroke:#000000;stroke-linecap:square;stroke-linejoin:miter;stroke-width:0.8;"/>
   </g>
   <g id="patch_11">
    <path d="M 86.399994 306 
L 820.799988 306 
" style="fill:none;stroke:#000000;stroke-linecap:square;stroke-linejoin:miter;stroke-width:0.8;"/>
   </g>
   <g id="patch_12">
    <path d="M 86.399994 179.043478 
L 820.799988 179.043478 
" style="fill:none;stroke:#000000;stroke-linecap:square;stroke-linejoin:miter;stroke-width:0.8;"/>
   </g>
   <g id="legend_2">
    <g id="patch_13">
     <path d="M 752.073437 245.755978 
L 813.8 245.755978 
Q 815.8 245.755978 815.8 243.755978 
L 815.8 186.043478 
Q 815.8 184.043478 813.8 184.043478 
L 752.073437 184.043478 
Q 750.073437 184.043478 750.073437 186.043478 
L 750.073437 243.755978 
Q 750.073437 245.755978 752.073437 245.755978 
z
" style="fill:#ffffff;opacity:0.8;stroke:#cccccc;stroke-linejoin:miter;"/>
    </g>
    <g id="text_27">
     <!-- Bl -->
     <g transform="translate(774.160937 195.641916)scale(0.1 -0.1)">
      <defs>
       <path d="M 603 4863 
L 1178 4863 
L 1178 0 
L 603 0 
L 603 4863 
z
" id="DejaVuSans-6c" transform="scale(0.015625)"/>
      </defs>
      <use xlink:href="#DejaVuSans-42"/>
      <use x="68.603516" xlink:href="#DejaVuSans-6c"/>
     </g>
    </g>
    <g id="line2d_45">
     <path d="M 791.8 192.141916 
L 811.8 192.141916 
" style="fill:none;stroke:#0000ff;stroke-linecap:square;stroke-width:4;"/>
    </g>
    <g id="line2d_46"/>
    <g id="text_28">
     <!-- Bm -->
     <g transform="translate(767.198437 210.320041)scale(0.1 -0.1)">
      <defs>
       <path d="M 3328 2828 
Q 3544 3216 3844 3400 
Q 4144 3584 4550 3584 
Q 5097 3584 5394 3201 
Q 5691 2819 5691 2113 
L 5691 0 
L 5113 0 
L 5113 2094 
Q 5113 2597 4934 2840 
Q 4756 3084 4391 3084 
Q 3944 3084 3684 2787 
Q 3425 2491 3425 1978 
L 3425 0 
L 2847 0 
L 2847 2094 
Q 2847 2600 2669 2842 
Q 2491 3084 2119 3084 
Q 1678 3084 1418 2786 
Q 1159 2488 1159 1978 
L 1159 0 
L 581 0 
L 581 3500 
L 1159 3500 
L 1159 2956 
Q 1356 3278 1631 3431 
Q 1906 3584 2284 3584 
Q 2666 3584 2933 3390 
Q 3200 3197 3328 2828 
z
" id="DejaVuSans-6d" transform="scale(0.015625)"/>
      </defs>
      <use xlink:href="#DejaVuSans-42"/>
      <use x="68.603516" xlink:href="#DejaVuSans-6d"/>
     </g>
    </g>
    <g id="line2d_47">
     <path d="M 791.8 206.820041 
L 811.8 206.820041 
" style="fill:none;stroke:#008000;stroke-linecap:square;stroke-width:4;"/>
    </g>
    <g id="line2d_48"/>
    <g id="text_29">
     <!-- Bn -->
     <g transform="translate(770.601562 224.998166)scale(0.1 -0.1)">
      <use xlink:href="#DejaVuSans-42"/>
      <use x="68.603516" xlink:href="#DejaVuSans-6e"/>
     </g>
    </g>
    <g id="line2d_49">
     <path d="M 791.8 221.498166 
L 811.8 221.498166 
" style="fill:none;stroke:#ff0000;stroke-linecap:square;stroke-width:4;"/>
    </g>
    <g id="line2d_50"/>
    <g id="text_30">
     <!-- Btotal -->
     <g transform="translate(754.073437 239.676291)scale(0.1 -0.1)">
      <defs>
       <path d="M 1172 4494 
L 1172 3500 
L 2356 3500 
L 2356 3053 
L 1172 3053 
L 1172 1153 
Q 1172 725 1289 603 
Q 1406 481 1766 481 
L 2356 481 
L 2356 0 
L 1766 0 
Q 1100 0 847 248 
Q 594 497 594 1153 
L 594 3053 
L 172 3053 
L 172 3500 
L 594 3500 
L 594 4494 
L 1172 4494 
z
" id="DejaVuSans-74" transform="scale(0.015625)"/>
       <path d="M 1959 3097 
Q 1497 3097 1228 2736 
Q 959 2375 959 1747 
Q 959 1119 1226 758 
Q 1494 397 1959 397 
Q 2419 397 2687 759 
Q 2956 1122 2956 1747 
Q 2956 2369 2687 2733 
Q 2419 3097 1959 3097 
z
M 1959 3584 
Q 2709 3584 3137 3096 
Q 3566 2609 3566 1747 
Q 3566 888 3137 398 
Q 2709 -91 1959 -91 
Q 1206 -91 779 398 
Q 353 888 353 1747 
Q 353 2609 779 3096 
Q 1206 3584 1959 3584 
z
" id="DejaVuSans-6f" transform="scale(0.015625)"/>
       <path d="M 2194 1759 
Q 1497 1759 1228 1600 
Q 959 1441 959 1056 
Q 959 750 1161 570 
Q 1363 391 1709 391 
Q 2188 391 2477 730 
Q 2766 1069 2766 1631 
L 2766 1759 
L 2194 1759 
z
M 3341 1997 
L 3341 0 
L 2766 0 
L 2766 531 
Q 2569 213 2275 61 
Q 1981 -91 1556 -91 
Q 1019 -91 701 211 
Q 384 513 384 1019 
Q 384 1609 779 1909 
Q 1175 2209 1959 2209 
L 2766 2209 
L 2766 2266 
Q 2766 2663 2505 2880 
Q 2244 3097 1772 3097 
Q 1472 3097 1187 3025 
Q 903 2953 641 2809 
L 641 3341 
Q 956 3463 1253 3523 
Q 1550 3584 1831 3584 
Q 2591 3584 2966 3190 
Q 3341 2797 3341 1997 
z
" id="DejaVuSans-61" transform="scale(0.015625)"/>
      </defs>
      <use xlink:href="#DejaVuSans-42"/>
      <use x="68.603516" xlink:href="#DejaVuSans-74"/>
      <use x="107.8125" xlink:href="#DejaVuSans-6f"/>
      <use x="168.994141" xlink:href="#DejaVuSans-74"/>
      <use x="208.203125" xlink:href="#DejaVuSans-61"/>
      <use x="269.482422" xlink:href="#DejaVuSans-6c"/>
     </g>
    </g>
    <g id="line2d_51">
     <path d="M 791.8 236.176291 
L 811.8 236.176291 
" style="fill:none;stroke:#000000;stroke-linecap:square;stroke-width:4;"/>
    </g>
    <g id="line2d_52"/>
   </g>
  </g>
 </g>
 <defs>
  <clipPath id="p0e41a455bf">
   <rect height="126.956522" width="734.4" x="86.4" y="43.2"/>
  </clipPath>
  <clipPath id="pf61eca5c8e">
   <rect height="126.956522" width="734.4" x="86.4" y="179.043478"/>
  </clipPath>
 </defs>
</svg>
