<?xml version="1.0" encoding="utf-8" standalone="no"?>
<!DOCTYPE svg PUBLIC "-//W3C//DTD SVG 1.1//EN"
  "http://www.w3.org/Graphics/SVG/1.1/DTD/svg11.dtd">
<svg height="360pt" version="1.1" viewBox="0 0 864 360" width="864pt" xmlns="http://www.w3.org/2000/svg" xmlns:xlink="http://www.w3.org/1999/xlink">
 <metadata>
  <rdf:RDF xmlns:cc="http://creativecommons.org/ns#" xmlns:dc="http://purl.org/dc/elements/1.1/" xmlns:rdf="http://www.w3.org/1999/02/22-rdf-syntax-ns#">
   <cc:Work>
    <dc:type rdf:resource="http://purl.org/dc/dcmitype/StillImage"/>
    <dc:date>2023-06-05T12:58:57.880542</dc:date>
    <dc:format>image/svg+xml</dc:format>
    <dc:creator>
     <cc:Agent>
      <dc:title>Matplotlib v3.4.3, https://matplotlib.org/</dc:title>
     </cc:Agent>
    </dc:creator>
   </cc:Work>
  </rdf:RDF>
 </metadata>
 <defs>
  <style type="text/css">*{stroke-linecap:butt;stroke-linejoin:round;}</style>
 </defs>
 <g id="figure_1">
  <g id="patch_1">
   <path d="M 0 360 
L 864 360 
L 864 0 
L 0 0 
z
" style="fill:none;"/>
  </g>
  <g id="axes_1">
   <g id="patch_2">
    <path d="M 86.4 170.156522 
L 820.8 170.156522 
L 820.8 43.2 
L 86.4 43.2 
z
" style="fill:#ffffff;"/>
   </g>
   <g id="matplotlib.axis_1">
    <g id="xtick_1">
     <g id="line2d_1">
      <defs>
       <path d="M 0 0 
L 0 3.5 
" id="mb1f6b8121b" style="stroke:#000000;stroke-width:0.8;"/>
      </defs>
      <g>
       <use style="stroke:#000000;stroke-width:0.8;" x="118.635651" xlink:href="#mb1f6b8121b" y="170.156522"/>
      </g>
     </g>
    </g>
    <g id="xtick_2">
     <g id="line2d_2">
      <g>
       <use style="stroke:#000000;stroke-width:0.8;" x="231.079712" xlink:href="#mb1f6b8121b" y="170.156522"/>
      </g>
     </g>
    </g>
    <g id="xtick_3">
     <g id="line2d_3">
      <g>
       <use style="stroke:#000000;stroke-width:0.8;" x="343.523712" xlink:href="#mb1f6b8121b" y="170.156522"/>
      </g>
     </g>
    </g>
    <g id="xtick_4">
     <g id="line2d_4">
      <g>
       <use style="stroke:#000000;stroke-width:0.8;" x="455.967712" xlink:href="#mb1f6b8121b" y="170.156522"/>
      </g>
     </g>
    </g>
    <g id="xtick_5">
     <g id="line2d_5">
      <g>
       <use style="stroke:#000000;stroke-width:0.8;" x="568.411743" xlink:href="#mb1f6b8121b" y="170.156522"/>
      </g>
     </g>
    </g>
    <g id="xtick_6">
     <g id="line2d_6">
      <g>
       <use style="stroke:#000000;stroke-width:0.8;" x="680.855774" xlink:href="#mb1f6b8121b" y="170.156522"/>
      </g>
     </g>
    </g>
    <g id="xtick_7">
     <g id="line2d_7">
      <g>
       <use style="stroke:#000000;stroke-width:0.8;" x="793.299774" xlink:href="#mb1f6b8121b" y="170.156522"/>
      </g>
     </g>
    </g>
   </g>
   <g id="matplotlib.axis_2">
    <g id="ytick_1">
     <g id="line2d_8">
      <defs>
       <path d="M 0 0 
L -3.5 0 
" id="m42230142f1" style="stroke:#000000;stroke-width:0.8;"/>
      </defs>
      <g>
       <use style="stroke:#000000;stroke-width:0.8;" x="86.4" xlink:href="#m42230142f1" y="155.507002"/>
      </g>
     </g>
     <g id="text_1">
      <!-- −5.0 -->
      <g transform="translate(50.260625 160.066064)scale(0.12 -0.12)">
       <defs>
        <path d="M 678 2272 
L 4684 2272 
L 4684 1741 
L 678 1741 
L 678 2272 
z
" id="DejaVuSans-2212" transform="scale(0.015625)"/>
        <path d="M 691 4666 
L 3169 4666 
L 3169 4134 
L 1269 4134 
L 1269 2991 
Q 1406 3038 1543 3061 
Q 1681 3084 1819 3084 
Q 2600 3084 3056 2656 
Q 3513 2228 3513 1497 
Q 3513 744 3044 326 
Q 2575 -91 1722 -91 
Q 1428 -91 1123 -41 
Q 819 9 494 109 
L 494 744 
Q 775 591 1075 516 
Q 1375 441 1709 441 
Q 2250 441 2565 725 
Q 2881 1009 2881 1497 
Q 2881 1984 2565 2268 
Q 2250 2553 1709 2553 
Q 1456 2553 1204 2497 
Q 953 2441 691 2322 
L 691 4666 
z
" id="DejaVuSans-35" transform="scale(0.015625)"/>
        <path d="M 684 794 
L 1344 794 
L 1344 0 
L 684 0 
L 684 794 
z
" id="DejaVuSans-2e" transform="scale(0.015625)"/>
        <path d="M 2034 4250 
Q 1547 4250 1301 3770 
Q 1056 3291 1056 2328 
Q 1056 1369 1301 889 
Q 1547 409 2034 409 
Q 2525 409 2770 889 
Q 3016 1369 3016 2328 
Q 3016 3291 2770 3770 
Q 2525 4250 2034 4250 
z
M 2034 4750 
Q 2819 4750 3233 4129 
Q 3647 3509 3647 2328 
Q 3647 1150 3233 529 
Q 2819 -91 2034 -91 
Q 1250 -91 836 529 
Q 422 1150 422 2328 
Q 422 3509 836 4129 
Q 1250 4750 2034 4750 
z
" id="DejaVuSans-30" transform="scale(0.015625)"/>
       </defs>
       <use xlink:href="#DejaVuSans-2212"/>
       <use x="83.789062" xlink:href="#DejaVuSans-35"/>
       <use x="147.412109" xlink:href="#DejaVuSans-2e"/>
       <use x="179.199219" xlink:href="#DejaVuSans-30"/>
      </g>
     </g>
    </g>
    <g id="ytick_2">
     <g id="line2d_9">
      <g>
       <use style="stroke:#000000;stroke-width:0.8;" x="86.4" xlink:href="#m42230142f1" y="128.71969"/>
      </g>
     </g>
     <g id="text_2">
      <!-- −2.5 -->
      <g transform="translate(50.260625 133.278753)scale(0.12 -0.12)">
       <defs>
        <path d="M 1228 531 
L 3431 531 
L 3431 0 
L 469 0 
L 469 531 
Q 828 903 1448 1529 
Q 2069 2156 2228 2338 
Q 2531 2678 2651 2914 
Q 2772 3150 2772 3378 
Q 2772 3750 2511 3984 
Q 2250 4219 1831 4219 
Q 1534 4219 1204 4116 
Q 875 4013 500 3803 
L 500 4441 
Q 881 4594 1212 4672 
Q 1544 4750 1819 4750 
Q 2544 4750 2975 4387 
Q 3406 4025 3406 3419 
Q 3406 3131 3298 2873 
Q 3191 2616 2906 2266 
Q 2828 2175 2409 1742 
Q 1991 1309 1228 531 
z
" id="DejaVuSans-32" transform="scale(0.015625)"/>
       </defs>
       <use xlink:href="#DejaVuSans-2212"/>
       <use x="83.789062" xlink:href="#DejaVuSans-32"/>
       <use x="147.412109" xlink:href="#DejaVuSans-2e"/>
       <use x="179.199219" xlink:href="#DejaVuSans-35"/>
      </g>
     </g>
    </g>
    <g id="ytick_3">
     <g id="line2d_10">
      <g>
       <use style="stroke:#000000;stroke-width:0.8;" x="86.4" xlink:href="#m42230142f1" y="101.932379"/>
      </g>
     </g>
     <g id="text_3">
      <!-- 0.0 -->
      <g transform="translate(60.31625 106.491441)scale(0.12 -0.12)">
       <use xlink:href="#DejaVuSans-30"/>
       <use x="63.623047" xlink:href="#DejaVuSans-2e"/>
       <use x="95.410156" xlink:href="#DejaVuSans-30"/>
      </g>
     </g>
    </g>
    <g id="ytick_4">
     <g id="line2d_11">
      <g>
       <use style="stroke:#000000;stroke-width:0.8;" x="86.4" xlink:href="#m42230142f1" y="75.145067"/>
      </g>
     </g>
     <g id="text_4">
      <!-- 2.5 -->
      <g transform="translate(60.31625 79.70413)scale(0.12 -0.12)">
       <use xlink:href="#DejaVuSans-32"/>
       <use x="63.623047" xlink:href="#DejaVuSans-2e"/>
       <use x="95.410156" xlink:href="#DejaVuSans-35"/>
      </g>
     </g>
    </g>
    <g id="ytick_5">
     <g id="line2d_12">
      <g>
       <use style="stroke:#000000;stroke-width:0.8;" x="86.4" xlink:href="#m42230142f1" y="48.357756"/>
      </g>
     </g>
     <g id="text_5">
      <!-- 5.0 -->
      <g transform="translate(60.31625 52.916818)scale(0.12 -0.12)">
       <use xlink:href="#DejaVuSans-35"/>
       <use x="63.623047" xlink:href="#DejaVuSans-2e"/>
       <use x="95.410156" xlink:href="#DejaVuSans-30"/>
      </g>
     </g>
    </g>
    <g id="text_6">
     <!-- THC FGL -->
     <g transform="translate(30.327625 132.394823)rotate(-90)scale(0.12 -0.12)">
      <defs>
       <path d="M -19 4666 
L 3928 4666 
L 3928 4134 
L 2272 4134 
L 2272 0 
L 1638 0 
L 1638 4134 
L -19 4134 
L -19 4666 
z
" id="DejaVuSans-54" transform="scale(0.015625)"/>
       <path d="M 628 4666 
L 1259 4666 
L 1259 2753 
L 3553 2753 
L 3553 4666 
L 4184 4666 
L 4184 0 
L 3553 0 
L 3553 2222 
L 1259 2222 
L 1259 0 
L 628 0 
L 628 4666 
z
" id="DejaVuSans-48" transform="scale(0.015625)"/>
       <path d="M 4122 4306 
L 4122 3641 
Q 3803 3938 3442 4084 
Q 3081 4231 2675 4231 
Q 1875 4231 1450 3742 
Q 1025 3253 1025 2328 
Q 1025 1406 1450 917 
Q 1875 428 2675 428 
Q 3081 428 3442 575 
Q 3803 722 4122 1019 
L 4122 359 
Q 3791 134 3420 21 
Q 3050 -91 2638 -91 
Q 1578 -91 968 557 
Q 359 1206 359 2328 
Q 359 3453 968 4101 
Q 1578 4750 2638 4750 
Q 3056 4750 3426 4639 
Q 3797 4528 4122 4306 
z
" id="DejaVuSans-43" transform="scale(0.015625)"/>
       <path id="DejaVuSans-20" transform="scale(0.015625)"/>
       <path d="M 628 4666 
L 3309 4666 
L 3309 4134 
L 1259 4134 
L 1259 2759 
L 3109 2759 
L 3109 2228 
L 1259 2228 
L 1259 0 
L 628 0 
L 628 4666 
z
" id="DejaVuSans-46" transform="scale(0.015625)"/>
       <path d="M 3809 666 
L 3809 1919 
L 2778 1919 
L 2778 2438 
L 4434 2438 
L 4434 434 
Q 4069 175 3628 42 
Q 3188 -91 2688 -91 
Q 1594 -91 976 548 
Q 359 1188 359 2328 
Q 359 3472 976 4111 
Q 1594 4750 2688 4750 
Q 3144 4750 3555 4637 
Q 3966 4525 4313 4306 
L 4313 3634 
Q 3963 3931 3569 4081 
Q 3175 4231 2741 4231 
Q 1884 4231 1454 3753 
Q 1025 3275 1025 2328 
Q 1025 1384 1454 906 
Q 1884 428 2741 428 
Q 3075 428 3337 486 
Q 3600 544 3809 666 
z
" id="DejaVuSans-47" transform="scale(0.015625)"/>
       <path d="M 628 4666 
L 1259 4666 
L 1259 531 
L 3531 531 
L 3531 0 
L 628 0 
L 628 4666 
z
" id="DejaVuSans-4c" transform="scale(0.015625)"/>
      </defs>
      <use xlink:href="#DejaVuSans-54"/>
      <use x="61.083984" xlink:href="#DejaVuSans-48"/>
      <use x="136.279297" xlink:href="#DejaVuSans-43"/>
      <use x="206.103516" xlink:href="#DejaVuSans-20"/>
      <use x="237.890625" xlink:href="#DejaVuSans-46"/>
      <use x="295.410156" xlink:href="#DejaVuSans-47"/>
      <use x="372.900391" xlink:href="#DejaVuSans-4c"/>
     </g>
     <!-- [nT GSM] -->
     <g transform="translate(43.765 134.369198)rotate(-90)scale(0.12 -0.12)">
      <defs>
       <path d="M 550 4863 
L 1875 4863 
L 1875 4416 
L 1125 4416 
L 1125 -397 
L 1875 -397 
L 1875 -844 
L 550 -844 
L 550 4863 
z
" id="DejaVuSans-5b" transform="scale(0.015625)"/>
       <path d="M 3513 2113 
L 3513 0 
L 2938 0 
L 2938 2094 
Q 2938 2591 2744 2837 
Q 2550 3084 2163 3084 
Q 1697 3084 1428 2787 
Q 1159 2491 1159 1978 
L 1159 0 
L 581 0 
L 581 3500 
L 1159 3500 
L 1159 2956 
Q 1366 3272 1645 3428 
Q 1925 3584 2291 3584 
Q 2894 3584 3203 3211 
Q 3513 2838 3513 2113 
z
" id="DejaVuSans-6e" transform="scale(0.015625)"/>
       <path d="M 3425 4513 
L 3425 3897 
Q 3066 4069 2747 4153 
Q 2428 4238 2131 4238 
Q 1616 4238 1336 4038 
Q 1056 3838 1056 3469 
Q 1056 3159 1242 3001 
Q 1428 2844 1947 2747 
L 2328 2669 
Q 3034 2534 3370 2195 
Q 3706 1856 3706 1288 
Q 3706 609 3251 259 
Q 2797 -91 1919 -91 
Q 1588 -91 1214 -16 
Q 841 59 441 206 
L 441 856 
Q 825 641 1194 531 
Q 1563 422 1919 422 
Q 2459 422 2753 634 
Q 3047 847 3047 1241 
Q 3047 1584 2836 1778 
Q 2625 1972 2144 2069 
L 1759 2144 
Q 1053 2284 737 2584 
Q 422 2884 422 3419 
Q 422 4038 858 4394 
Q 1294 4750 2059 4750 
Q 2388 4750 2728 4690 
Q 3069 4631 3425 4513 
z
" id="DejaVuSans-53" transform="scale(0.015625)"/>
       <path d="M 628 4666 
L 1569 4666 
L 2759 1491 
L 3956 4666 
L 4897 4666 
L 4897 0 
L 4281 0 
L 4281 4097 
L 3078 897 
L 2444 897 
L 1241 4097 
L 1241 0 
L 628 0 
L 628 4666 
z
" id="DejaVuSans-4d" transform="scale(0.015625)"/>
       <path d="M 1947 4863 
L 1947 -844 
L 622 -844 
L 622 -397 
L 1369 -397 
L 1369 4416 
L 622 4416 
L 622 4863 
L 1947 4863 
z
" id="DejaVuSans-5d" transform="scale(0.015625)"/>
      </defs>
      <use xlink:href="#DejaVuSans-5b"/>
      <use x="39.013672" xlink:href="#DejaVuSans-6e"/>
      <use x="102.392578" xlink:href="#DejaVuSans-54"/>
      <use x="163.476562" xlink:href="#DejaVuSans-20"/>
      <use x="195.263672" xlink:href="#DejaVuSans-47"/>
      <use x="272.753906" xlink:href="#DejaVuSans-53"/>
      <use x="336.230469" xlink:href="#DejaVuSans-4d"/>
      <use x="422.509766" xlink:href="#DejaVuSans-5d"/>
     </g>
    </g>
   </g>
   <g id="line2d_13">
    <path clip-path="url(#pa26d6e8107)" d="M 119.78183 109.860333 
L 126.80957 110.225976 
L 133.837341 111.208792 
L 140.865112 110.511588 
L 147.892853 111.345545 
L 154.920593 111.213929 
L 161.948334 109.612817 
L 168.976105 110.653319 
L 176.003845 110.837918 
L 183.031586 109.924197 
L 190.059326 109.23325 
L 197.087097 108.646171 
L 204.114838 107.238537 
L 211.142578 106.705159 
L 218.170319 106.369727 
L 225.19812 104.642649 
L 232.225861 102.788349 
L 239.253601 100.3618 
L 246.281372 100.205243 
L 253.309113 99.048987 
L 260.336853 98.628269 
L 267.364594 99.726994 
L 274.392365 99.811928 
L 281.420105 99.017671 
L 288.447845 98.117507 
L 295.475586 97.876744 
L 302.503357 97.692795 
L 309.531097 96.46409 
L 316.558868 94.674667 
L 323.586639 92.307617 
L 330.61438 89.979322 
L 337.64212 89.079066 
L 344.669861 87.603141 
L 351.697632 85.63191 
L 358.725372 85.01011 
L 365.753113 82.037045 
L 372.780853 79.918854 
L 379.808624 77.604782 
L 386.836365 77.076725 
L 393.864105 75.419019 
L 400.891846 73.699983 
L 407.919647 71.451345 
L 414.947388 68.681577 
L 421.975128 66.161739 
L 429.002899 64.079112 
L 436.03064 62.942685 
L 443.05838 61.715841 
L 450.086121 61.526997 
L 457.113892 60.746946 
L 464.141632 59.413576 
L 471.169373 58.066112 
L 478.197113 57.002775 
L 485.224884 56.36243 
L 492.252655 54.961942 
L 499.280396 54.854402 
L 506.308167 53.660646 
L 513.335907 53.129 
L 520.363647 52.145909 
L 527.391388 51.66413 
L 534.419159 51.841565 
L 541.446899 50.371055 
L 548.47464 50.452497 
L 555.50238 51.724011 
L 562.530151 51.306486 
L 569.557892 50.722793 
L 576.585632 51.197904 
L 583.613434 51.176879 
L 590.641174 51.723444 
L 597.668915 50.53915 
L 604.696655 50.680483 
L 611.724426 51.149085 
L 618.752167 51.510357 
L 625.779907 51.927008 
L 632.807648 51.810179 
L 639.835419 52.532952 
L 646.863159 52.817983 
L 653.8909 52.891215 
L 660.91864 52.605826 
L 667.946411 53.304892 
L 674.974182 53.434049 
L 682.001923 53.645303 
L 689.029694 52.996752 
L 696.057434 52.857115 
L 703.085175 52.905429 
L 710.112915 52.871738 
L 717.140686 52.865183 
L 724.168427 52.253465 
L 731.196167 51.510602 
L 738.223907 51.380106 
L 745.251678 50.772281 
L 752.279419 50.963669 
L 759.307159 50.88048 
L 766.334961 50.360744 
L 773.362701 50.099706 
L 780.390442 48.970751 
L 787.418182 49.628596 
" style="fill:none;stroke:#0000ff;stroke-linecap:square;stroke-width:0.5;"/>
   </g>
   <g id="line2d_14">
    <path clip-path="url(#pa26d6e8107)" d="M 119.78183 164.385771 
L 126.80957 164.016569 
L 133.837341 162.484952 
L 140.865112 160.86076 
L 147.892853 161.22171 
L 154.920593 161.498259 
L 161.948334 161.822979 
L 168.976105 163.209871 
L 176.003845 164.221824 
L 183.031586 163.290955 
L 190.059326 163.060216 
L 197.087097 162.018951 
L 204.114838 162.564585 
L 211.142578 161.134791 
L 218.170319 160.866835 
L 225.19812 160.787789 
L 232.225861 160.618851 
L 239.253601 161.842538 
L 246.281372 160.740528 
L 253.309113 162.845422 
L 260.336853 163.000882 
L 267.364594 162.942299 
L 274.392365 163.235929 
L 281.420105 161.897273 
L 288.447845 161.546343 
L 295.475586 161.771984 
L 302.503357 161.386182 
L 309.531097 160.892458 
L 316.558868 160.613568 
L 323.586639 161.078977 
L 330.61438 160.873124 
L 337.64212 160.966312 
L 344.669861 160.687903 
L 351.697632 159.638468 
L 358.725372 158.795443 
L 365.753113 158.465599 
L 372.780853 157.489318 
L 379.808624 156.923635 
L 386.836365 156.255178 
L 393.864105 154.494471 
L 400.891846 152.264355 
L 407.919647 151.121129 
L 414.947388 150.299609 
L 421.975128 147.837506 
L 429.002899 146.486445 
L 436.03064 144.832507 
L 443.05838 143.732289 
L 450.086121 143.50873 
L 457.113892 140.617381 
L 464.141632 139.676018 
L 471.169373 136.893732 
L 478.197113 135.077909 
L 485.224884 133.011051 
L 492.252655 130.928131 
L 499.280396 130.354298 
L 506.308167 129.001446 
L 513.335907 127.271239 
L 520.363647 126.79589 
L 527.391388 126.663647 
L 534.419159 126.305816 
L 541.446899 124.375507 
L 548.47464 124.589522 
L 555.50238 123.919507 
L 562.530151 123.010041 
L 569.557892 122.120223 
L 576.585632 120.804731 
L 583.613434 121.340986 
L 590.641174 121.178888 
L 597.668915 120.24111 
L 604.696655 120.745944 
L 611.724426 120.212334 
L 618.752167 119.798943 
L 625.779907 118.989942 
L 632.807648 118.87719 
L 639.835419 117.589535 
L 646.863159 117.058868 
L 653.8909 117.251701 
L 660.91864 116.375938 
L 667.946411 116.851739 
L 674.974182 117.626102 
L 682.001923 117.946534 
L 689.029694 117.526808 
L 696.057434 118.450716 
L 703.085175 117.159814 
L 710.112915 117.110534 
L 717.140686 116.876764 
L 724.168427 117.17643 
L 731.196167 116.234885 
L 738.223907 116.946091 
L 745.251678 116.763289 
L 752.279419 116.834508 
L 759.307159 116.172898 
L 766.334961 118.228728 
L 773.362701 118.261952 
L 780.390442 117.338082 
L 787.418182 118.401225 
" style="fill:none;stroke:#008000;stroke-linecap:square;stroke-width:0.5;"/>
   </g>
   <g id="line2d_15">
    <path clip-path="url(#pa26d6e8107)" d="M 119.78183 126.05864 
L 126.80957 127.645381 
L 133.837341 127.15203 
L 140.865112 127.36726 
L 147.892853 127.18444 
L 154.920593 126.331245 
L 161.948334 125.309832 
L 168.976105 126.515281 
L 176.003845 127.373062 
L 183.031586 126.216394 
L 190.059326 126.803196 
L 197.087097 126.960084 
L 204.114838 127.193979 
L 211.142578 127.509017 
L 218.170319 127.669435 
L 225.19812 127.124238 
L 232.225861 125.519532 
L 239.253601 124.768944 
L 246.281372 123.103258 
L 253.309113 123.453094 
L 260.336853 121.972347 
L 267.364594 122.560269 
L 274.392365 124.368614 
L 281.420105 123.629875 
L 288.447845 121.806557 
L 295.475586 122.521786 
L 302.503357 122.341588 
L 309.531097 121.013673 
L 316.558868 119.730844 
L 323.586639 117.853803 
L 330.61438 116.785352 
L 337.64212 114.457301 
L 344.669861 112.725416 
L 351.697632 112.013386 
L 358.725372 110.176841 
L 365.753113 107.906056 
L 372.780853 105.615045 
L 379.808624 103.561222 
L 386.836365 102.801804 
L 393.864105 99.945073 
L 400.891846 98.015181 
L 407.919647 96.317297 
L 414.947388 93.751706 
L 421.975128 91.529055 
L 429.002899 88.990675 
L 436.03064 87.721009 
L 443.05838 85.954326 
L 450.086121 83.737208 
L 457.113892 82.966022 
L 464.141632 81.244158 
L 471.169373 79.250303 
L 478.197113 77.934654 
L 485.224884 75.317881 
L 492.252655 74.784079 
L 499.280396 73.25821 
L 506.308167 72.084178 
L 513.335907 71.349306 
L 520.363647 71.047575 
L 527.391388 70.32823 
L 534.419159 69.746115 
L 541.446899 68.687782 
L 548.47464 68.692521 
L 555.50238 67.862555 
L 562.530151 68.089525 
L 569.557892 67.461971 
L 576.585632 67.694703 
L 583.613434 67.110501 
L 590.641174 66.052858 
L 597.668915 65.743975 
L 604.696655 65.450656 
L 611.724426 65.07657 
L 618.752167 63.368389 
L 625.779907 62.478047 
L 632.807648 62.682638 
L 639.835419 62.15218 
L 646.863159 61.871298 
L 653.8909 61.135312 
L 660.91864 61.260701 
L 667.946411 60.795607 
L 674.974182 61.934397 
L 682.001923 60.412932 
L 689.029694 61.138263 
L 696.057434 60.706182 
L 703.085175 61.074456 
L 710.112915 60.83517 
L 717.140686 61.853507 
L 724.168427 60.801868 
L 731.196167 60.436621 
L 738.223907 60.494683 
L 745.251678 60.830646 
L 752.279419 60.725193 
L 759.307159 61.008827 
L 766.334961 61.220696 
L 773.362701 62.167735 
L 780.390442 62.444942 
L 787.418182 63.011341 
" style="fill:none;stroke:#ff0000;stroke-linecap:square;stroke-width:0.5;"/>
   </g>
   <g id="patch_3">
    <path d="M 86.4 170.156522 
L 86.4 43.2 
" style="fill:none;stroke:#000000;stroke-linecap:square;stroke-linejoin:miter;stroke-width:0.8;"/>
   </g>
   <g id="patch_4">
    <path d="M 820.8 170.156522 
L 820.8 43.2 
" style="fill:none;stroke:#000000;stroke-linecap:square;stroke-linejoin:miter;stroke-width:0.8;"/>
   </g>
   <g id="patch_5">
    <path d="M 86.399994 170.156522 
L 820.800018 170.156522 
" style="fill:none;stroke:#000000;stroke-linecap:square;stroke-linejoin:miter;stroke-width:0.8;"/>
   </g>
   <g id="patch_6">
    <path d="M 86.399994 43.2 
L 820.800018 43.2 
" style="fill:none;stroke:#000000;stroke-linecap:square;stroke-linejoin:miter;stroke-width:0.8;"/>
   </g>
   <g id="legend_1">
    <g id="patch_7">
     <path d="M 743.117187 95.234375 
L 813.8 95.234375 
Q 815.8 95.234375 815.8 93.234375 
L 815.8 50.2 
Q 815.8 48.2 813.8 48.2 
L 743.117187 48.2 
Q 741.117187 48.2 741.117187 50.2 
L 741.117187 93.234375 
Q 741.117187 95.234375 743.117187 95.234375 
z
" style="fill:#ffffff;opacity:0.8;stroke:#cccccc;stroke-linejoin:miter;"/>
    </g>
    <g id="text_7">
     <!-- Bx GSM -->
     <g transform="translate(745.117187 59.798437)scale(0.1 -0.1)">
      <defs>
       <path d="M 1259 2228 
L 1259 519 
L 2272 519 
Q 2781 519 3026 730 
Q 3272 941 3272 1375 
Q 3272 1813 3026 2020 
Q 2781 2228 2272 2228 
L 1259 2228 
z
M 1259 4147 
L 1259 2741 
L 2194 2741 
Q 2656 2741 2882 2914 
Q 3109 3088 3109 3444 
Q 3109 3797 2882 3972 
Q 2656 4147 2194 4147 
L 1259 4147 
z
M 628 4666 
L 2241 4666 
Q 2963 4666 3353 4366 
Q 3744 4066 3744 3513 
Q 3744 3084 3544 2831 
Q 3344 2578 2956 2516 
Q 3422 2416 3680 2098 
Q 3938 1781 3938 1306 
Q 3938 681 3513 340 
Q 3088 0 2303 0 
L 628 0 
L 628 4666 
z
" id="DejaVuSans-42" transform="scale(0.015625)"/>
       <path d="M 3513 3500 
L 2247 1797 
L 3578 0 
L 2900 0 
L 1881 1375 
L 863 0 
L 184 0 
L 1544 1831 
L 300 3500 
L 978 3500 
L 1906 2253 
L 2834 3500 
L 3513 3500 
z
" id="DejaVuSans-78" transform="scale(0.015625)"/>
      </defs>
      <use xlink:href="#DejaVuSans-42"/>
      <use x="68.603516" xlink:href="#DejaVuSans-78"/>
      <use x="127.783203" xlink:href="#DejaVuSans-20"/>
      <use x="159.570312" xlink:href="#DejaVuSans-47"/>
      <use x="237.060547" xlink:href="#DejaVuSans-53"/>
      <use x="300.537109" xlink:href="#DejaVuSans-4d"/>
     </g>
    </g>
    <g id="line2d_16">
     <path d="M 791.8 56.298437 
L 811.8 56.298437 
" style="fill:none;stroke:#0000ff;stroke-linecap:square;stroke-width:4;"/>
    </g>
    <g id="line2d_17"/>
    <g id="text_8">
     <!-- By GSM -->
     <g transform="translate(745.117187 74.476562)scale(0.1 -0.1)">
      <defs>
       <path d="M 2059 -325 
Q 1816 -950 1584 -1140 
Q 1353 -1331 966 -1331 
L 506 -1331 
L 506 -850 
L 844 -850 
Q 1081 -850 1212 -737 
Q 1344 -625 1503 -206 
L 1606 56 
L 191 3500 
L 800 3500 
L 1894 763 
L 2988 3500 
L 3597 3500 
L 2059 -325 
z
" id="DejaVuSans-79" transform="scale(0.015625)"/>
      </defs>
      <use xlink:href="#DejaVuSans-42"/>
      <use x="68.603516" xlink:href="#DejaVuSans-79"/>
      <use x="127.783203" xlink:href="#DejaVuSans-20"/>
      <use x="159.570312" xlink:href="#DejaVuSans-47"/>
      <use x="237.060547" xlink:href="#DejaVuSans-53"/>
      <use x="300.537109" xlink:href="#DejaVuSans-4d"/>
     </g>
    </g>
    <g id="line2d_18">
     <path d="M 791.8 70.976562 
L 811.8 70.976562 
" style="fill:none;stroke:#008000;stroke-linecap:square;stroke-width:4;"/>
    </g>
    <g id="line2d_19"/>
    <g id="text_9">
     <!-- Bz GSM -->
     <g transform="translate(745.7875 89.154687)scale(0.1 -0.1)">
      <defs>
       <path d="M 353 3500 
L 3084 3500 
L 3084 2975 
L 922 459 
L 3084 459 
L 3084 0 
L 275 0 
L 275 525 
L 2438 3041 
L 353 3041 
L 353 3500 
z
" id="DejaVuSans-7a" transform="scale(0.015625)"/>
      </defs>
      <use xlink:href="#DejaVuSans-42"/>
      <use x="68.603516" xlink:href="#DejaVuSans-7a"/>
      <use x="121.09375" xlink:href="#DejaVuSans-20"/>
      <use x="152.880859" xlink:href="#DejaVuSans-47"/>
      <use x="230.371094" xlink:href="#DejaVuSans-53"/>
      <use x="293.847656" xlink:href="#DejaVuSans-4d"/>
     </g>
    </g>
    <g id="line2d_20">
     <path d="M 791.8 85.654687 
L 811.8 85.654687 
" style="fill:none;stroke:#ff0000;stroke-linecap:square;stroke-width:4;"/>
    </g>
    <g id="line2d_21"/>
   </g>
  </g>
  <g id="axes_2">
   <g id="patch_8">
    <path d="M 86.4 306 
L 820.8 306 
L 820.8 179.043478 
L 86.4 179.043478 
z
" style="fill:#ffffff;"/>
   </g>
   <g id="axes_3">
    <g id="patch_9">
     <path d="M 86.4 331.391304 
L 820.8 331.391304 
L 820.8 331.391304 
L 86.4 331.391304 
z
" style="fill:#ffffff;"/>
    </g>
    <g id="matplotlib.axis_3">
     <g id="xtick_8">
      <g id="line2d_22">
       <g>
        <use style="stroke:#000000;stroke-width:0.8;" x="118.635651" xlink:href="#mb1f6b8121b" y="331.391304"/>
       </g>
      </g>
      <g id="text_10">
       <!-- -958.46 -->
       <g transform="translate(99.336432 345.989742)scale(0.1 -0.1)">
        <defs>
         <path d="M 313 2009 
L 1997 2009 
L 1997 1497 
L 313 1497 
L 313 2009 
z
" id="DejaVuSans-2d" transform="scale(0.015625)"/>
         <path d="M 703 97 
L 703 672 
Q 941 559 1184 500 
Q 1428 441 1663 441 
Q 2288 441 2617 861 
Q 2947 1281 2994 2138 
Q 2813 1869 2534 1725 
Q 2256 1581 1919 1581 
Q 1219 1581 811 2004 
Q 403 2428 403 3163 
Q 403 3881 828 4315 
Q 1253 4750 1959 4750 
Q 2769 4750 3195 4129 
Q 3622 3509 3622 2328 
Q 3622 1225 3098 567 
Q 2575 -91 1691 -91 
Q 1453 -91 1209 -44 
Q 966 3 703 97 
z
M 1959 2075 
Q 2384 2075 2632 2365 
Q 2881 2656 2881 3163 
Q 2881 3666 2632 3958 
Q 2384 4250 1959 4250 
Q 1534 4250 1286 3958 
Q 1038 3666 1038 3163 
Q 1038 2656 1286 2365 
Q 1534 2075 1959 2075 
z
" id="DejaVuSans-39" transform="scale(0.015625)"/>
         <path d="M 2034 2216 
Q 1584 2216 1326 1975 
Q 1069 1734 1069 1313 
Q 1069 891 1326 650 
Q 1584 409 2034 409 
Q 2484 409 2743 651 
Q 3003 894 3003 1313 
Q 3003 1734 2745 1975 
Q 2488 2216 2034 2216 
z
M 1403 2484 
Q 997 2584 770 2862 
Q 544 3141 544 3541 
Q 544 4100 942 4425 
Q 1341 4750 2034 4750 
Q 2731 4750 3128 4425 
Q 3525 4100 3525 3541 
Q 3525 3141 3298 2862 
Q 3072 2584 2669 2484 
Q 3125 2378 3379 2068 
Q 3634 1759 3634 1313 
Q 3634 634 3220 271 
Q 2806 -91 2034 -91 
Q 1263 -91 848 271 
Q 434 634 434 1313 
Q 434 1759 690 2068 
Q 947 2378 1403 2484 
z
M 1172 3481 
Q 1172 3119 1398 2916 
Q 1625 2713 2034 2713 
Q 2441 2713 2670 2916 
Q 2900 3119 2900 3481 
Q 2900 3844 2670 4047 
Q 2441 4250 2034 4250 
Q 1625 4250 1398 4047 
Q 1172 3844 1172 3481 
z
" id="DejaVuSans-38" transform="scale(0.015625)"/>
         <path d="M 2419 4116 
L 825 1625 
L 2419 1625 
L 2419 4116 
z
M 2253 4666 
L 3047 4666 
L 3047 1625 
L 3713 1625 
L 3713 1100 
L 3047 1100 
L 3047 0 
L 2419 0 
L 2419 1100 
L 313 1100 
L 313 1709 
L 2253 4666 
z
" id="DejaVuSans-34" transform="scale(0.015625)"/>
         <path d="M 2113 2584 
Q 1688 2584 1439 2293 
Q 1191 2003 1191 1497 
Q 1191 994 1439 701 
Q 1688 409 2113 409 
Q 2538 409 2786 701 
Q 3034 994 3034 1497 
Q 3034 2003 2786 2293 
Q 2538 2584 2113 2584 
z
M 3366 4563 
L 3366 3988 
Q 3128 4100 2886 4159 
Q 2644 4219 2406 4219 
Q 1781 4219 1451 3797 
Q 1122 3375 1075 2522 
Q 1259 2794 1537 2939 
Q 1816 3084 2150 3084 
Q 2853 3084 3261 2657 
Q 3669 2231 3669 1497 
Q 3669 778 3244 343 
Q 2819 -91 2113 -91 
Q 1303 -91 875 529 
Q 447 1150 447 2328 
Q 447 3434 972 4092 
Q 1497 4750 2381 4750 
Q 2619 4750 2861 4703 
Q 3103 4656 3366 4563 
z
" id="DejaVuSans-36" transform="scale(0.015625)"/>
        </defs>
        <use xlink:href="#DejaVuSans-2d"/>
        <use x="36.083984" xlink:href="#DejaVuSans-39"/>
        <use x="99.707031" xlink:href="#DejaVuSans-35"/>
        <use x="163.330078" xlink:href="#DejaVuSans-38"/>
        <use x="226.953125" xlink:href="#DejaVuSans-2e"/>
        <use x="258.740234" xlink:href="#DejaVuSans-34"/>
        <use x="322.363281" xlink:href="#DejaVuSans-36"/>
       </g>
      </g>
     </g>
     <g id="xtick_9">
      <g id="line2d_23">
       <g>
        <use style="stroke:#000000;stroke-width:0.8;" x="231.079712" xlink:href="#mb1f6b8121b" y="331.391304"/>
       </g>
      </g>
      <g id="text_11">
       <!-- -594.75 -->
       <g transform="translate(211.780493 345.989742)scale(0.1 -0.1)">
        <defs>
         <path d="M 525 4666 
L 3525 4666 
L 3525 4397 
L 1831 0 
L 1172 0 
L 2766 4134 
L 525 4134 
L 525 4666 
z
" id="DejaVuSans-37" transform="scale(0.015625)"/>
        </defs>
        <use xlink:href="#DejaVuSans-2d"/>
        <use x="36.083984" xlink:href="#DejaVuSans-35"/>
        <use x="99.707031" xlink:href="#DejaVuSans-39"/>
        <use x="163.330078" xlink:href="#DejaVuSans-34"/>
        <use x="226.953125" xlink:href="#DejaVuSans-2e"/>
        <use x="258.740234" xlink:href="#DejaVuSans-37"/>
        <use x="322.363281" xlink:href="#DejaVuSans-35"/>
       </g>
      </g>
     </g>
     <g id="xtick_10">
      <g id="line2d_24">
       <g>
        <use style="stroke:#000000;stroke-width:0.8;" x="343.523712" xlink:href="#mb1f6b8121b" y="331.391304"/>
       </g>
      </g>
      <g id="text_12">
       <!-- -231.03 -->
       <g transform="translate(324.224493 345.989742)scale(0.1 -0.1)">
        <defs>
         <path d="M 2597 2516 
Q 3050 2419 3304 2112 
Q 3559 1806 3559 1356 
Q 3559 666 3084 287 
Q 2609 -91 1734 -91 
Q 1441 -91 1130 -33 
Q 819 25 488 141 
L 488 750 
Q 750 597 1062 519 
Q 1375 441 1716 441 
Q 2309 441 2620 675 
Q 2931 909 2931 1356 
Q 2931 1769 2642 2001 
Q 2353 2234 1838 2234 
L 1294 2234 
L 1294 2753 
L 1863 2753 
Q 2328 2753 2575 2939 
Q 2822 3125 2822 3475 
Q 2822 3834 2567 4026 
Q 2313 4219 1838 4219 
Q 1578 4219 1281 4162 
Q 984 4106 628 3988 
L 628 4550 
Q 988 4650 1302 4700 
Q 1616 4750 1894 4750 
Q 2613 4750 3031 4423 
Q 3450 4097 3450 3541 
Q 3450 3153 3228 2886 
Q 3006 2619 2597 2516 
z
" id="DejaVuSans-33" transform="scale(0.015625)"/>
         <path d="M 794 531 
L 1825 531 
L 1825 4091 
L 703 3866 
L 703 4441 
L 1819 4666 
L 2450 4666 
L 2450 531 
L 3481 531 
L 3481 0 
L 794 0 
L 794 531 
z
" id="DejaVuSans-31" transform="scale(0.015625)"/>
        </defs>
        <use xlink:href="#DejaVuSans-2d"/>
        <use x="36.083984" xlink:href="#DejaVuSans-32"/>
        <use x="99.707031" xlink:href="#DejaVuSans-33"/>
        <use x="163.330078" xlink:href="#DejaVuSans-31"/>
        <use x="226.953125" xlink:href="#DejaVuSans-2e"/>
        <use x="258.740234" xlink:href="#DejaVuSans-30"/>
        <use x="322.363281" xlink:href="#DejaVuSans-33"/>
       </g>
      </g>
     </g>
     <g id="xtick_11">
      <g id="line2d_25">
       <g>
        <use style="stroke:#000000;stroke-width:0.8;" x="455.967712" xlink:href="#mb1f6b8121b" y="331.391304"/>
       </g>
      </g>
      <g id="text_13">
       <!-- 132.69 -->
       <g transform="translate(438.4724 345.989742)scale(0.1 -0.1)">
        <use xlink:href="#DejaVuSans-31"/>
        <use x="63.623047" xlink:href="#DejaVuSans-33"/>
        <use x="127.246094" xlink:href="#DejaVuSans-32"/>
        <use x="190.869141" xlink:href="#DejaVuSans-2e"/>
        <use x="222.65625" xlink:href="#DejaVuSans-36"/>
        <use x="286.279297" xlink:href="#DejaVuSans-39"/>
       </g>
      </g>
     </g>
     <g id="xtick_12">
      <g id="line2d_26">
       <g>
        <use style="stroke:#000000;stroke-width:0.8;" x="568.411743" xlink:href="#mb1f6b8121b" y="331.391304"/>
       </g>
      </g>
      <g id="text_14">
       <!-- 496.40 -->
       <g transform="translate(550.916431 345.989742)scale(0.1 -0.1)">
        <use xlink:href="#DejaVuSans-34"/>
        <use x="63.623047" xlink:href="#DejaVuSans-39"/>
        <use x="127.246094" xlink:href="#DejaVuSans-36"/>
        <use x="190.869141" xlink:href="#DejaVuSans-2e"/>
        <use x="222.65625" xlink:href="#DejaVuSans-34"/>
        <use x="286.279297" xlink:href="#DejaVuSans-30"/>
       </g>
      </g>
     </g>
     <g id="xtick_13">
      <g id="line2d_27">
       <g>
        <use style="stroke:#000000;stroke-width:0.8;" x="680.855774" xlink:href="#mb1f6b8121b" y="331.391304"/>
       </g>
      </g>
      <g id="text_15">
       <!-- 860.12 -->
       <g transform="translate(663.360461 345.989742)scale(0.1 -0.1)">
        <use xlink:href="#DejaVuSans-38"/>
        <use x="63.623047" xlink:href="#DejaVuSans-36"/>
        <use x="127.246094" xlink:href="#DejaVuSans-30"/>
        <use x="190.869141" xlink:href="#DejaVuSans-2e"/>
        <use x="222.65625" xlink:href="#DejaVuSans-31"/>
        <use x="286.279297" xlink:href="#DejaVuSans-32"/>
       </g>
      </g>
     </g>
     <g id="xtick_14">
      <g id="line2d_28">
       <g>
        <use style="stroke:#000000;stroke-width:0.8;" x="793.299774" xlink:href="#mb1f6b8121b" y="331.391304"/>
       </g>
      </g>
      <g id="text_16">
       <!-- 1223.83 -->
       <g transform="translate(772.623212 345.989742)scale(0.1 -0.1)">
        <use xlink:href="#DejaVuSans-31"/>
        <use x="63.623047" xlink:href="#DejaVuSans-32"/>
        <use x="127.246094" xlink:href="#DejaVuSans-32"/>
        <use x="190.869141" xlink:href="#DejaVuSans-33"/>
        <use x="254.492188" xlink:href="#DejaVuSans-2e"/>
        <use x="286.279297" xlink:href="#DejaVuSans-38"/>
        <use x="349.902344" xlink:href="#DejaVuSans-33"/>
       </g>
      </g>
     </g>
     <g id="text_17">
      <!-- distance -->
      <g transform="translate(432.413281 359.667867)scale(0.1 -0.1)">
       <defs>
        <path d="M 2906 2969 
L 2906 4863 
L 3481 4863 
L 3481 0 
L 2906 0 
L 2906 525 
Q 2725 213 2448 61 
Q 2172 -91 1784 -91 
Q 1150 -91 751 415 
Q 353 922 353 1747 
Q 353 2572 751 3078 
Q 1150 3584 1784 3584 
Q 2172 3584 2448 3432 
Q 2725 3281 2906 2969 
z
M 947 1747 
Q 947 1113 1208 752 
Q 1469 391 1925 391 
Q 2381 391 2643 752 
Q 2906 1113 2906 1747 
Q 2906 2381 2643 2742 
Q 2381 3103 1925 3103 
Q 1469 3103 1208 2742 
Q 947 2381 947 1747 
z
" id="DejaVuSans-64" transform="scale(0.015625)"/>
        <path d="M 603 3500 
L 1178 3500 
L 1178 0 
L 603 0 
L 603 3500 
z
M 603 4863 
L 1178 4863 
L 1178 4134 
L 603 4134 
L 603 4863 
z
" id="DejaVuSans-69" transform="scale(0.015625)"/>
        <path d="M 2834 3397 
L 2834 2853 
Q 2591 2978 2328 3040 
Q 2066 3103 1784 3103 
Q 1356 3103 1142 2972 
Q 928 2841 928 2578 
Q 928 2378 1081 2264 
Q 1234 2150 1697 2047 
L 1894 2003 
Q 2506 1872 2764 1633 
Q 3022 1394 3022 966 
Q 3022 478 2636 193 
Q 2250 -91 1575 -91 
Q 1294 -91 989 -36 
Q 684 19 347 128 
L 347 722 
Q 666 556 975 473 
Q 1284 391 1588 391 
Q 1994 391 2212 530 
Q 2431 669 2431 922 
Q 2431 1156 2273 1281 
Q 2116 1406 1581 1522 
L 1381 1569 
Q 847 1681 609 1914 
Q 372 2147 372 2553 
Q 372 3047 722 3315 
Q 1072 3584 1716 3584 
Q 2034 3584 2315 3537 
Q 2597 3491 2834 3397 
z
" id="DejaVuSans-73" transform="scale(0.015625)"/>
        <path d="M 1172 4494 
L 1172 3500 
L 2356 3500 
L 2356 3053 
L 1172 3053 
L 1172 1153 
Q 1172 725 1289 603 
Q 1406 481 1766 481 
L 2356 481 
L 2356 0 
L 1766 0 
Q 1100 0 847 248 
Q 594 497 594 1153 
L 594 3053 
L 172 3053 
L 172 3500 
L 594 3500 
L 594 4494 
L 1172 4494 
z
" id="DejaVuSans-74" transform="scale(0.015625)"/>
        <path d="M 2194 1759 
Q 1497 1759 1228 1600 
Q 959 1441 959 1056 
Q 959 750 1161 570 
Q 1363 391 1709 391 
Q 2188 391 2477 730 
Q 2766 1069 2766 1631 
L 2766 1759 
L 2194 1759 
z
M 3341 1997 
L 3341 0 
L 2766 0 
L 2766 531 
Q 2569 213 2275 61 
Q 1981 -91 1556 -91 
Q 1019 -91 701 211 
Q 384 513 384 1019 
Q 384 1609 779 1909 
Q 1175 2209 1959 2209 
L 2766 2209 
L 2766 2266 
Q 2766 2663 2505 2880 
Q 2244 3097 1772 3097 
Q 1472 3097 1187 3025 
Q 903 2953 641 2809 
L 641 3341 
Q 956 3463 1253 3523 
Q 1550 3584 1831 3584 
Q 2591 3584 2966 3190 
Q 3341 2797 3341 1997 
z
" id="DejaVuSans-61" transform="scale(0.015625)"/>
        <path d="M 3122 3366 
L 3122 2828 
Q 2878 2963 2633 3030 
Q 2388 3097 2138 3097 
Q 1578 3097 1268 2742 
Q 959 2388 959 1747 
Q 959 1106 1268 751 
Q 1578 397 2138 397 
Q 2388 397 2633 464 
Q 2878 531 3122 666 
L 3122 134 
Q 2881 22 2623 -34 
Q 2366 -91 2075 -91 
Q 1284 -91 818 406 
Q 353 903 353 1747 
Q 353 2603 823 3093 
Q 1294 3584 2113 3584 
Q 2378 3584 2631 3529 
Q 2884 3475 3122 3366 
z
" id="DejaVuSans-63" transform="scale(0.015625)"/>
        <path d="M 3597 1894 
L 3597 1613 
L 953 1613 
Q 991 1019 1311 708 
Q 1631 397 2203 397 
Q 2534 397 2845 478 
Q 3156 559 3463 722 
L 3463 178 
Q 3153 47 2828 -22 
Q 2503 -91 2169 -91 
Q 1331 -91 842 396 
Q 353 884 353 1716 
Q 353 2575 817 3079 
Q 1281 3584 2069 3584 
Q 2775 3584 3186 3129 
Q 3597 2675 3597 1894 
z
M 3022 2063 
Q 3016 2534 2758 2815 
Q 2500 3097 2075 3097 
Q 1594 3097 1305 2825 
Q 1016 2553 972 2059 
L 3022 2063 
z
" id="DejaVuSans-65" transform="scale(0.015625)"/>
       </defs>
       <use xlink:href="#DejaVuSans-64"/>
       <use x="63.476562" xlink:href="#DejaVuSans-69"/>
       <use x="91.259766" xlink:href="#DejaVuSans-73"/>
       <use x="143.359375" xlink:href="#DejaVuSans-74"/>
       <use x="182.568359" xlink:href="#DejaVuSans-61"/>
       <use x="243.847656" xlink:href="#DejaVuSans-6e"/>
       <use x="307.226562" xlink:href="#DejaVuSans-63"/>
       <use x="362.207031" xlink:href="#DejaVuSans-65"/>
      </g>
     </g>
    </g>
    <g id="matplotlib.axis_4"/>
    <g id="patch_10">
     <path d="M 86.399994 331.391304 
L 820.800018 331.391304 
" style="fill:none;stroke:#000000;stroke-linecap:square;stroke-linejoin:miter;stroke-width:0.8;"/>
    </g>
   </g>
   <g id="matplotlib.axis_5">
    <g id="xtick_15">
     <g id="line2d_29">
      <g>
       <use style="stroke:#000000;stroke-width:0.8;" x="118.635651" xlink:href="#mb1f6b8121b" y="306"/>
      </g>
     </g>
     <g id="text_18">
      <!-- 32 -->
      <g transform="translate(111.000651 322.118125)scale(0.12 -0.12)">
       <use xlink:href="#DejaVuSans-33"/>
       <use x="63.623047" xlink:href="#DejaVuSans-32"/>
      </g>
     </g>
    </g>
    <g id="xtick_16">
     <g id="line2d_30">
      <g>
       <use style="stroke:#000000;stroke-width:0.8;" x="231.079712" xlink:href="#mb1f6b8121b" y="306"/>
      </g>
     </g>
     <g id="text_19">
      <!-- 33 -->
      <g transform="translate(223.444712 322.118125)scale(0.12 -0.12)">
       <use xlink:href="#DejaVuSans-33"/>
       <use x="63.623047" xlink:href="#DejaVuSans-33"/>
      </g>
     </g>
    </g>
    <g id="xtick_17">
     <g id="line2d_31">
      <g>
       <use style="stroke:#000000;stroke-width:0.8;" x="343.523712" xlink:href="#mb1f6b8121b" y="306"/>
      </g>
     </g>
     <g id="text_20">
      <!-- 34 -->
      <g transform="translate(335.888712 322.118125)scale(0.12 -0.12)">
       <use xlink:href="#DejaVuSans-33"/>
       <use x="63.623047" xlink:href="#DejaVuSans-34"/>
      </g>
     </g>
    </g>
    <g id="xtick_18">
     <g id="line2d_32">
      <g>
       <use style="stroke:#000000;stroke-width:0.8;" x="455.967712" xlink:href="#mb1f6b8121b" y="306"/>
      </g>
     </g>
     <g id="text_21">
      <!-- 35 -->
      <g transform="translate(448.332712 322.118125)scale(0.12 -0.12)">
       <use xlink:href="#DejaVuSans-33"/>
       <use x="63.623047" xlink:href="#DejaVuSans-35"/>
      </g>
     </g>
    </g>
    <g id="xtick_19">
     <g id="line2d_33">
      <g>
       <use style="stroke:#000000;stroke-width:0.8;" x="568.411743" xlink:href="#mb1f6b8121b" y="306"/>
      </g>
     </g>
     <g id="text_22">
      <!-- 36 -->
      <g transform="translate(560.776743 322.118125)scale(0.12 -0.12)">
       <use xlink:href="#DejaVuSans-33"/>
       <use x="63.623047" xlink:href="#DejaVuSans-36"/>
      </g>
     </g>
    </g>
    <g id="xtick_20">
     <g id="line2d_34">
      <g>
       <use style="stroke:#000000;stroke-width:0.8;" x="680.855774" xlink:href="#mb1f6b8121b" y="306"/>
      </g>
     </g>
     <g id="text_23">
      <!-- 37 -->
      <g transform="translate(673.220774 322.118125)scale(0.12 -0.12)">
       <use xlink:href="#DejaVuSans-33"/>
       <use x="63.623047" xlink:href="#DejaVuSans-37"/>
      </g>
     </g>
    </g>
    <g id="xtick_21">
     <g id="line2d_35">
      <g>
       <use style="stroke:#000000;stroke-width:0.8;" x="793.299774" xlink:href="#mb1f6b8121b" y="306"/>
      </g>
     </g>
     <g id="text_24">
      <!-- 38 -->
      <g transform="translate(785.664774 322.118125)scale(0.12 -0.12)">
       <use xlink:href="#DejaVuSans-33"/>
       <use x="63.623047" xlink:href="#DejaVuSans-38"/>
      </g>
     </g>
    </g>
    <g id="text_25">
     <!-- 2020-Feb-19 06:27 -->
     <g transform="translate(725.709375 335.212188)scale(0.1 -0.1)">
      <defs>
       <path d="M 3116 1747 
Q 3116 2381 2855 2742 
Q 2594 3103 2138 3103 
Q 1681 3103 1420 2742 
Q 1159 2381 1159 1747 
Q 1159 1113 1420 752 
Q 1681 391 2138 391 
Q 2594 391 2855 752 
Q 3116 1113 3116 1747 
z
M 1159 2969 
Q 1341 3281 1617 3432 
Q 1894 3584 2278 3584 
Q 2916 3584 3314 3078 
Q 3713 2572 3713 1747 
Q 3713 922 3314 415 
Q 2916 -91 2278 -91 
Q 1894 -91 1617 61 
Q 1341 213 1159 525 
L 1159 0 
L 581 0 
L 581 4863 
L 1159 4863 
L 1159 2969 
z
" id="DejaVuSans-62" transform="scale(0.015625)"/>
       <path d="M 750 794 
L 1409 794 
L 1409 0 
L 750 0 
L 750 794 
z
M 750 3309 
L 1409 3309 
L 1409 2516 
L 750 2516 
L 750 3309 
z
" id="DejaVuSans-3a" transform="scale(0.015625)"/>
      </defs>
      <use xlink:href="#DejaVuSans-32"/>
      <use x="63.623047" xlink:href="#DejaVuSans-30"/>
      <use x="127.246094" xlink:href="#DejaVuSans-32"/>
      <use x="190.869141" xlink:href="#DejaVuSans-30"/>
      <use x="254.492188" xlink:href="#DejaVuSans-2d"/>
      <use x="290.576172" xlink:href="#DejaVuSans-46"/>
      <use x="342.595703" xlink:href="#DejaVuSans-65"/>
      <use x="404.119141" xlink:href="#DejaVuSans-62"/>
      <use x="467.595703" xlink:href="#DejaVuSans-2d"/>
      <use x="503.679688" xlink:href="#DejaVuSans-31"/>
      <use x="567.302734" xlink:href="#DejaVuSans-39"/>
      <use x="630.925781" xlink:href="#DejaVuSans-20"/>
      <use x="662.712891" xlink:href="#DejaVuSans-30"/>
      <use x="726.335938" xlink:href="#DejaVuSans-36"/>
      <use x="789.958984" xlink:href="#DejaVuSans-3a"/>
      <use x="823.650391" xlink:href="#DejaVuSans-32"/>
      <use x="887.273438" xlink:href="#DejaVuSans-37"/>
     </g>
    </g>
   </g>
   <g id="matplotlib.axis_6">
    <g id="ytick_6">
     <g id="line2d_36">
      <g>
       <use style="stroke:#000000;stroke-width:0.8;" x="86.4" xlink:href="#m42230142f1" y="297.400353"/>
      </g>
     </g>
     <g id="text_26">
      <!-- −5 -->
      <g transform="translate(61.709375 301.959416)scale(0.12 -0.12)">
       <use xlink:href="#DejaVuSans-2212"/>
       <use x="83.789062" xlink:href="#DejaVuSans-35"/>
      </g>
     </g>
    </g>
    <g id="ytick_7">
     <g id="line2d_37">
      <g>
       <use style="stroke:#000000;stroke-width:0.8;" x="86.4" xlink:href="#m42230142f1" y="247.734136"/>
      </g>
     </g>
     <g id="text_27">
      <!-- 0 -->
      <g transform="translate(71.765 252.293199)scale(0.12 -0.12)">
       <use xlink:href="#DejaVuSans-30"/>
      </g>
     </g>
    </g>
    <g id="ytick_8">
     <g id="line2d_38">
      <g>
       <use style="stroke:#000000;stroke-width:0.8;" x="86.4" xlink:href="#m42230142f1" y="198.067919"/>
      </g>
     </g>
     <g id="text_28">
      <!-- 5 -->
      <g transform="translate(71.765 202.626982)scale(0.12 -0.12)">
       <use xlink:href="#DejaVuSans-35"/>
      </g>
     </g>
    </g>
    <g id="text_29">
     <!-- THC FGL -->
     <g transform="translate(41.776375 268.238302)rotate(-90)scale(0.12 -0.12)">
      <use xlink:href="#DejaVuSans-54"/>
      <use x="61.083984" xlink:href="#DejaVuSans-48"/>
      <use x="136.279297" xlink:href="#DejaVuSans-43"/>
      <use x="206.103516" xlink:href="#DejaVuSans-20"/>
      <use x="237.890625" xlink:href="#DejaVuSans-46"/>
      <use x="295.410156" xlink:href="#DejaVuSans-47"/>
      <use x="372.900391" xlink:href="#DejaVuSans-4c"/>
     </g>
     <!-- [nT] -->
     <g transform="translate(55.21375 254.670802)rotate(-90)scale(0.12 -0.12)">
      <use xlink:href="#DejaVuSans-5b"/>
      <use x="39.013672" xlink:href="#DejaVuSans-6e"/>
      <use x="102.392578" xlink:href="#DejaVuSans-54"/>
      <use x="163.476562" xlink:href="#DejaVuSans-5d"/>
     </g>
    </g>
   </g>
   <g id="line2d_39">
    <path clip-path="url(#p84f2671471)" d="M 119.78183 294.249498 
L 126.80957 295.267829 
L 133.837341 294.813644 
L 140.865112 293.866446 
L 147.892853 294.353877 
L 154.920593 293.87498 
L 161.948334 292.531895 
L 168.976105 294.440103 
L 176.003845 295.513606 
L 183.031586 293.902528 
L 190.059326 293.798957 
L 197.087097 293.129012 
L 204.114838 292.765048 
L 211.142578 292.051919 
L 218.170319 291.856127 
L 225.19812 290.565286 
L 232.225861 288.509453 
L 239.253601 287.289227 
L 246.281372 285.68943 
L 253.309113 286.213079 
L 260.336853 285.137828 
L 267.364594 286.061147 
L 274.392365 287.357903 
L 281.420105 285.89151 
L 288.447845 284.127242 
L 295.475586 284.542256 
L 302.503357 284.163842 
L 309.531097 282.470255 
L 316.558868 280.60072 
L 323.586639 278.38077 
L 330.61438 276.390022 
L 337.64212 274.506469 
L 344.669861 272.524797 
L 351.697632 270.57615 
L 358.725372 268.736318 
L 365.753113 265.601965 
L 372.780853 262.626505 
L 379.808624 259.873889 
L 386.836365 258.829244 
L 393.864105 255.403953 
L 400.891846 252.316426 
L 407.919647 249.567032 
L 414.947388 246.142522 
L 421.975128 242.3462 
L 429.002899 239.072057 
L 436.03064 236.956186 
L 443.05838 234.725773 
L 450.086121 233.150563 
L 457.113892 230.992398 
L 464.141632 228.80271 
L 471.169373 225.631352 
L 478.197113 223.454945 
L 485.224884 220.585328 
L 492.252655 218.598571 
L 499.280396 217.34269 
L 506.308167 215.387458 
L 513.335907 213.891729 
L 520.363647 212.974058 
L 527.391388 212.213437 
L 534.419159 211.789632 
L 541.446899 209.50663 
L 548.47464 209.646458 
L 555.50238 209.513464 
L 562.530151 209.034787 
L 569.557892 207.945657 
L 576.585632 207.767236 
L 583.613434 207.627772 
L 590.641174 207.190352 
L 597.668915 205.959063 
L 604.696655 206.072792 
L 611.724426 205.856012 
L 618.752167 204.806164 
L 625.779907 204.120668 
L 632.807648 204.136349 
L 639.835419 203.627664 
L 646.863159 203.372526 
L 653.8909 203.038651 
L 660.91864 202.581829 
L 667.946411 202.872502 
L 674.974182 203.987163 
L 682.001923 203.294562 
L 689.029694 203.216893 
L 696.057434 203.278457 
L 703.085175 202.968212 
L 710.112915 202.780132 
L 717.140686 203.3069 
L 724.168427 202.459769 
L 731.196167 201.426366 
L 738.223907 201.704183 
L 745.251678 201.509945 
L 752.279419 201.577287 
L 759.307159 201.41986 
L 766.334961 202.174553 
L 773.362701 202.638612 
L 780.390442 201.806838 
L 787.418182 202.973196 
" style="fill:none;stroke:#0000ff;stroke-linecap:square;stroke-width:0.5;"/>
   </g>
   <g id="line2d_40">
    <path clip-path="url(#p84f2671471)" d="M 119.78183 285.713943 
L 126.80957 285.387344 
L 133.837341 283.699681 
L 140.865112 283.112324 
L 147.892853 282.788242 
L 154.920593 282.972581 
L 161.948334 284.128009 
L 168.976105 284.473544 
L 176.003845 285.097302 
L 183.031586 284.972037 
L 190.059326 285.327035 
L 197.087097 285.043425 
L 204.114838 286.338052 
L 211.142578 285.780786 
L 218.170319 285.839247 
L 225.19812 286.858491 
L 232.225861 287.799893 
L 239.253601 290.105756 
L 246.281372 289.327246 
L 253.309113 291.488594 
L 260.336853 291.721509 
L 267.364594 291.02511 
L 274.392365 291.335588 
L 281.420105 290.906279 
L 288.447845 291.087144 
L 295.475586 291.459956 
L 302.503357 291.310133 
L 309.531097 291.658978 
L 316.558868 292.517261 
L 323.586639 294.18057 
L 330.61438 295.45768 
L 337.64212 295.880352 
L 344.669861 296.491884 
L 351.697632 297.019681 
L 358.725372 296.696609 
L 365.753113 298.196482 
L 372.780853 298.715906 
L 379.808624 299.653881 
L 386.836365 299.487461 
L 393.864105 299.140332 
L 400.891846 298.61539 
L 407.919647 299.167558 
L 414.947388 300.185527 
L 421.975128 300.001676 
L 429.002899 300.229249 
L 436.03064 299.765401 
L 443.05838 299.67448 
L 450.086121 299.43809 
L 457.113892 297.981638 
L 464.141632 298.068132 
L 471.169373 296.934489 
L 478.197113 296.312881 
L 485.224884 295.127025 
L 492.252655 294.625288 
L 499.280396 294.173533 
L 506.308167 293.952943 
L 513.335907 293.097296 
L 520.363647 293.397036 
L 527.391388 293.554818 
L 534.419159 293.149596 
L 541.446899 292.742726 
L 548.47464 292.830083 
L 555.50238 291.485405 
L 562.530151 291.184389 
L 569.557892 290.922158 
L 576.585632 289.775753 
L 583.613434 290.083752 
L 590.641174 289.520661 
L 597.668915 289.648351 
L 604.696655 289.858174 
L 611.724426 289.168686 
L 618.752167 288.499347 
L 625.779907 287.614041 
L 632.807648 287.636001 
L 639.835419 286.273352 
L 646.863159 285.714142 
L 653.8909 285.721799 
L 660.91864 285.347104 
L 667.946411 285.158687 
L 674.974182 285.690235 
L 682.001923 285.616016 
L 689.029694 285.83324 
L 696.057434 286.486362 
L 703.085175 285.646651 
L 710.112915 285.613356 
L 717.140686 285.562717 
L 724.168427 286.055353 
L 731.196167 285.888052 
L 738.223907 286.443327 
L 745.251678 286.751482 
L 752.279419 286.663412 
L 759.307159 286.312377 
L 766.334961 288.014398 
L 773.362701 288.296922 
L 780.390442 288.454042 
L 787.418182 288.775446 
" style="fill:none;stroke:#008000;stroke-linecap:square;stroke-width:0.5;"/>
   </g>
   <g id="line2d_41">
    <path clip-path="url(#p84f2671471)" d="M 119.78183 230.407549 
L 126.80957 231.526557 
L 133.837341 231.556377 
L 140.865112 232.773973 
L 147.892853 232.144858 
L 154.920593 231.479352 
L 161.948334 231.252391 
L 168.976105 230.984663 
L 176.003845 231.000023 
L 183.031586 231.027384 
L 190.059326 231.811749 
L 197.087097 232.660223 
L 204.114838 233.104325 
L 211.142578 234.230207 
L 218.170319 234.602722 
L 225.19812 234.947922 
L 232.225861 234.665167 
L 239.253601 234.505507 
L 246.281372 233.972786 
L 253.309113 233.631847 
L 260.336853 232.711607 
L 267.364594 232.709727 
L 274.392365 233.76458 
L 281.420105 234.230017 
L 288.447845 233.513091 
L 295.475586 233.984242 
L 302.503357 234.123024 
L 309.531097 233.942752 
L 316.558868 233.907849 
L 323.586639 233.329403 
L 330.61438 233.616265 
L 337.64212 232.337417 
L 344.669861 231.873206 
L 351.697632 232.676877 
L 358.725372 232.083219 
L 365.753113 231.864688 
L 372.780853 231.614118 
L 379.808624 231.400526 
L 386.836365 231.418407 
L 393.864105 230.986606 
L 400.891846 231.440901 
L 407.919647 231.727677 
L 414.947388 231.469789 
L 421.975128 232.152792 
L 429.002899 231.903653 
L 436.03064 232.296354 
L 443.05838 232.114049 
L 450.086121 230.787025 
L 457.113892 231.986928 
L 464.141632 231.799005 
L 471.169373 232.334895 
L 478.197113 232.747033 
L 485.224884 232.229686 
L 492.252655 233.438075 
L 499.280396 232.722133 
L 506.308167 233.054718 
L 513.335907 233.611904 
L 520.363647 234.025508 
L 527.391388 233.789326 
L 534.419159 233.498631 
L 541.446899 234.302146 
L 548.47464 234.168356 
L 555.50238 233.432538 
L 562.530151 234.19752 
L 569.557892 234.435757 
L 576.585632 235.053581 
L 583.613434 234.400495 
L 590.641174 233.544773 
L 597.668915 234.259469 
L 604.696655 233.756303 
L 611.724426 233.579363 
L 618.752167 232.476405 
L 625.779907 232.103225 
L 632.807648 232.343851 
L 639.835419 232.330709 
L 646.863159 232.287896 
L 653.8909 231.662949 
L 660.91864 232.290297 
L 667.946411 231.465395 
L 674.974182 231.810639 
L 682.001923 230.533605 
L 689.029694 231.488494 
L 696.057434 230.79535 
L 703.085175 231.661001 
L 710.112915 231.535351 
L 717.140686 232.346633 
L 724.168427 231.723003 
L 731.196167 232.227863 
L 738.223907 231.969552 
L 745.251678 232.526819 
L 752.279419 232.344872 
L 759.307159 232.89557 
L 766.334961 232.234841 
L 773.362701 232.966372 
L 780.390442 234.051918 
L 787.418182 233.657821 
" style="fill:none;stroke:#ff0000;stroke-linecap:square;stroke-width:0.5;"/>
   </g>
   <g id="line2d_42">
    <path clip-path="url(#p84f2671471)" d="M 119.78183 185.233299 
L 126.80957 184.965505 
L 133.837341 186.319809 
L 140.865112 187.704044 
L 147.892853 187.358514 
L 154.920593 187.443643 
L 161.948334 187.709131 
L 168.976105 185.994556 
L 176.003845 184.814229 
L 183.031586 186.111923 
L 190.059326 186.181592 
L 197.087097 187.071953 
L 204.114838 186.64341 
L 211.142578 187.784423 
L 218.170319 187.974756 
L 225.19812 188.331186 
L 232.225861 189.093797 
L 239.253601 188.278638 
L 246.281372 189.76892 
L 253.309113 187.784518 
L 260.336853 188.071742 
L 267.364594 187.994697 
L 274.392365 187.184337 
L 281.420105 188.554911 
L 288.447845 189.371652 
L 295.475586 188.947703 
L 302.503357 189.328199 
L 309.531097 190.060989 
L 316.558868 190.489864 
L 323.586639 190.253842 
L 330.61438 190.305825 
L 337.64212 190.533828 
L 344.669861 190.782719 
L 351.697632 191.364428 
L 358.725372 192.206063 
L 365.753113 191.89914 
L 372.780853 192.229372 
L 379.808624 191.968374 
L 386.836365 192.347217 
L 393.864105 193.127335 
L 400.891846 194.111673 
L 407.919647 193.836428 
L 414.947388 192.79589 
L 421.975128 192.928078 
L 429.002899 192.224024 
L 436.03064 192.401128 
L 443.05838 191.95776 
L 450.086121 191.403116 
L 457.113892 192.479527 
L 464.141632 191.646365 
L 471.169373 191.641852 
L 478.197113 191.395992 
L 485.224884 190.957985 
L 492.252655 190.707489 
L 499.280396 190.239637 
L 506.308167 189.442018 
L 513.335907 189.402652 
L 520.363647 188.731684 
L 527.391388 188.104343 
L 534.419159 188.091697 
L 541.446899 187.173973 
L 548.47464 187.167266 
L 555.50238 187.904973 
L 562.530151 187.994669 
L 569.557892 187.524709 
L 576.585632 188.356976 
L 583.613434 187.902737 
L 590.641174 187.807102 
L 597.668915 187.042089 
L 604.696655 186.861471 
L 611.724426 187.14572 
L 618.752167 186.599767 
L 625.779907 186.60422 
L 632.807648 186.662162 
L 639.835419 187.170805 
L 646.863159 187.327025 
L 653.8909 186.914472 
L 660.91864 186.972486 
L 667.946411 187.088986 
L 674.974182 187.667336 
L 682.001923 186.859098 
L 689.029694 186.929146 
L 696.057434 186.374829 
L 703.085175 186.90904 
L 710.112915 186.75793 
L 717.140686 187.388832 
L 724.168427 186.296037 
L 731.196167 185.76176 
L 738.223907 185.559547 
L 745.251678 185.361939 
L 752.279419 185.42224 
L 759.307159 185.657769 
L 766.334961 184.977436 
L 773.362701 185.307919 
L 780.390442 184.848285 
L 787.418182 185.395763 
" style="fill:none;stroke:#000000;stroke-linecap:square;stroke-width:0.5;"/>
   </g>
   <g id="patch_11">
    <path d="M 86.4 306 
L 86.4 179.043478 
" style="fill:none;stroke:#000000;stroke-linecap:square;stroke-linejoin:miter;stroke-width:0.8;"/>
   </g>
   <g id="patch_12">
    <path d="M 820.8 306 
L 820.8 179.043478 
" style="fill:none;stroke:#000000;stroke-linecap:square;stroke-linejoin:miter;stroke-width:0.8;"/>
   </g>
   <g id="patch_13">
    <path d="M 86.399994 306 
L 820.800018 306 
" style="fill:none;stroke:#000000;stroke-linecap:square;stroke-linejoin:miter;stroke-width:0.8;"/>
   </g>
   <g id="patch_14">
    <path d="M 86.399994 179.043478 
L 820.800018 179.043478 
" style="fill:none;stroke:#000000;stroke-linecap:square;stroke-linejoin:miter;stroke-width:0.8;"/>
   </g>
   <g id="legend_2">
    <g id="patch_15">
     <path d="M 752.073437 245.755978 
L 813.8 245.755978 
Q 815.8 245.755978 815.8 243.755978 
L 815.8 186.043478 
Q 815.8 184.043478 813.8 184.043478 
L 752.073437 184.043478 
Q 750.073437 184.043478 750.073437 186.043478 
L 750.073437 243.755978 
Q 750.073437 245.755978 752.073437 245.755978 
z
" style="fill:#ffffff;opacity:0.8;stroke:#cccccc;stroke-linejoin:miter;"/>
    </g>
    <g id="text_30">
     <!-- Bl -->
     <g transform="translate(774.160937 195.641916)scale(0.1 -0.1)">
      <defs>
       <path d="M 603 4863 
L 1178 4863 
L 1178 0 
L 603 0 
L 603 4863 
z
" id="DejaVuSans-6c" transform="scale(0.015625)"/>
      </defs>
      <use xlink:href="#DejaVuSans-42"/>
      <use x="68.603516" xlink:href="#DejaVuSans-6c"/>
     </g>
    </g>
    <g id="line2d_43">
     <path d="M 791.8 192.141916 
L 811.8 192.141916 
" style="fill:none;stroke:#0000ff;stroke-linecap:square;stroke-width:4;"/>
    </g>
    <g id="line2d_44"/>
    <g id="text_31">
     <!-- Bm -->
     <g transform="translate(767.198437 210.320041)scale(0.1 -0.1)">
      <defs>
       <path d="M 3328 2828 
Q 3544 3216 3844 3400 
Q 4144 3584 4550 3584 
Q 5097 3584 5394 3201 
Q 5691 2819 5691 2113 
L 5691 0 
L 5113 0 
L 5113 2094 
Q 5113 2597 4934 2840 
Q 4756 3084 4391 3084 
Q 3944 3084 3684 2787 
Q 3425 2491 3425 1978 
L 3425 0 
L 2847 0 
L 2847 2094 
Q 2847 2600 2669 2842 
Q 2491 3084 2119 3084 
Q 1678 3084 1418 2786 
Q 1159 2488 1159 1978 
L 1159 0 
L 581 0 
L 581 3500 
L 1159 3500 
L 1159 2956 
Q 1356 3278 1631 3431 
Q 1906 3584 2284 3584 
Q 2666 3584 2933 3390 
Q 3200 3197 3328 2828 
z
" id="DejaVuSans-6d" transform="scale(0.015625)"/>
      </defs>
      <use xlink:href="#DejaVuSans-42"/>
      <use x="68.603516" xlink:href="#DejaVuSans-6d"/>
     </g>
    </g>
    <g id="line2d_45">
     <path d="M 791.8 206.820041 
L 811.8 206.820041 
" style="fill:none;stroke:#008000;stroke-linecap:square;stroke-width:4;"/>
    </g>
    <g id="line2d_46"/>
    <g id="text_32">
     <!-- Bn -->
     <g transform="translate(770.601562 224.998166)scale(0.1 -0.1)">
      <use xlink:href="#DejaVuSans-42"/>
      <use x="68.603516" xlink:href="#DejaVuSans-6e"/>
     </g>
    </g>
    <g id="line2d_47">
     <path d="M 791.8 221.498166 
L 811.8 221.498166 
" style="fill:none;stroke:#ff0000;stroke-linecap:square;stroke-width:4;"/>
    </g>
    <g id="line2d_48"/>
    <g id="text_33">
     <!-- Btotal -->
     <g transform="translate(754.073437 239.676291)scale(0.1 -0.1)">
      <defs>
       <path d="M 1959 3097 
Q 1497 3097 1228 2736 
Q 959 2375 959 1747 
Q 959 1119 1226 758 
Q 1494 397 1959 397 
Q 2419 397 2687 759 
Q 2956 1122 2956 1747 
Q 2956 2369 2687 2733 
Q 2419 3097 1959 3097 
z
M 1959 3584 
Q 2709 3584 3137 3096 
Q 3566 2609 3566 1747 
Q 3566 888 3137 398 
Q 2709 -91 1959 -91 
Q 1206 -91 779 398 
Q 353 888 353 1747 
Q 353 2609 779 3096 
Q 1206 3584 1959 3584 
z
" id="DejaVuSans-6f" transform="scale(0.015625)"/>
      </defs>
      <use xlink:href="#DejaVuSans-42"/>
      <use x="68.603516" xlink:href="#DejaVuSans-74"/>
      <use x="107.8125" xlink:href="#DejaVuSans-6f"/>
      <use x="168.994141" xlink:href="#DejaVuSans-74"/>
      <use x="208.203125" xlink:href="#DejaVuSans-61"/>
      <use x="269.482422" xlink:href="#DejaVuSans-6c"/>
     </g>
    </g>
    <g id="line2d_49">
     <path d="M 791.8 236.176291 
L 811.8 236.176291 
" style="fill:none;stroke:#000000;stroke-linecap:square;stroke-width:4;"/>
    </g>
    <g id="line2d_50"/>
   </g>
  </g>
 </g>
 <defs>
  <clipPath id="pa26d6e8107">
   <rect height="126.956522" width="734.4" x="86.4" y="43.2"/>
  </clipPath>
  <clipPath id="p84f2671471">
   <rect height="126.956522" width="734.4" x="86.4" y="179.043478"/>
  </clipPath>
 </defs>
</svg>
