<?xml version="1.0" encoding="UTF-8" standalone="no"?>
<svg
   height="288pt"
   version="1.1"
   viewBox="0 0 432 288"
   width="432pt"
   id="svg495"
   sodipodi:docname="example_mva_noted.svg"
   inkscape:version="1.2.2 (b0a84865, 2022-12-01)"
   xmlns:inkscape="http://www.inkscape.org/namespaces/inkscape"
   xmlns:sodipodi="http://sodipodi.sourceforge.net/DTD/sodipodi-0.dtd"
   xmlns:xlink="http://www.w3.org/1999/xlink"
   xmlns="http://www.w3.org/2000/svg"
   xmlns:svg="http://www.w3.org/2000/svg"
   xmlns:rdf="http://www.w3.org/1999/02/22-rdf-syntax-ns#"
   xmlns:cc="http://creativecommons.org/ns#"
   xmlns:dc="http://purl.org/dc/elements/1.1/">
  <sodipodi:namedview
     id="namedview497"
     pagecolor="#ffffff"
     bordercolor="#000000"
     borderopacity="0.25"
     inkscape:showpageshadow="2"
     inkscape:pageopacity="0.0"
     inkscape:pagecheckerboard="0"
     inkscape:deskcolor="#d1d1d1"
     inkscape:document-units="pt"
     showgrid="false"
     inkscape:zoom="1.1137244"
     inkscape:cx="220.8805"
     inkscape:cy="139.17267"
     inkscape:window-width="1309"
     inkscape:window-height="456"
     inkscape:window-x="0"
     inkscape:window-y="32"
     inkscape:window-maximized="0"
     inkscape:current-layer="axes_1" />
  <metadata
     id="metadata9">
    <rdf:RDF>
      <cc:Work>
        <dc:type
           rdf:resource="http://purl.org/dc/dcmitype/StillImage" />
        <dc:date>2023-06-05T12:47:37.635199</dc:date>
        <dc:format>image/svg+xml</dc:format>
        <dc:creator>
          <cc:Agent>
            <dc:title>Matplotlib v3.4.3, https://matplotlib.org/</dc:title>
          </cc:Agent>
        </dc:creator>
      </cc:Work>
    </rdf:RDF>
  </metadata>
  <defs
     id="defs13">
    <style
       type="text/css"
       id="style11">*{stroke-linecap:butt;stroke-linejoin:round;}</style>
  </defs>
  <g
     id="figure_1">
    <g
       id="patch_1">
      <path
         d="M 0 288  L 432 288  L 432 0  L 0 0  z "
         style="fill:none;"
         id="path15" />
    </g>
    <g
       id="axes_1">
      <g
         id="patch_2">
        <path
           d="M 54 252  L 388.8 252  L 388.8 34.56  L 54 34.56  z "
           style="fill:#ffffff;"
           id="path18" />
      </g>
      <g
         id="patch_3">
        <path
           clip-path="url(#pc1a00ae640)"
           d="M 208.548607 209.520832  C 256.03209 209.520832 301.577166 169.457652 335.153059 98.154741  C 368.728952 26.85183 387.59434 -69.869244 387.59434 -170.706788  C 387.59434 -271.544332 368.728952 -368.265406 335.153059 -439.568317  C 301.577166 -510.871228 256.03209 -550.934408 208.548607 -550.934408  C 161.065124 -550.934408 115.520048 -510.871228 81.944155 -439.568317  C 48.368262 -368.265406 29.502874 -271.544332 29.502874 -170.706788  C 29.502874 -69.869244 48.368262 26.85183 81.944155 98.154741  C 115.520048 169.457652 161.065124 209.520832 208.548607 209.520832  z "
           style="fill:none;stroke:#ff0000;stroke-dasharray:3.7,1.6;stroke-dashoffset:0;stroke-linejoin:miter;"
           id="path21" />
      </g>
      <g
         id="matplotlib.axis_1">
        <g
           id="xtick_1">
          <g
             id="line2d_1">
            <defs
               id="defs25">
              <path
                 d="M 0 0  L 0 3.5  "
                 id="m1d46c1f12a"
                 style="stroke:#000000;stroke-width:0.8;" />
            </defs>
            <g
               id="g29">
              <use
                 style="stroke:#000000;stroke-width:0.8;"
                 x="96.467793"
                 xlink:href="#m1d46c1f12a"
                 y="252"
                 id="use27" />
            </g>
          </g>
          <g
             id="text_1">
            <!-- −2 -->
            <g
               transform="translate(89.0967 266.598437)scale(0.1 -0.1)"
               id="g40">
              <defs
                 id="defs34">
                <path
                   d="M 678 2272  L 4684 2272  L 4684 1741  L 678 1741  L 678 2272  z "
                   id="DejaVuSans-2212"
                   transform="scale(0.015625)" />
                <path
                   d="M 1228 531  L 3431 531  L 3431 0  L 469 0  L 469 531  Q 828 903 1448 1529  Q 2069 2156 2228 2338  Q 2531 2678 2651 2914  Q 2772 3150 2772 3378  Q 2772 3750 2511 3984  Q 2250 4219 1831 4219  Q 1534 4219 1204 4116  Q 875 4013 500 3803  L 500 4441  Q 881 4594 1212 4672  Q 1544 4750 1819 4750  Q 2544 4750 2975 4387  Q 3406 4025 3406 3419  Q 3406 3131 3298 2873  Q 3191 2616 2906 2266  Q 2828 2175 2409 1742  Q 1991 1309 1228 531  z "
                   id="DejaVuSans-32"
                   transform="scale(0.015625)" />
              </defs>
              <use
                 xlink:href="#DejaVuSans-2212"
                 id="use36" />
              <use
                 x="83.789062"
                 xlink:href="#DejaVuSans-32"
                 id="use38" />
            </g>
          </g>
        </g>
        <g
           id="xtick_2">
          <g
             id="line2d_2">
            <g
               id="g46">
              <use
                 style="stroke:#000000;stroke-width:0.8;"
                 x="152.5082"
                 xlink:href="#m1d46c1f12a"
                 y="252"
                 id="use44" />
            </g>
          </g>
          <g
             id="text_2">
            <!-- −1 -->
            <g
               transform="translate(145.137106 266.598437)scale(0.1 -0.1)"
               id="g56">
              <defs
                 id="defs50">
                <path
                   d="M 794 531  L 1825 531  L 1825 4091  L 703 3866  L 703 4441  L 1819 4666  L 2450 4666  L 2450 531  L 3481 531  L 3481 0  L 794 0  L 794 531  z "
                   id="DejaVuSans-31"
                   transform="scale(0.015625)" />
              </defs>
              <use
                 xlink:href="#DejaVuSans-2212"
                 id="use52" />
              <use
                 x="83.789062"
                 xlink:href="#DejaVuSans-31"
                 id="use54" />
            </g>
          </g>
        </g>
        <g
           id="xtick_3">
          <g
             id="line2d_3">
            <g
               id="g62">
              <use
                 style="stroke:#000000;stroke-width:0.8;"
                 x="208.548607"
                 xlink:href="#m1d46c1f12a"
                 y="252"
                 id="use60" />
            </g>
          </g>
          <g
             id="text_3">
            <!-- 0 -->
            <g
               transform="translate(205.367357 266.598437)scale(0.1 -0.1)"
               id="g70">
              <defs
                 id="defs66">
                <path
                   d="M 2034 4250  Q 1547 4250 1301 3770  Q 1056 3291 1056 2328  Q 1056 1369 1301 889  Q 1547 409 2034 409  Q 2525 409 2770 889  Q 3016 1369 3016 2328  Q 3016 3291 2770 3770  Q 2525 4250 2034 4250  z M 2034 4750  Q 2819 4750 3233 4129  Q 3647 3509 3647 2328  Q 3647 1150 3233 529  Q 2819 -91 2034 -91  Q 1250 -91 836 529  Q 422 1150 422 2328  Q 422 3509 836 4129  Q 1250 4750 2034 4750  z "
                   id="DejaVuSans-30"
                   transform="scale(0.015625)" />
              </defs>
              <use
                 xlink:href="#DejaVuSans-30"
                 id="use68" />
            </g>
          </g>
        </g>
        <g
           id="xtick_4">
          <g
             id="line2d_4">
            <g
               id="g76">
              <use
                 style="stroke:#000000;stroke-width:0.8;"
                 x="264.589014"
                 xlink:href="#m1d46c1f12a"
                 y="252"
                 id="use74" />
            </g>
          </g>
          <g
             id="text_4">
            <!-- 1 -->
            <g
               transform="translate(261.407764 266.598437)scale(0.1 -0.1)"
               id="g81">
              <use
                 xlink:href="#DejaVuSans-31"
                 id="use79" />
            </g>
          </g>
        </g>
        <g
           id="xtick_5">
          <g
             id="line2d_5">
            <g
               id="g87">
              <use
                 style="stroke:#000000;stroke-width:0.8;"
                 x="320.629421"
                 xlink:href="#m1d46c1f12a"
                 y="252"
                 id="use85" />
            </g>
          </g>
          <g
             id="text_5">
            <!-- 2 -->
            <g
               transform="translate(317.448171 266.598437)scale(0.1 -0.1)"
               id="g92">
              <use
                 xlink:href="#DejaVuSans-32"
                 id="use90" />
            </g>
          </g>
        </g>
        <g
           id="xtick_6">
          <g
             id="line2d_6">
            <g
               id="g98">
              <use
                 style="stroke:#000000;stroke-width:0.8;"
                 x="376.669827"
                 xlink:href="#m1d46c1f12a"
                 y="252"
                 id="use96" />
            </g>
          </g>
          <g
             id="text_6">
            <!-- 3 -->
            <g
               transform="translate(373.488577 266.598437)scale(0.1 -0.1)"
               id="g106">
              <defs
                 id="defs102">
                <path
                   d="M 2597 2516  Q 3050 2419 3304 2112  Q 3559 1806 3559 1356  Q 3559 666 3084 287  Q 2609 -91 1734 -91  Q 1441 -91 1130 -33  Q 819 25 488 141  L 488 750  Q 750 597 1062 519  Q 1375 441 1716 441  Q 2309 441 2620 675  Q 2931 909 2931 1356  Q 2931 1769 2642 2001  Q 2353 2234 1838 2234  L 1294 2234  L 1294 2753  L 1863 2753  Q 2328 2753 2575 2939  Q 2822 3125 2822 3475  Q 2822 3834 2567 4026  Q 2313 4219 1838 4219  Q 1578 4219 1281 4162  Q 984 4106 628 3988  L 628 4550  Q 988 4650 1302 4700  Q 1616 4750 1894 4750  Q 2613 4750 3031 4423  Q 3450 4097 3450 3541  Q 3450 3153 3228 2886  Q 3006 2619 2597 2516  z "
                   id="DejaVuSans-33"
                   transform="scale(0.015625)" />
              </defs>
              <use
                 xlink:href="#DejaVuSans-33"
                 id="use104" />
            </g>
          </g>
        </g>
        <g
           id="text_7">
          <!-- $B_l$ [nT] -->
          <g
             transform="translate(205.1 280.276563)scale(0.1 -0.1)"
             id="g133">
            <defs
               id="defs117">
              <path
                 d="M 1081 4666  L 2694 4666  Q 3350 4666 3675 4422  Q 4000 4178 4000 3688  Q 4000 3238 3720 2911  Q 3441 2584 2988 2516  Q 3375 2428 3569 2181  Q 3763 1934 3763 1522  Q 3763 819 3242 409  Q 2722 0 1819 0  L 172 0  L 1081 4666  z M 1234 2228  L 903 519  L 1919 519  Q 2491 519 2800 781  Q 3109 1044 3109 1522  Q 3109 1891 2904 2059  Q 2700 2228 2247 2228  L 1234 2228  z M 1606 4147  L 1331 2741  L 2272 2741  Q 2775 2741 3058 2959  Q 3341 3178 3341 3566  Q 3341 3869 3150 4008  Q 2959 4147 2541 4147  L 1606 4147  z "
                 id="DejaVuSans-Oblique-42"
                 transform="scale(0.015625)" />
              <path
                 d="M 1172 4863  L 1747 4863  L 800 0  L 225 0  L 1172 4863  z "
                 id="DejaVuSans-Oblique-6c"
                 transform="scale(0.015625)" />
              <path
                 id="DejaVuSans-20"
                 transform="scale(0.015625)" />
              <path
                 d="M 550 4863  L 1875 4863  L 1875 4416  L 1125 4416  L 1125 -397  L 1875 -397  L 1875 -844  L 550 -844  L 550 4863  z "
                 id="DejaVuSans-5b"
                 transform="scale(0.015625)" />
              <path
                 d="M 3513 2113  L 3513 0  L 2938 0  L 2938 2094  Q 2938 2591 2744 2837  Q 2550 3084 2163 3084  Q 1697 3084 1428 2787  Q 1159 2491 1159 1978  L 1159 0  L 581 0  L 581 3500  L 1159 3500  L 1159 2956  Q 1366 3272 1645 3428  Q 1925 3584 2291 3584  Q 2894 3584 3203 3211  Q 3513 2838 3513 2113  z "
                 id="DejaVuSans-6e"
                 transform="scale(0.015625)" />
              <path
                 d="M -19 4666  L 3928 4666  L 3928 4134  L 2272 4134  L 2272 0  L 1638 0  L 1638 4134  L -19 4134  L -19 4666  z "
                 id="DejaVuSans-54"
                 transform="scale(0.015625)" />
              <path
                 d="M 1947 4863  L 1947 -844  L 622 -844  L 622 -397  L 1369 -397  L 1369 4416  L 622 4416  L 622 4863  L 1947 4863  z "
                 id="DejaVuSans-5d"
                 transform="scale(0.015625)" />
            </defs>
            <use
               transform="translate(0 0.015625)"
               xlink:href="#DejaVuSans-Oblique-42"
               id="use119" />
            <use
               transform="translate(68.603516 -16.390625)scale(0.7)"
               xlink:href="#DejaVuSans-Oblique-6c"
               id="use121" />
            <use
               transform="translate(90.786133 0.015625)"
               xlink:href="#DejaVuSans-20"
               id="use123" />
            <use
               transform="translate(122.573242 0.015625)"
               xlink:href="#DejaVuSans-5b"
               id="use125" />
            <use
               transform="translate(161.586914 0.015625)"
               xlink:href="#DejaVuSans-6e"
               id="use127" />
            <use
               transform="translate(224.96582 0.015625)"
               xlink:href="#DejaVuSans-54"
               id="use129" />
            <use
               transform="translate(286.049805 0.015625)"
               xlink:href="#DejaVuSans-5d"
               id="use131" />
          </g>
        </g>
      </g>
      <g
         id="matplotlib.axis_2">
        <g
           id="ytick_1">
          <g
             id="line2d_7">
            <defs
               id="defs138">
              <path
                 d="M 0 0  L -3.5 0  "
                 id="m8394777387"
                 style="stroke:#000000;stroke-width:0.8;" />
            </defs>
            <g
               id="g142">
              <use
                 style="stroke:#000000;stroke-width:0.8;"
                 x="54"
                 xlink:href="#m8394777387"
                 y="245.825824"
                 id="use140" />
            </g>
          </g>
          <g
             id="text_8">
            <!-- −3.50 -->
            <g
               transform="translate(16.354687 249.625042)scale(0.1 -0.1)"
               id="g159">
              <defs
                 id="defs147">
                <path
                   d="M 684 794  L 1344 794  L 1344 0  L 684 0  L 684 794  z "
                   id="DejaVuSans-2e"
                   transform="scale(0.015625)" />
                <path
                   d="M 691 4666  L 3169 4666  L 3169 4134  L 1269 4134  L 1269 2991  Q 1406 3038 1543 3061  Q 1681 3084 1819 3084  Q 2600 3084 3056 2656  Q 3513 2228 3513 1497  Q 3513 744 3044 326  Q 2575 -91 1722 -91  Q 1428 -91 1123 -41  Q 819 9 494 109  L 494 744  Q 775 591 1075 516  Q 1375 441 1709 441  Q 2250 441 2565 725  Q 2881 1009 2881 1497  Q 2881 1984 2565 2268  Q 2250 2553 1709 2553  Q 1456 2553 1204 2497  Q 953 2441 691 2322  L 691 4666  z "
                   id="DejaVuSans-35"
                   transform="scale(0.015625)" />
              </defs>
              <use
                 xlink:href="#DejaVuSans-2212"
                 id="use149" />
              <use
                 x="83.789062"
                 xlink:href="#DejaVuSans-33"
                 id="use151" />
              <use
                 x="147.412109"
                 xlink:href="#DejaVuSans-2e"
                 id="use153" />
              <use
                 x="179.199219"
                 xlink:href="#DejaVuSans-35"
                 id="use155" />
              <use
                 x="242.822266"
                 xlink:href="#DejaVuSans-30"
                 id="use157" />
            </g>
          </g>
        </g>
        <g
           id="ytick_2">
          <g
             id="line2d_8">
            <g
               id="g165">
              <use
                 style="stroke:#000000;stroke-width:0.8;"
                 x="54"
                 xlink:href="#m8394777387"
                 y="216.073494"
                 id="use163" />
            </g>
          </g>
          <g
             id="text_9">
            <!-- −3.25 -->
            <g
               transform="translate(16.354687 219.872713)scale(0.1 -0.1)"
               id="g178">
              <use
                 xlink:href="#DejaVuSans-2212"
                 id="use168" />
              <use
                 x="83.789062"
                 xlink:href="#DejaVuSans-33"
                 id="use170" />
              <use
                 x="147.412109"
                 xlink:href="#DejaVuSans-2e"
                 id="use172" />
              <use
                 x="179.199219"
                 xlink:href="#DejaVuSans-32"
                 id="use174" />
              <use
                 x="242.822266"
                 xlink:href="#DejaVuSans-35"
                 id="use176" />
            </g>
          </g>
        </g>
        <g
           id="ytick_3">
          <g
             id="line2d_9">
            <g
               id="g184">
              <use
                 style="stroke:#000000;stroke-width:0.8;"
                 x="54"
                 xlink:href="#m8394777387"
                 y="186.321165"
                 id="use182" />
            </g>
          </g>
          <g
             id="text_10">
            <!-- −3.00 -->
            <g
               transform="translate(16.354687 190.120384)scale(0.1 -0.1)"
               id="g197">
              <use
                 xlink:href="#DejaVuSans-2212"
                 id="use187" />
              <use
                 x="83.789062"
                 xlink:href="#DejaVuSans-33"
                 id="use189" />
              <use
                 x="147.412109"
                 xlink:href="#DejaVuSans-2e"
                 id="use191" />
              <use
                 x="179.199219"
                 xlink:href="#DejaVuSans-30"
                 id="use193" />
              <use
                 x="242.822266"
                 xlink:href="#DejaVuSans-30"
                 id="use195" />
            </g>
          </g>
        </g>
        <g
           id="ytick_4">
          <g
             id="line2d_10">
            <g
               id="g203">
              <use
                 style="stroke:#000000;stroke-width:0.8;"
                 x="54"
                 xlink:href="#m8394777387"
                 y="156.568835"
                 id="use201" />
            </g>
          </g>
          <g
             id="text_11">
            <!-- −2.75 -->
            <g
               transform="translate(16.354687 160.368054)scale(0.1 -0.1)"
               id="g219">
              <defs
                 id="defs207">
                <path
                   d="M 525 4666  L 3525 4666  L 3525 4397  L 1831 0  L 1172 0  L 2766 4134  L 525 4134  L 525 4666  z "
                   id="DejaVuSans-37"
                   transform="scale(0.015625)" />
              </defs>
              <use
                 xlink:href="#DejaVuSans-2212"
                 id="use209" />
              <use
                 x="83.789062"
                 xlink:href="#DejaVuSans-32"
                 id="use211" />
              <use
                 x="147.412109"
                 xlink:href="#DejaVuSans-2e"
                 id="use213" />
              <use
                 x="179.199219"
                 xlink:href="#DejaVuSans-37"
                 id="use215" />
              <use
                 x="242.822266"
                 xlink:href="#DejaVuSans-35"
                 id="use217" />
            </g>
          </g>
        </g>
        <g
           id="ytick_5">
          <g
             id="line2d_11">
            <g
               id="g225">
              <use
                 style="stroke:#000000;stroke-width:0.8;"
                 x="54"
                 xlink:href="#m8394777387"
                 y="126.816506"
                 id="use223" />
            </g>
          </g>
          <g
             id="text_12">
            <!-- −2.50 -->
            <g
               transform="translate(16.354687 130.615725)scale(0.1 -0.1)"
               id="g238">
              <use
                 xlink:href="#DejaVuSans-2212"
                 id="use228" />
              <use
                 x="83.789062"
                 xlink:href="#DejaVuSans-32"
                 id="use230" />
              <use
                 x="147.412109"
                 xlink:href="#DejaVuSans-2e"
                 id="use232" />
              <use
                 x="179.199219"
                 xlink:href="#DejaVuSans-35"
                 id="use234" />
              <use
                 x="242.822266"
                 xlink:href="#DejaVuSans-30"
                 id="use236" />
            </g>
          </g>
        </g>
        <g
           id="ytick_6">
          <g
             id="line2d_12">
            <g
               id="g244">
              <use
                 style="stroke:#000000;stroke-width:0.8;"
                 x="54"
                 xlink:href="#m8394777387"
                 y="97.064177"
                 id="use242" />
            </g>
          </g>
          <g
             id="text_13">
            <!-- −2.25 -->
            <g
               transform="translate(16.354687 100.863395)scale(0.1 -0.1)"
               id="g257">
              <use
                 xlink:href="#DejaVuSans-2212"
                 id="use247" />
              <use
                 x="83.789062"
                 xlink:href="#DejaVuSans-32"
                 id="use249" />
              <use
                 x="147.412109"
                 xlink:href="#DejaVuSans-2e"
                 id="use251" />
              <use
                 x="179.199219"
                 xlink:href="#DejaVuSans-32"
                 id="use253" />
              <use
                 x="242.822266"
                 xlink:href="#DejaVuSans-35"
                 id="use255" />
            </g>
          </g>
        </g>
        <g
           id="ytick_7">
          <g
             id="line2d_13">
            <g
               id="g263">
              <use
                 style="stroke:#000000;stroke-width:0.8;"
                 x="54"
                 xlink:href="#m8394777387"
                 y="67.311847"
                 id="use261" />
            </g>
          </g>
          <g
             id="text_14">
            <!-- −2.00 -->
            <g
               transform="translate(16.354687 71.111066)scale(0.1 -0.1)"
               id="g276">
              <use
                 xlink:href="#DejaVuSans-2212"
                 id="use266" />
              <use
                 x="83.789062"
                 xlink:href="#DejaVuSans-32"
                 id="use268" />
              <use
                 x="147.412109"
                 xlink:href="#DejaVuSans-2e"
                 id="use270" />
              <use
                 x="179.199219"
                 xlink:href="#DejaVuSans-30"
                 id="use272" />
              <use
                 x="242.822266"
                 xlink:href="#DejaVuSans-30"
                 id="use274" />
            </g>
          </g>
        </g>
        <g
           id="ytick_8">
          <g
             id="line2d_14">
            <g
               id="g282">
              <use
                 style="stroke:#000000;stroke-width:0.8;"
                 x="54"
                 xlink:href="#m8394777387"
                 y="37.559518"
                 id="use280" />
            </g>
          </g>
          <g
             id="text_15">
            <!-- −1.75 -->
            <g
               transform="translate(16.354687 41.358737)scale(0.1 -0.1)"
               id="g295">
              <use
                 xlink:href="#DejaVuSans-2212"
                 id="use285" />
              <use
                 x="83.789062"
                 xlink:href="#DejaVuSans-31"
                 id="use287" />
              <use
                 x="147.412109"
                 xlink:href="#DejaVuSans-2e"
                 id="use289" />
              <use
                 x="179.199219"
                 xlink:href="#DejaVuSans-37"
                 id="use291" />
              <use
                 x="242.822266"
                 xlink:href="#DejaVuSans-35"
                 id="use293" />
            </g>
          </g>
        </g>
        <g
           id="text_16">
          <!-- $B_m$ [nT] -->
          <g
             transform="translate(10.275 161.98)rotate(-90)scale(0.1 -0.1)"
             id="g316">
            <defs
               id="defs300">
              <path
                 d="M 5747 2113  L 5338 0  L 4763 0  L 5166 2094  Q 5191 2228 5203 2325  Q 5216 2422 5216 2491  Q 5216 2772 5059 2928  Q 4903 3084 4622 3084  Q 4203 3084 3875 2770  Q 3547 2456 3450 1953  L 3066 0  L 2491 0  L 2900 2094  Q 2925 2209 2937 2307  Q 2950 2406 2950 2484  Q 2950 2769 2794 2926  Q 2638 3084 2363 3084  Q 1938 3084 1609 2770  Q 1281 2456 1184 1953  L 800 0  L 225 0  L 909 3500  L 1484 3500  L 1375 2956  Q 1609 3263 1923 3423  Q 2238 3584 2597 3584  Q 2978 3584 3223 3384  Q 3469 3184 3519 2828  Q 3781 3197 4126 3390  Q 4472 3584 4856 3584  Q 5306 3584 5551 3325  Q 5797 3066 5797 2591  Q 5797 2488 5784 2364  Q 5772 2241 5747 2113  z "
                 id="DejaVuSans-Oblique-6d"
                 transform="scale(0.015625)" />
            </defs>
            <use
               transform="translate(0 0.015625)"
               xlink:href="#DejaVuSans-Oblique-42"
               id="use302" />
            <use
               transform="translate(68.603516 -16.390625)scale(0.7)"
               xlink:href="#DejaVuSans-Oblique-6d"
               id="use304" />
            <use
               transform="translate(139.526367 0.015625)"
               xlink:href="#DejaVuSans-20"
               id="use306" />
            <use
               transform="translate(171.313477 0.015625)"
               xlink:href="#DejaVuSans-5b"
               id="use308" />
            <use
               transform="translate(210.327148 0.015625)"
               xlink:href="#DejaVuSans-6e"
               id="use310" />
            <use
               transform="translate(273.706055 0.015625)"
               xlink:href="#DejaVuSans-54"
               id="use312" />
            <use
               transform="translate(334.790039 0.015625)"
               xlink:href="#DejaVuSans-5d"
               id="use314" />
          </g>
        </g>
      </g>
      <g
         id="line2d_15">
        <path
           clip-path="url(#pc1a00ae640)"
           d="M 353.199429 53.142599  L 356.405224 55.447403  L 352.895572 60.263282  L 359.765367 59.350102  L 351.752854 71.813412  L 357.002187 66.622068  L 357.415085 70.233251  L 362.951971 57.266507  L 355.611601 63.467335  L 359.003067 69.664721  L 359.864204 67.067226  L 359.074804 62.468309  L 355.476382 60.548031  L 356.426215 57.793776  L 357.093241 56.880142  L 362.482585 50.567123  L 363.797912 55.762475  L 359.813952 60.870211  L 365.664286 63.065645  L 358.3298 65.783821  L 359.859719 62.323586  L 359.682057 62.905475  L 358.776384 61.886211  L 356.566471 69.976044  L 353.860806 77.687912  L 360.083569 58.427351  L 357.328557 68.624715  L 357.40327 58.584404  L 359.054325 57.061145  L 355.087953 58.750821  L 353.834761 62.211116  L 357.403723 63.188909  L 356.406979 65.713416  L 358.128352 64.674526  L 357.203299 73.978556  L 360.286822 81.59966  L 360.608996 82.722696  L 357.001875 74.604851  L 361.21339 60.793082  L 358.964888 64.572637  L 358.216413 63.055989  L 360.584267 53.32882  L 364.279811 55.824402  L 364.232824 56.472345  L 366.631442 55.139546  L 367.430215 57.384466  L 368.850851 50.613501  L 371.007354 44.443636  L 371.365332 48.559597  L 373.581818 53.028063  L 371.687962 52.581783  L 373.314789 50.702944  L 367.94947 56.659758  L 369.645082 58.545662  L 369.687279 58.762915  L 365.836412 66.392544  L 358.559376 70.445834  L 351.991591 82.128684  L 355.285128 84.404829  L 346.112169 102.177271  L 346.614251 100.76675  L 342.648939 102.02568  L 341.796371 116.323371  L 338.174994 123.378598  L 335.566261 127.895956  L 336.214032 116.370232  L 328.850583 120.983042  L 333.755459 127.865816  L 324.373162 140.248831  L 323.379732 143.608054  L 326.507992 140.242202  L 318.686989 139.911879  L 317.935237 144.077386  L 313.26046 146.894123  L 314.96713 151.375382  L 309.895043 148.330633  L 313.764203 160.160629  L 308.502719 160.708447  L 307.460944 165.670135  L 308.125948 166.170559  L 303.180076 161.024725  L 301.196125 173.342009  L 302.30286 177.796252  L 302.225445 173.068525  L 300.194823 183.746492  L 297.423119 184.068412  L 292.124354 190.519808  L 295.52252 197.718423  L 293.549115 206.968242  L 288.614542 208.574199  L 285.107923 207.551916  L 280.695345 213.286701  L 278.787064 214.524112  L 272.785774 207.351521  L 272.408955 226.590275  L 268.485453 223.20597  L 267.905222 230.512823  L 262.176229 230.448688  L 262.481541 225.78741  L 261.778653 234.512434  L 257.448433 232.309891  L 253.649128 236.727665  L 249.25676 228.273167  L 244.328076 242.116364  L 243.896408 242.04623  L 240.440104 229.231988  L 236.315339 234.127675  L 229.65072 231.394209  L 230.436112 232.609678  L 225.811345 229.508615  L 225.765034 234.715216  L 224.191955 231.172793  L 220.533446 227.426629  L 220.100234 220.806214  L 216.437661 220.229449  L 214.317016 221.213777  L 209.48441 213.405427  L 206.302759 210.244494  L 205.587612 214.056673  L 201.698223 208.059898  L 203.670405 206.616203  L 200.618414 210.803837  L 191.452684 198.333566  L 193.540556 202.701001  L 191.535826 200.803917  L 183.483584 191.550407  L 182.812737 202.491466  L 180.427044 206.99833  L 174.238486 189.416293  L 167.0701 199.05095  L 166.136196 183.343489  L 166.212274 186.222883  L 166.459543 190.884147  L 164.291751 184.145797  L 166.195056 178.72868  L 155.289011 182.89852  L 157.430045 182.374705  L 154.014264 175.016817  L 150.582422 171.900488  L 148.638832 172.64689  L 146.845647 163.501267  L 138.843086 164.483733  L 137.4918 162.001578  L 137.233856 158.468956  L 138.695747 158.62332  L 134.427964 155.143916  L 130.831162 151.587992  L 124.363352 146.452938  L 128.038003 144.667131  L 122.236648 149.123627  L 120.914911 146.076899  L 119.341677 137.510064  L 116.773391 130.840702  L 113.851105 128.943956  L 110.948825 122.069272  L 112.426392 125.987752  L 108.974101 128.324592  L 106.035021 123.223366  L 105.231883 114.448873  L 101.926831 119.253143  L 103.877109 120.124189  L 103.520885 110.801131  L 100.973983 117.778408  L 102.540813 111.509912  L 100.330887 117.92085  L 96.845542 124.95213  L 96.841865 117.72561  L 91.63783 107.28621  L 88.59481 113.097263  L 84.763211 106.95117  L 83.243027 103.472285  L 78.310597 101.620293  L 80.280813 100.731891  L 75.27794 89.656046  L 79.085493 85.885117  L 76.269909 86.184177  L 77.520764 84.72917  L 77.017371 92.563659  L 80.662677 101.142766  L 79.250772 97.698818  L 78.378014 92.244186  L 72.385157 85.020934  L 74.057071 88.653395  L 75.105626 97.825912  L 81.783795 93.142071  L 80.908011 80.776027  L 81.138967 83.696841  L 78.569189 85.525138  L 75.93769 74.319941  L 75.03338 68.607371  L 77.291616 75.416133  L 76.049691 67.804225  L 76.52839 62.472558  L 74.794156 65.669012  L 76.441814 60.615962  L 73.628307 69.92744  L 77.363574 62.480205  L 73.148915 70.699679  L 74.579687 61.401359  L 74.524656 55.306816  L 72.485457 64.410939  L 75.525276 68.281196  L 74.564385 68.116527  L 75.166948 72.492117  L 77.193932 70.395398  L 76.9331 71.170764  L 80.803987 69.364658  L 82.586578 69.597349  L 80.522218 66.278504  L 79.575823 67.884595  L 83.742785 64.29056  L 84.600762 68.682501  L 78.132541 77.726282  L 77.813298 64.510354  L 81.130854 77.398462  L 78.925038 58.638133  L 75.960544 70.89581  L 75.294552 63.147587  L 72.397484 56.827575  L 73.707982 63.872597  L 69.452573 53.034666  L 69.564752 53.278823  L 75.221956 64.873051  L 74.467156 62.0176  L 69.218182 72.973417  L 71.861824 65.185384  L 70.091021 69.741192  L 74.228386 83.61375  L 74.786675 91.597681  L 76.785387 81.31219  L 73.320077 78.293619  L 76.427453 69.095574  L 72.238701 67.078858  L 74.459952 74.848737  L 75.636904 76.599422  L 72.77047 68.901628  L 72.77047 68.901628  "
           style="fill:none;stroke:#1f77b4;stroke-linecap:square;stroke-width:1.5;"
           id="path320" />
      </g>
      <g
         id="line2d_16">
        <path
           clip-path="url(#pc1a00ae640)"
           d="M 348.797104 252  L 348.797104 34.56  "
           style="fill:none;stroke:#008000;stroke-dasharray:1.5,2.475;stroke-dashoffset:0;stroke-width:1.5;"
           id="path323" />
      </g>
      <g
         id="line2d_17">
        <path
           clip-path="url(#pc1a00ae640)"
           d="M 68.30011 252  L 68.30011 34.56  "
           style="fill:none;stroke:#008000;stroke-dasharray:1.5,2.475;stroke-dashoffset:0;stroke-width:1.5;"
           id="path326" />
      </g>
      <g
         id="line2d_18">
        <path
           clip-path="url(#pc1a00ae640)"
           d="M 54 65.654102  L 388.8 65.654102  "
           style="fill:none;stroke:#008000;stroke-dasharray:1.5,2.475;stroke-dashoffset:0;stroke-width:1.5;"
           id="path329" />
      </g>
      <g
         id="patch_4">
        <path
           d="M 54 252  L 54 34.56  "
           style="fill:none;stroke:#000000;stroke-linecap:square;stroke-linejoin:miter;stroke-width:0.8;"
           id="path332" />
      </g>
      <g
         id="patch_5">
        <path
           d="M 388.8 252  L 388.8 34.56  "
           style="fill:none;stroke:#000000;stroke-linecap:square;stroke-linejoin:miter;stroke-width:0.8;"
           id="path335" />
      </g>
      <g
         id="patch_6">
        <path
           d="M 54 252  L 388.8 252  "
           style="fill:none;stroke:#000000;stroke-linecap:square;stroke-linejoin:miter;stroke-width:0.8;"
           id="path338" />
      </g>
      <g
         id="patch_7">
        <path
           d="M 54 34.56  L 388.8 34.56  "
           style="fill:none;stroke:#000000;stroke-linecap:square;stroke-linejoin:miter;stroke-width:0.8;"
           id="path341" />
      </g>
      <g
         id="text_17">
        <!-- $B_{m,0}$ -->
        <g
           style="fill:#008000"
           transform="matrix(0.1,0,0,-0.1,391.05803,67.976131)"
           id="g355">
          <defs
             id="defs345">
            <path
               d="m 750,794 h 659 V 256 L 897,-744 H 494 L 750,256 Z"
               id="DejaVuSans-2c"
               transform="scale(0.015625)" />
          </defs>
          <use
             transform="translate(0,0.09375)"
             xlink:href="#DejaVuSans-Oblique-42"
             id="use347" />
          <use
             transform="matrix(0.7,0,0,0.7,68.603516,-16.3125)"
             xlink:href="#DejaVuSans-Oblique-6d"
             id="use349" />
          <use
             transform="matrix(0.7,0,0,0.7,136.79199,-16.3125)"
             xlink:href="#DejaVuSans-2c"
             id="use351" />
          <use
             transform="matrix(0.7,0,0,0.7,172.68066,-16.3125)"
             xlink:href="#DejaVuSans-30"
             id="use353" />
        </g>
      </g>
      <g
         id="text_18">
        <!-- $B_{l,max}$ -->
        <g
           style="fill:#008000"
           transform="matrix(0.1,0,0,-0.1,335.33341,30.823672)"
           id="g374">
          <defs
             id="defs360">
            <path
               d="M 3438,1997 3047,0 h -575 l 106,531 Q 2325,219 2001,64 1678,-91 1281,-91 834,-91 548,182 263,456 263,884 q 0,613 489,969 489,356 1348,356 h 800 l 31,154 q 7,25 10,54 3,30 3,92 0,279 -227,433 -226,155 -636,155 -281,0 -577,-72 -295,-72 -607,-216 l 100,532 q 325,122 636,182 311,61 601,61 619,0 942,-269 324,-268 324,-781 0,-103 -16,-242 -15,-139 -46,-295 z m -622,-238 h -575 q -707,0 -1046,-189 -339,-189 -339,-586 0,-275 173,-431 174,-156 480,-156 469,0 819,336 350,336 463,898 z"
               id="DejaVuSans-Oblique-61"
               transform="scale(0.015625)" />
            <path
               d="M 3841,3500 2234,1784 3219,0 H 2559 L 1819,1388 531,0 H -166 L 1556,1844 641,3500 h 659 l 672,-1266 1172,1266 z"
               id="DejaVuSans-Oblique-78"
               transform="scale(0.015625)" />
          </defs>
          <use
             transform="translate(0,0.09375)"
             xlink:href="#DejaVuSans-Oblique-42"
             id="use362" />
          <use
             transform="matrix(0.7,0,0,0.7,68.603516,-16.3125)"
             xlink:href="#DejaVuSans-Oblique-6c"
             id="use364" />
          <use
             transform="matrix(0.7,0,0,0.7,88.051758,-16.3125)"
             xlink:href="#DejaVuSans-2c"
             id="use366" />
          <use
             transform="matrix(0.7,0,0,0.7,123.94043,-16.3125)"
             xlink:href="#DejaVuSans-Oblique-6d"
             id="use368" />
          <use
             transform="matrix(0.7,0,0,0.7,192.12891,-16.3125)"
             xlink:href="#DejaVuSans-Oblique-61"
             id="use370" />
          <use
             transform="matrix(0.7,0,0,0.7,235.02441,-16.3125)"
             xlink:href="#DejaVuSans-Oblique-78"
             id="use372" />
        </g>
      </g>
      <g
         id="text_19"
         transform="translate(-13.003361,-33.794836)">
        <!-- $-B_{l,max}$ -->
        <g
           style="fill:#008000"
           transform="matrix(0.1,0,0,-0.1,68.30011,64.154102)"
           id="g391">
          <use
             transform="translate(0,0.09375)"
             xlink:href="#DejaVuSans-2212"
             id="use377" />
          <use
             transform="translate(83.789062,0.09375)"
             xlink:href="#DejaVuSans-Oblique-42"
             id="use379" />
          <use
             transform="matrix(0.7,0,0,0.7,152.39258,-16.3125)"
             xlink:href="#DejaVuSans-Oblique-6c"
             id="use381" />
          <use
             transform="matrix(0.7,0,0,0.7,171.84082,-16.3125)"
             xlink:href="#DejaVuSans-2c"
             id="use383" />
          <use
             transform="matrix(0.7,0,0,0.7,207.72949,-16.3125)"
             xlink:href="#DejaVuSans-Oblique-6d"
             id="use385" />
          <use
             transform="matrix(0.7,0,0,0.7,275.91797,-16.3125)"
             xlink:href="#DejaVuSans-Oblique-61"
             id="use387" />
          <use
             transform="matrix(0.7,0,0,0.7,318.81348,-16.3125)"
             xlink:href="#DejaVuSans-Oblique-78"
             id="use389" />
        </g>
      </g>
      <g
         id="legend_1"
         transform="translate(0,-93)">
        <g
           id="line2d_19">
          <path
             d="m 150.9,133.68937 h 20"
             style="fill:none;stroke:#1f77b4;stroke-width:1.5;stroke-linecap:square"
             id="path394" />
        </g>
        <g
           id="line2d_20" />
        <g
           id="text_20">
          <!-- Observation -->
          <g
             transform="matrix(0.1,0,0,-0.1,178.9,137.18937)"
             id="g432">
            <defs
               id="defs408">
              <path
                 d="m 2522,4238 q -688,0 -1093,-513 -404,-512 -404,-1397 0,-881 404,-1394 405,-512 1093,-512 687,0 1089,512 402,513 402,1394 0,885 -402,1397 -402,513 -1089,513 z m 0,512 q 981,0 1568,-658 588,-658 588,-1764 0,-1103 -588,-1761 -587,-658 -1568,-658 -984,0 -1574,656 -589,657 -589,1763 0,1106 589,1764 590,658 1574,658 z"
                 id="DejaVuSans-4f"
                 transform="scale(0.015625)" />
              <path
                 d="m 3116,1747 q 0,634 -261,995 -261,361 -717,361 -457,0 -718,-361 -261,-361 -261,-995 0,-634 261,-995 261,-361 718,-361 456,0 717,361 261,361 261,995 z M 1159,2969 q 182,312 458,463 277,152 661,152 638,0 1036,-506 399,-506 399,-1331 Q 3713,922 3314,415 2916,-91 2278,-91 1894,-91 1617,61 1341,213 1159,525 V 0 H 581 v 4863 h 578 z"
                 id="DejaVuSans-62"
                 transform="scale(0.015625)" />
              <path
                 d="m 2834,3397 v -544 q -243,125 -506,187 -262,63 -544,63 -428,0 -642,-131 -214,-131 -214,-394 0,-200 153,-314 153,-114 616,-217 l 197,-44 q 612,-131 870,-370 258,-239 258,-667 0,-488 -386,-773 Q 2250,-91 1575,-91 1294,-91 989,-36 684,19 347,128 v 594 q 319,-166 628,-249 309,-82 613,-82 406,0 624,139 219,139 219,392 0,234 -158,359 -157,125 -692,241 l -200,47 q -534,112 -772,345 -237,233 -237,639 0,494 350,762 350,269 994,269 318,0 599,-47 282,-46 519,-140 z"
                 id="DejaVuSans-73"
                 transform="scale(0.015625)" />
              <path
                 d="M 3597,1894 V 1613 H 953 q 38,-594 358,-905 320,-311 892,-311 331,0 642,81 311,81 618,244 V 178 Q 3153,47 2828,-22 2503,-91 2169,-91 1331,-91 842,396 353,884 353,1716 q 0,859 464,1363 464,505 1252,505 706,0 1117,-455 411,-454 411,-1235 z m -575,169 q -6,471 -264,752 -258,282 -683,282 -481,0 -770,-272 -289,-272 -333,-766 z"
                 id="DejaVuSans-65"
                 transform="scale(0.015625)" />
              <path
                 d="m 2631,2963 q -97,56 -211,82 -114,27 -251,27 -488,0 -749,-317 -261,-317 -261,-911 V 0 H 581 v 3500 h 578 v -544 q 182,319 472,473 291,155 707,155 59,0 131,-8 72,-7 159,-23 z"
                 id="DejaVuSans-72"
                 transform="scale(0.015625)" />
              <path
                 d="M 191,3500 H 800 L 1894,563 2988,3500 h 609 L 2284,0 h -781 z"
                 id="DejaVuSans-76"
                 transform="scale(0.015625)" />
              <path
                 d="m 2194,1759 q -697,0 -966,-159 -269,-159 -269,-544 0,-306 202,-486 202,-179 548,-179 479,0 768,339 289,339 289,901 v 128 z m 1147,238 V 0 H 2766 V 531 Q 2569,213 2275,61 1981,-91 1556,-91 q -537,0 -855,302 -317,302 -317,808 0,590 395,890 396,300 1180,300 h 807 v 57 q 0,397 -261,614 -261,217 -733,217 -300,0 -585,-72 -284,-72 -546,-216 v 532 q 315,122 612,182 297,61 578,61 760,0 1135,-394 375,-393 375,-1193 z"
                 id="DejaVuSans-61"
                 transform="scale(0.015625)" />
              <path
                 d="M 1172,4494 V 3500 H 2356 V 3053 H 1172 V 1153 q 0,-428 117,-550 117,-122 477,-122 h 590 V 0 H 1766 Q 1100,0 847,248 594,497 594,1153 V 3053 H 172 v 447 h 422 v 994 z"
                 id="DejaVuSans-74"
                 transform="scale(0.015625)" />
              <path
                 d="m 603,3500 h 575 V 0 H 603 Z m 0,1363 h 575 V 4134 H 603 Z"
                 id="DejaVuSans-69"
                 transform="scale(0.015625)" />
              <path
                 d="m 1959,3097 q -462,0 -731,-361 -269,-361 -269,-989 0,-628 267,-989 268,-361 733,-361 460,0 728,362 269,363 269,988 0,622 -269,986 -268,364 -728,364 z m 0,487 q 750,0 1178,-488 429,-487 429,-1349 Q 3566,888 3137,398 2709,-91 1959,-91 1206,-91 779,398 353,888 353,1747 q 0,862 426,1349 427,488 1180,488 z"
                 id="DejaVuSans-6f"
                 transform="scale(0.015625)" />
            </defs>
            <use
               xlink:href="#DejaVuSans-4f"
               id="use410" />
            <use
               x="78.710938"
               xlink:href="#DejaVuSans-62"
               id="use412" />
            <use
               x="142.1875"
               xlink:href="#DejaVuSans-73"
               id="use414" />
            <use
               x="194.28711"
               xlink:href="#DejaVuSans-65"
               id="use416" />
            <use
               x="255.81055"
               xlink:href="#DejaVuSans-72"
               id="use418" />
            <use
               x="296.92383"
               xlink:href="#DejaVuSans-76"
               id="use420" />
            <use
               x="356.10352"
               xlink:href="#DejaVuSans-61"
               id="use422" />
            <use
               x="417.38281"
               xlink:href="#DejaVuSans-74"
               id="use424" />
            <use
               x="456.5918"
               xlink:href="#DejaVuSans-69"
               id="use426" />
            <use
               x="484.375"
               xlink:href="#DejaVuSans-6f"
               id="use428" />
            <use
               x="545.55664"
               xlink:href="#DejaVuSans-6e"
               id="use430" />
          </g>
        </g>
        <g
           id="patch_8">
          <path
             d="m 150.9,153.36906 h 20 v -7 h -20 z"
             style="fill:none;stroke:#ff0000;stroke-linejoin:miter;stroke-dasharray:3.7, 1.6;stroke-dashoffset:0"
             id="path435" />
        </g>
        <g
           id="text_21">
          <!-- $B_m^2+B_l^2=B_{l,max}^2+B_{m,0}^2$ -->
          <g
             transform="matrix(0.1,0,0,-0.1,178.9,153.36906)"
             id="g484">
            <defs
               id="defs440">
              <path
                 d="M 2944,4013 V 2272 H 4684 V 1741 H 2944 V 0 H 2419 V 1741 H 678 v 531 h 1741 v 1741 z"
                 id="DejaVuSans-2b"
                 transform="scale(0.015625)" />
              <path
                 d="M 678,2906 H 4684 V 2381 H 678 Z m 0,-1275 H 4684 V 1100 H 678 Z"
                 id="DejaVuSans-3d"
                 transform="scale(0.015625)" />
            </defs>
            <use
               transform="translate(0,0.701562)"
               xlink:href="#DejaVuSans-Oblique-42"
               id="use442" />
            <use
               transform="matrix(0.7,0,0,0.7,75.620286,38.982812)"
               xlink:href="#DejaVuSans-32"
               id="use444" />
            <use
               transform="matrix(0.7,0,0,0.7,68.603516,-26.642188)"
               xlink:href="#DejaVuSans-Oblique-6d"
               id="use446" />
            <use
               transform="translate(159.00879,0.701562)"
               xlink:href="#DejaVuSans-2b"
               id="use448" />
            <use
               transform="translate(262.28027,0.701562)"
               xlink:href="#DejaVuSans-Oblique-42"
               id="use450" />
            <use
               transform="matrix(0.7,0,0,0.7,337.90056,39.046875)"
               xlink:href="#DejaVuSans-32"
               id="use452" />
            <use
               transform="matrix(0.7,0,0,0.7,330.88379,-26.642188)"
               xlink:href="#DejaVuSans-Oblique-6c"
               id="use454" />
            <use
               transform="translate(404.65349,0.701562)"
               xlink:href="#DejaVuSans-3d"
               id="use456" />
            <use
               transform="translate(507.92497,0.701562)"
               xlink:href="#DejaVuSans-Oblique-42"
               id="use458" />
            <use
               transform="matrix(0.7,0,0,0.7,583.54526,39.046875)"
               xlink:href="#DejaVuSans-32"
               id="use460" />
            <use
               transform="matrix(0.7,0,0,0.7,576.52849,-26.642188)"
               xlink:href="#DejaVuSans-Oblique-6c"
               id="use462" />
            <use
               transform="matrix(0.7,0,0,0.7,595.97673,-26.642188)"
               xlink:href="#DejaVuSans-2c"
               id="use464" />
            <use
               transform="matrix(0.7,0,0,0.7,631.8654,-26.642188)"
               xlink:href="#DejaVuSans-Oblique-6d"
               id="use466" />
            <use
               transform="matrix(0.7,0,0,0.7,700.05388,-26.642188)"
               xlink:href="#DejaVuSans-Oblique-61"
               id="use468" />
            <use
               transform="matrix(0.7,0,0,0.7,742.94939,-26.642188)"
               xlink:href="#DejaVuSans-Oblique-78"
               id="use470" />
            <use
               transform="translate(806.59197,0.701562)"
               xlink:href="#DejaVuSans-2b"
               id="use472" />
            <use
               transform="translate(909.86345,0.701562)"
               xlink:href="#DejaVuSans-Oblique-42"
               id="use474" />
            <use
               transform="matrix(0.7,0,0,0.7,985.48374,38.982812)"
               xlink:href="#DejaVuSans-32"
               id="use476" />
            <use
               transform="matrix(0.7,0,0,0.7,978.46697,-26.642188)"
               xlink:href="#DejaVuSans-Oblique-6d"
               id="use478" />
            <use
               transform="matrix(0.7,0,0,0.7,1046.6554,-26.642188)"
               xlink:href="#DejaVuSans-2c"
               id="use480" />
            <use
               transform="matrix(0.7,0,0,0.7,1082.5441,-26.642188)"
               xlink:href="#DejaVuSans-30"
               id="use482" />
          </g>
        </g>
      </g>
    </g>
  </g>
  <defs
     id="defs493">
    <clipPath
       id="pc1a00ae640">
      <rect
         height="217.44"
         width="334.8"
         x="54"
         y="34.56"
         id="rect490" />
    </clipPath>
  </defs>
</svg>
