<?xml version="1.0" encoding="utf-8"?>
<!-- Generator: Adobe Illustrator 27.5.0, SVG Export Plug-In . SVG Version: 6.00 Build 0)  -->
<svg version="1.1" id="Layer_1" xmlns="http://www.w3.org/2000/svg" xmlns:xlink="http://www.w3.org/1999/xlink" x="0px" y="0px"
	 viewBox="0 0 864 360" style="enable-background:new 0 0 864 360;" xml:space="preserve">
<style type="text/css">
	.st0{fill:none;}
	.st1{fill:#FFFFFF;}
	.st2{stroke:#000000;stroke-width:2;stroke-linejoin:round;}
	.st3{font-family:'ArialMT';}
	.st4{font-size:12px;}
	
		.st5{clip-path:url(#SVGID_00000085209428073184761580000003325740371286934162_);fill:none;stroke:#0000FF;stroke-width:2;stroke-linecap:square;stroke-linejoin:round;}
	
		.st6{clip-path:url(#SVGID_00000047040280885728741510000005938654816469186692_);fill:none;stroke:#008000;stroke-width:2;stroke-linecap:square;stroke-linejoin:round;}
	
		.st7{clip-path:url(#SVGID_00000054971483786633489500000005795373170792551606_);fill:none;stroke:#FF0000;stroke-width:2;stroke-linecap:square;stroke-linejoin:round;}
	.st8{fill:none;stroke:#000000;stroke-width:2;stroke-linecap:square;}
	.st9{opacity:0.8;fill:#FFFFFF;stroke:#CCCCCC;stroke-width:2;enable-background:new    ;}
	.st10{font-size:10px;}
	.st11{fill:none;stroke:#0000FF;stroke-width:2;stroke-linecap:square;stroke-linejoin:round;}
	.st12{fill:none;stroke:#008000;stroke-width:2;stroke-linecap:square;stroke-linejoin:round;}
	.st13{fill:none;stroke:#FF0000;stroke-width:2;stroke-linecap:square;stroke-linejoin:round;}
	
		.st14{clip-path:url(#SVGID_00000075126911680607965080000002147591235235409309_);fill:none;stroke:#0000FF;stroke-width:2;stroke-linecap:square;stroke-linejoin:round;}
	
		.st15{clip-path:url(#SVGID_00000132791441321049486140000007376643614976226433_);fill:none;stroke:#008000;stroke-width:2;stroke-linecap:square;stroke-linejoin:round;}
	
		.st16{clip-path:url(#SVGID_00000005256041858364186260000016524013195589045944_);fill:none;stroke:#FF0000;stroke-width:2;stroke-linecap:square;stroke-linejoin:round;}
	
		.st17{clip-path:url(#SVGID_00000072999747371047691900000014718497237857878707_);fill:none;stroke:#000000;stroke-width:2;stroke-linecap:square;stroke-linejoin:round;}
	.st18{fill:none;stroke:#000000;stroke-width:2;stroke-linecap:square;stroke-linejoin:round;}
</style>
<g id="figure_1">
	<g id="patch_1">
		<path class="st0" d="M-6.5,351.3h864v-360h-864V351.3z"/>
	</g>
	<g id="axes_1">
		<g id="patch_2">
			<path class="st1" d="M79.9,161.4h734.4v-127H79.9V161.4z"/>
		</g>
		<g id="matplotlib.axis_1">
			<g id="xtick_1">
				<g id="line2d_1">
					<g>
						<g>
							<path id="ma6fdd083c1" class="st2" d="M112,161.4v3.5"/>
						</g>
					</g>
				</g>
			</g>
			<g id="xtick_2">
				<g id="line2d_2">
					<g>
						<g>
							<path id="ma6fdd083c1_00000098200660474731788990000015212711133500677265_" class="st2" d="M335.5,161.4v3.5"/>
						</g>
					</g>
				</g>
			</g>
			<g id="xtick_3">
				<g id="line2d_3">
					<g>
						<g>
							<path id="ma6fdd083c1_00000025407800287546995030000016882945201866828949_" class="st2" d="M559,161.4v3.5"/>
						</g>
					</g>
				</g>
			</g>
			<g id="xtick_4">
				<g id="line2d_4">
					<g>
						<g>
							<path id="ma6fdd083c1_00000153677802252496502960000007967137484498920596_" class="st2" d="M782.4,161.4v3.5"/>
						</g>
					</g>
				</g>
			</g>
		</g>
		<g id="matplotlib.axis_2">
			<g id="ytick_1">
				<g id="line2d_5">
					<g>
						<g>
							<path id="m93d3b64627" class="st2" d="M79.9,143.6h-3.5"/>
						</g>
					</g>
				</g>
				<g id="text_1">
					<text transform="matrix(1 0 0 1 59.2347 148.1251)" class="st3 st4">−2</text>
				</g>
			</g>
			<g id="ytick_2">
				<g id="line2d_6">
					<g>
						<g>
							<path id="m93d3b64627_00000093884932632799266850000004224222793501597073_" class="st2" d="M79.9,105.8h-3.5"/>
						</g>
					</g>
				</g>
				<g id="text_2">
					<text transform="matrix(1 0 0 1 66.2426 110.3322)" class="st3 st4">0</text>
				</g>
			</g>
			<g id="ytick_3">
				<g id="line2d_7">
					<g>
						<g>
							<path id="m93d3b64627_00000086676521995334848800000009192665517591069830_" class="st2" d="M79.9,68h-3.5"/>
						</g>
					</g>
				</g>
				<g id="text_3">
					<text transform="matrix(1 0 0 1 66.2426 72.5393)" class="st3 st4">2</text>
				</g>
			</g>
			<g id="text_4">
				<text transform="matrix(6.123234e-17 -1 1 6.123234e-17 35.2927 123.6455)" class="st3 st4">THC FGL</text>
				<text transform="matrix(6.123234e-17 -1 1 6.123234e-17 48.7301 125.6201)" class="st3 st4">[nT GSM]</text>
			</g>
		</g>
		<g id="line2d_8">
			<g>
				<g>
					<defs>
						<rect id="SVGID_1_" x="79.9" y="34.5" width="734.4" height="127"/>
					</defs>
					<clipPath id="SVGID_00000038415222987054578740000011732304003390317744_">
						<use xlink:href="#SVGID_1_"  style="overflow:visible;"/>
					</clipPath>
					
						<path style="clip-path:url(#SVGID_00000038415222987054578740000011732304003390317744_);fill:none;stroke:#0000FF;stroke-width:2;stroke-linecap:square;stroke-linejoin:round;" d="
						M113.3,54.8l2.8-1.1l2.8-0.1l5.6-1.4l2.8-0.1l2.8-0.5l2.8,1.2l2.8,0.3l2.8-1.4l5.6,1.2l2.8,0.8l2.8,0.3h2.8l2.8,0.1l2.8,0.4
						l2.8-0.9l2.8-0.2l2.8-1.1l2.8,0.7l2.8,0.6l2.8-0.1l2.8,0.5l2.8-1l2.8-0.8l2.8,2.1l2.8-1.1l2.8,1.4h2.8l2.8,0.1l5.6-1.4l5.6-0.6
						l2.8-1l2.8-1.5l2.8-0.4l5.6,3.4l2.8-0.1l2.8,0.5l2.8,0.9l2.8-1l2.8-0.3l2.8,0.1l2.8-0.4l2.8,0.6l2.8,0.9l5.6-1.7l2.8,0.2
						l2.8,0.1l2.8-0.3l2.8-0.4l2.8-0.2l2.8-0.6l2.8,0.3l2.8,0.1l2.8-0.6l2.8-0.9l2.8-1.4l5.6,0.5l2.8-1.9l2.8-0.6l2.8-0.3l2.8,1.6
						l2.8,0.3l2.8-1.8l2.8-0.6l2.8-0.4l2.8,0.2l2.8,0.9l2.8-0.3l2.8,0.1l2.8-0.8l2.8,1l2.8-2.1l2.8,0.6l2.8-0.6l2.8-0.4l2.8,1.6
						l2.8-1.5l2.8-0.8l2.8,0.8l2.8-1.4l2.8,0.4l2.8-0.5l2.8-1.3l2.8-0.9l2.8,0.3l2.8,0.4l2.8-0.3l2.8,0.2l2.8,1.6l2.8-2.7l2.8,1.1
						l2.8-1.4l2.8,1.1l2.8,0.7l2.8-1.3l2.8,0.8l2.8-0.2l2.8,1.9l2.8-1.6l2.8,0.1l2.8,2.4l2.8-0.3l2.8,1.1l2.8-0.1l2.8,0.9l2.8-0.6
						l2.8,0.7l5.6,2l2.8,0.5l2.8,0.1l2.8,1.5l2.8,1l2.8-0.6l2.8,1.5h2.8l2.8-0.2l2.8,2.9l2.8-0.8l2.8,0.4l2.8,2.4l2.8-1.3l2.8-0.6
						l2.8,3.4l2.8-0.5l2.8,2.3l2.8-0.3l2.8-0.8l2.8,1.3l2.8,0.3l2.8,0.8h2.8l2.8,1.5l2.8,0.9l2.8,0.1l2.8,1.6l5.6,1.3l2.8,0.5
						l2.8-0.2l5.6,2.1l2.8,1.6l2.8-0.2h2.8l2.8,0.7l5.6,2.9l2.8,0.4l2.8,1.4l2.8-0.8l2.8,0.1l2.8,1.1l2.8,1.3l2.8-0.2l2.8-0.4
						l2.8,1.4l2.8-0.5l2.8,0.5l2.8-0.5l2.8-0.8l2.8,1l2.8,2.3l2.8-0.5l2.8,1.3l5.6,1.6l2.8-0.1l2.8,2.2h2.8l2.8,0.3l2.8,0.1l2.8-1.1
						l2.8-1.5l2.8,0.6l2.8,0.9l2.8,1.9l2.8-0.8l2.8-1.6h2.8l2.8,2.1l2.8-0.4l2.8,0.3l2.8,2.1l2.8,1.1l2.8-1.5l2.8,1.3l2.8,0.7
						l2.8-0.2l2.8,0.5l2.8-1.1l2.8,0.7l2.8-0.5l2.8,1l2.8,1.2l5.6-2.3l2.8,0.3L686,88l5.6-0.2l5.6-0.3l2.8,0.7l2.8-0.1h2.8l5.6-1.2
						l2.8-0.3l2.8,1.9l2.8-2.3l2.8,3l2.8-1.5l2.8,1.1l2.8,0.4l2.8,0.8l2.8-1.3l2.8,2.2L742,91l2.8-2.5l2.8,0.5l2.8-1.1l2.8,0.9
						l2.8-0.5l2.8-2.6l2.8-0.8l5.6,2.2l2.8,1.1l2.8,0.9l2.8-1.2l2.8-0.4l2.8,1.5l0,0"/>
				</g>
			</g>
		</g>
		<g id="line2d_9">
			<g>
				<g>
					<defs>
						<rect id="SVGID_00000104706341412451693340000004414517323450037668_" x="79.9" y="34.5" width="734.4" height="127"/>
					</defs>
					<clipPath id="SVGID_00000163775055359185426330000007047049444220620711_">
						<use xlink:href="#SVGID_00000104706341412451693340000004414517323450037668_"  style="overflow:visible;"/>
					</clipPath>
					
						<path style="clip-path:url(#SVGID_00000163775055359185426330000007047049444220620711_);fill:none;stroke:#008000;stroke-width:2;stroke-linecap:square;stroke-linejoin:round;" d="
						M113.3,80.8l2.8,1.4l2.8-0.1l2.8-1.9l2.8,1.6l2.8-0.3l2.8-0.6l2.8-1.7l2.8,0.5l2.8-0.1l2.8-1.7l2.8,0.9l2.8,0.5l2.8-0.8
						l2.8,0.7l2.8-0.6l2.8-2l2.8-0.5l2.8,0.6l2.8-0.9l2.8,0.5l2.8-1.6l2.8,0.3l2.8-1l5.6,1.8l2.8-1.9l2.8,0.5l2.8,0.2l2.8-0.2
						l2.8,1.4l2.8,1.9l2.8-0.2l5.6,1.2l5.6-1.2l2.8,1l2.8,0.4l2.8-2.1l2.8-0.5l2.8-0.7l2.8,0.6l2.8,0.1l2.8,1.1L239,76l2.8-0.1
						l2.8,0.5l2.8-1.7l2.8,1l2.8-0.5l2.8,0.8l2.8-0.3l2.8,1.7l2.8-0.7l2.8,0.7l2.8,1.1l2.8-1.4l2.8,2.8l2.8,0.5l2.8-0.1l2.8,1.9
						l2.8-0.7l2.8,1l2.8,0.2l2.8,0.8l2.8,0.5l2.8-0.2l2.8,1.4l2.8-0.2l2.8,2l2.8,0.3l2.8-1.3l2.8,2.2l2.8-0.8l2.8,1.7l2.8-0.5
						l2.8,1.3l2.8-1.1l2.8,0.8l2.8,0.3l2.8,1.2l2.8-0.2l2.8,0.5l2.8-0.2l2.8-0.4l2.8,1.2l2.8-0.1l2.8,2.3l2.8-1.6l2.8-0.3l5.6,3
						l2.8,0.9l2.8-0.2l2.8,1.9l5.6,0.4l2.8,2.1l2.8-0.4l2.8-0.2l2.8,0.8l5.6,2.1l2.8,0.3l2.8,2.3l2.8-0.3l2.8-0.1l2.8,1.3l2.8,2.2
						l2.8-0.8l2.8,1.5l2.8-0.5l2.8,0.3l2.8,0.7l2.8-0.1l2.8,1.1l2.8,0.3l2.8,1.9l2.8-0.1l2.8,1l2.8-0.1l2.8-0.4l2.8,0.7l2.8,2.2
						l2.8-1l2.8,1l2.8,1.2l2.8-0.8l2.8,2l2.8,0.6l2.8,1.9l2.8,0.2l2.8-0.4l5.6,0.6l2.8,0.6l2.8,2.3l2.8-1.2l8.4,1.8l2.8,0.1l2.8,2.6
						h5.6l2.8-0.2l2.8,0.6l2.8,0.4l2.8,1.2l2.8-0.9l2.8,1.7l2.8-0.2l2.8,0.4l2.8-0.4l2.8,1.7l5.6,0.1l5.6,1.3l2.8,0.2l2.8,0.5
						l8.4-0.6l2.8,0.7l2.8-0.2l2.8,1.9l2.8-0.1l2.8,0.3l2.8,1l2.8,1.3l2.8-0.3l2.8,1.5l2.8-0.4l2.8,1.2l2.8-0.4l2.8,0.6l2.8-0.6
						l2.8,0.5l2.8-1.5l2.8,0.8l2.8-0.1l2.8,0.6l2.8-0.1l2.8,0.7l2.8-2.1l2.8-0.8l2.8-0.3l5.6-1.2l2.8-0.9l2.8,0.6h2.8l2.8,0.1
						l2.8,0.3l2.8-0.2l2.8,1.3l2.8-1.2l5.6,1l2.8-1.4l2.8,0.8l2.8,0.4l2.8-0.7l2.8-1l2.8,0.2l2.8,0.5l5.6-2.2l5.6,0.7l2.8-1.1
						l2.8-0.7l2.8,2.2l2.8,1.1l2.8,0.2l2.8-0.6l2.8,0.3l2.8,1.1l2.8,0.4l2.8-0.5l2.8,1.2l2.8,0.6l2.8,0.3l5.6-1h2.8l2.8,2l2.8-1.2
						l2.8,0.7l2.8-0.5l2.8-1.9l5.6-0.1l2.8-1.4l2.8,0.4l2.8-1.4l2.8-0.5l2.8,0.3l0,0"/>
				</g>
			</g>
		</g>
		<g id="line2d_10">
			<g>
				<g>
					<defs>
						<rect id="SVGID_00000008843797267242603000000017390144016055922051_" x="79.9" y="34.5" width="734.4" height="127"/>
					</defs>
					<clipPath id="SVGID_00000031188568369884080650000006775337462057049533_">
						<use xlink:href="#SVGID_00000008843797267242603000000017390144016055922051_"  style="overflow:visible;"/>
					</clipPath>
					
						<path style="clip-path:url(#SVGID_00000031188568369884080650000006775337462057049533_);fill:none;stroke:#FF0000;stroke-width:2;stroke-linecap:square;stroke-linejoin:round;" d="
						M113.3,85.1l2.8-2.2l2.8,1.8l2.8-1.3l2.8,2.9l2.8-2.3l2.8,0.6l2.8-1.8l2.8,3l2.8-0.8l2.8,0.8L144,85l2.8,0.9l2.8,0.3l2.8-0.8
						l2.8,0.1l2.8-1l2.8,0.3l2.8,1.5l2.8-1.5l2.8,2.7l2.8,0.4l2.8-0.1l2.8,1l2.8,0.7l2.8,1L186,88l2.8,1.5l2.8-0.9l2.8-0.6l2.8,0.6
						l2.8-0.7l2.8-1.2l2.8,0.1l2.8-1.2l2.8,1.6L214,87l2.8-0.9l2.8,0.5l2.8-1l2.8,1.6l2.8,0.7l2.8-2.2l2.8-1.3l2.8-0.8l2.8,0.1h2.8
						l2.8-1.4h2.8l2.8-0.6l2.8-0.1l2.8,0.1l2.8-0.6l2.8,1.3l2.8,0.1l2.8-0.6L270,83l2.8,1.3l2.8,1l2.8,3.1l2.8-1l2.8,3.5l2.8,0.2
						l2.8,0.9l5.6,2.6l2.8,1l2.8-0.9l2.8,2.2l2.8-1.3l2.8,3.1l2.8,0.4l2.8-0.5l5.6,2.5l2.8,0.8l2.8,0.1l2.8,0.8l2.8,0.3l2.8,1.5
						l2.8,0.5l2.8-1.1l2.8,1.7l2.8,1.4l5.6,0.1l2.8,0.7l2.8,1.2l2.8,0.8l2.8,0.4l2.8,1.8l2.8,0.9l2.8,0.1l2.8,1.5l2.8,1l2.8,0.3
						l2.8,1.5l2.8,1.1l2.8-0.8l2.8,2.6l2.8-0.3l2.8,0.3l2.8,0.8l5.6,1.9l2.8,1.2l5.6,0.9l2.8,1l2.8,0.7l5.6,0.8l2.8,0.8l2.8,0.1
						l2.8,0.6l2.8-0.2l2.8,0.5l2.8,0.6l2.8-0.2l2.8,1.1l2.8-0.2l2.8,1.2l2.8-0.5l5.6,2l2.8,0.3l2.8-0.1l2.8,1.5l2.8,1.7l2.8-0.3
						l2.8,0.7l2.8,2.1l2.8-1l2.8,0.5h2.8l2.8,0.2l2.8-1.7l2.8,2.9h2.8l2.8,0.4l2.8,0.7l2.8,0.3h2.8l2.8,1.2l2.8,0.4l2.8-0.2l2.8-0.4
						l2.8,0.9l2.8,0.8l2.8,1.2l2.8-0.9l2.8,1.3l2.8,0.4l2.8-0.3l2.8,0.9l2.8-0.3l2.8,0.6l2.8-0.3l2.8,1l2.8,0.2l2.8-0.5l2.8,1.3
						l2.8-0.6l2.8-0.3l2.8,1.7l2.8-1.6l2.8,1.5l2.8,0.5l2.8-0.5l2.8,1l2.8,0.9h2.8l5.6,1.2l2.8-0.5l2.8,0.2l2.8-1.5l2.8,0.7l2.8-0.1
						l5.6,0.8l2.8-0.4h2.8l2.8,1.4l5.6-0.5l2.8-1.4l2.8,0.1l2.8,0.3l2.8,1.6l5.6,1.3l2.8-0.9l2.8-0.1l2.8-0.7l2.8,0.7l2.8-0.9
						l2.8,0.8l2.8-1.1l2.8,1.9l2.8-1.7l2.8,0.7l2.8,0.8l2.8-1.3l5.6,1.8l2.8-1.1l2.8-0.3l2.8-0.8l2.8,0.1l5.6,0.5l2.8-1.1l2.8,0.5
						l2.8,0.7l2.8-0.1l2.8-1.1l2.8,0.1l2.8-0.8l2.8,1.2l2.8-0.6l2.8,0.5l5.6-0.9l2.8,0.6l2.8,0.4l2.8-1l2.8,0.1l2.8,1.4l2.8-0.7
						l2.8,0.5l2.8-0.2l2.8,1.9l2.8-1.5l2.8,1.2l2.8-0.9l2.8,1.2l2.8,0.8h2.8l2.8,0.3l0,0"/>
				</g>
			</g>
		</g>
		<g id="patch_3">
			<path class="st8" d="M79.9,161.4v-127"/>
		</g>
		<g id="patch_4">
			<path class="st8" d="M814.3,161.4v-127"/>
		</g>
		<g id="patch_5">
			<path class="st8" d="M79.9,161.4h734.4"/>
		</g>
		<g id="patch_6">
			<path class="st8" d="M79.9,34.5h734.4"/>
		</g>
		<g id="legend_1">
			<g id="patch_7">
				<path class="st9" d="M736.6,86.5h70.7c1.3,0,2-0.7,2-2v-43c0-1.3-0.7-2-2-2h-70.7c-1.3,0-2,0.7-2,2v43
					C734.6,85.8,735.3,86.5,736.6,86.5z"/>
			</g>
			<g id="text_5">
				<text transform="matrix(1 0 0 1 738.6335 51.0496)" class="st3 st10">Bx GSM</text>
			</g>
			<g id="line2d_11">
				<path class="st11" d="M785.3,47.5h20"/>
			</g>
			<g id="line2d_12">
			</g>
			<g id="text_6">
				<text transform="matrix(1 0 0 1 738.6335 65.7277)" class="st3 st10">By GSM</text>
			</g>
			<g id="line2d_13">
				<path class="st12" d="M785.3,62.2h20"/>
			</g>
			<g id="line2d_14">
			</g>
			<g id="text_7">
				<text transform="matrix(1 0 0 1 739.3037 80.4058)" class="st3 st10">Bz GSM</text>
			</g>
			<g id="line2d_15">
				<path class="st13" d="M785.3,76.9h20"/>
			</g>
			<g id="line2d_16">
			</g>
		</g>
	</g>
	<g id="axes_2">
		<g id="patch_8">
			<path class="st1" d="M80.9,297.3h734.4v-127H80.9V297.3z"/>
		</g>
		<g id="axes_3">
			<g id="patch_9">
				<path class="st1" d="M80.9,322.6h734.4l0,0H80.9z"/>
			</g>
			<g id="matplotlib.axis_3">
				<g id="xtick_5">
					<g id="line2d_17">
						<g>
							<g>
								<path id="ma6fdd083c1_00000088094137406591302110000001463057375744008842_" class="st2" d="M113,322.6v3.5"/>
							</g>
						</g>
					</g>
					<g id="text_8">
						<text transform="matrix(1 0 0 1 93.2656 337.2408)" class="st3 st10">-2537.19</text>
					</g>
				</g>
				<g id="xtick_6">
					<g id="line2d_18">
						<g>
							<g>
								<path id="ma6fdd083c1_00000084489981406682767990000010520726744580980915_" class="st2" d="M336.5,322.6v3.5"/>
							</g>
						</g>
					</g>
					<g id="text_9">
						<text transform="matrix(1 0 0 1 319.5231 337.2408)" class="st3 st10">-823.19</text>
					</g>
				</g>
				<g id="xtick_7">
					<g id="line2d_19">
						<g>
							<g>
								<path id="ma6fdd083c1_00000108286641100521073310000013985383423530146747_" class="st2" d="M560,322.6v3.5"/>
							</g>
						</g>
					</g>
					<g id="text_10">
						<text transform="matrix(1 0 0 1 544.6647 337.2408)" class="st3 st10">889.27</text>
					</g>
				</g>
				<g id="xtick_8">
					<g id="line2d_20">
						<g>
							<g>
								<path id="ma6fdd083c1_00000057148898401599007950000002198745511344888484_" class="st2" d="M783.4,322.6v3.5"/>
							</g>
						</g>
					</g>
					<g id="text_11">
						<text transform="matrix(1 0 0 1 765.3606 337.2408)" class="st3 st10">2602.27</text>
					</g>
				</g>
				<g id="text_12">
					<text transform="matrix(1 0 0 1 429.4933 350.9189)" class="st3 st10">Distance [km]</text>
				</g>
			</g>
			<g id="matplotlib.axis_4">
			</g>
			<g id="patch_10">
				<path class="st8" d="M80.9,322.6h734.4"/>
			</g>
		</g>
		<g id="matplotlib.axis_5">
			<g id="xtick_9">
				<g id="line2d_21">
					<g>
						<g>
							<path id="ma6fdd083c1_00000067223791800637582110000012216074702670484373_" class="st2" d="M111.7,297.3v3.5"/>
						</g>
					</g>
				</g>
				<g id="text_13">
					<text transform="matrix(1 0 0 1 105.0112 313.4024)" class="st3 st4">40</text>
				</g>
			</g>
			<g id="xtick_10">
				<g id="line2d_22">
					<g>
						<g>
							<path id="ma6fdd083c1_00000160904496615190466490000012761296205894074801_" class="st2" d="M335.2,297.3v3.5"/>
						</g>
					</g>
				</g>
				<g id="text_14">
					<text transform="matrix(1 0 0 1 328.4879 313.4024)" class="st3 st4">45</text>
				</g>
			</g>
			<g id="xtick_11">
				<g id="line2d_23">
					<g>
						<g>
							<path id="ma6fdd083c1_00000083786201261814299580000005113467416268140215_" class="st2" d="M558.6,297.3v3.5"/>
						</g>
					</g>
				</g>
				<g id="text_15">
					<text transform="matrix(1 0 0 1 551.9645 313.4024)" class="st3 st4">50</text>
				</g>
			</g>
			<g id="xtick_12">
				<g id="line2d_24">
					<g>
						<g>
							<path id="ma6fdd083c1_00000080907167188733514550000015072519985859399045_" class="st2" d="M782.1,297.3v3.5"/>
						</g>
					</g>
				</g>
				<g id="text_16">
					<text transform="matrix(1 0 0 1 775.4412 313.4024)" class="st3 st4">55</text>
				</g>
			</g>
			<g id="text_17">
				<text transform="matrix(1 0 0 1 12.8188 312.8553)" class="st3 st10">2021-Apr-03 04:57</text>
			</g>
		</g>
		<g id="matplotlib.axis_6">
			<g id="ytick_4">
				<g id="line2d_25">
					<g>
						<g>
							<path id="m93d3b64627_00000152959256538769127060000018192614657050693522_" class="st2" d="M80.9,267.3h-3.5"/>
						</g>
					</g>
				</g>
				<g id="text_18">
					<text transform="matrix(1 0 0 1 60.2347 271.8435)" class="st3 st4">−2</text>
				</g>
			</g>
			<g id="ytick_5">
				<g id="line2d_26">
					<g>
						<g>
							<path id="m93d3b64627_00000109005776703513771910000000171086990699348373_" class="st2" d="M80.9,234.3h-3.5"/>
						</g>
					</g>
				</g>
				<g id="text_19">
					<text transform="matrix(1 0 0 1 67.2426 238.8978)" class="st3 st4">0</text>
				</g>
			</g>
			<g id="ytick_6">
				<g id="line2d_27">
					<g>
						<g>
							<path id="m93d3b64627_00000024000009758134942210000016656107532835915150_" class="st2" d="M80.9,201.4h-3.5"/>
						</g>
					</g>
				</g>
				<g id="text_20">
					<text transform="matrix(1 0 0 1 67.2426 205.9521)" class="st3 st4">2</text>
				</g>
			</g>
			<g id="text_21">
				<text transform="matrix(6.123234e-17 -1 1 6.123234e-17 36.2927 259.4893)" class="st3 st4">THC FGL</text>
				<text transform="matrix(6.123234e-17 -1 1 6.123234e-17 49.7301 245.9219)" class="st3 st4">[nT]</text>
			</g>
		</g>
		<g id="line2d_28">
			<g>
				<g>
					<defs>
						<rect id="SVGID_00000064342549035113453360000006777164857451921801_" x="80.9" y="170.3" width="734.4" height="127"/>
					</defs>
					<clipPath id="SVGID_00000180350291243764028880000006283308057028590226_">
						<use xlink:href="#SVGID_00000064342549035113453360000006777164857451921801_"  style="overflow:visible;"/>
					</clipPath>
					
						<path style="clip-path:url(#SVGID_00000180350291243764028880000006283308057028590226_);fill:none;stroke:#0000FF;stroke-width:2;stroke-linecap:square;stroke-linejoin:round;" d="
						M114.3,191.8l2.8-0.9l2.8,1l2.8-2l2.8,2.4l2.8-1.5l2.8-0.1l2.8-1.6l2.8,2.2l2.8-1l2.8-0.3l2.8,0.2l2.8,1.1l8.4-0.5l2.8-1.6
						l2.8-0.4l2.8,1.2l2.8-1.7l2.8,2.2l2.8-0.4l2.8,0.1l2.8,0.3l2.8,0.6l2.8,0.8l2.8-1.8l2.8,0.8h2.8l2.8-0.5l2.8,1.2l2.8,0.4l2.8-1
						l2.8,0.3l2.8-0.5l2.8,0.3l2.8-0.9l2.8-0.1l2.8,1.1l2.8-1.2l2.8,0.7l2.8,0.2l2.8-0.7l2.8-1.1h2.8l2.8-0.7l2.8-0.2l2.8-0.4
						l2.8-0.6l2.8-0.1l2.8-0.7l2.8,0.6l2.8-0.5l2.8,1.6l2.8-0.5h2.8l2.8,1l2.8,0.1l2.8,2.1l2.8,1.9l2.8-1l2.8,2.7l2.8-0.1l2.8,1.2
						l2.8,0.3l2.8,1.1l2.8,0.8l2.8-0.2l2.8,2.2l2.8-1.4l2.8,2.8l2.8,0.3l2.8-0.9l2.8,2.3l2.8,0.2l2.8,1.4l2.8-0.5l2.8,1.5l2.8-1.1
						l2.8,1.5l2.8,0.3l2.8-0.2l2.8,1.5l2.8,0.6l2.8-0.3h2.8l2.8,0.6l2.8,0.8l2.8,1.6l2.8-1l2.8,0.6l2.8,1.5l2.8,1l2.8,1.3l2.8,0.6
						l2.8,1.8l2.8,0.1l2.8,1.2l2.8,0.2l2.8,1.7l2.8-0.1l2.8,0.2l2.8,1.3l2.8,1.1l2.8,1.3l2.8,1.4l2.8,0.1l2.8,1l2.8,1.2l2.8,2
						l2.8-0.2l2.8,1.4h2.8l2.8,0.5l2.8,1.1l2.8,0.1l2.8,1.1l2.8,0.6l2.8,1.4l2.8,0.9l2.8,0.2l2.8,1.1l2.8-0.6l2.8,0.9l2.8,2.7
						l2.8-0.6l2.8,0.6l2.8,2.4l2.8,0.2l2.8,0.7l2.8,1.8l2.8,2.1l2.8,0.3l5.6-0.1l2.8,0.6l2.8-0.6l2.8,3.2l2.8-0.6l5.6,2l5.6,1.1
						l2.8,2.4l2.8,0.4l2.8,0.1l2.8-0.4l2.8,1.3l2.8,1.1l2.8,1.9l2.8-1.1l2.8,1.7l5.6,0.9l5.6,1.6l2.8,0.9l2.8-0.4l2.8,1l2.8,0.9
						l2.8,0.2l2.8,1l2.8-0.6l2.8,0.1l2.8,0.7l2.8-0.5l2.8,0.6l2.8,1h2.8l2.8,1.5l2.8,0.9l2.8,1.1l2.8,0.4l2.8,1.4l2.8-0.6l2.8,1.5
						l2.8-1.1l2.8,0.8l2.8-0.4l2.8,0.1l2.8-1.1l2.8,0.4l2.8,0.3l2.8,1.8l2.8-0.5l2.8-0.3l2.8-2l2.8,0.3l2.8-0.1l5.6,1.5l2.8,0.3
						l2.8-0.7l2.8,0.4l2.8-0.1l2.8,0.5l2.8-0.5l2.8,0.8l2.8-1.1l2.8,1.2l2.8-0.4h2.8l2.8,0.6l2.8-0.9l2.8,0.3l2.8-0.2l2.8-0.6
						l2.8,0.1l2.8-1.1l2.8-0.5l2.8,0.6l2.8,0.3l2.8-1.2l2.8-0.3l2.8,1.4l2.8,0.5l2.8,0.1l2.8-1l2.8,0.6l2.8,0.9l5.6,0.4l2.8,0.7
						l2.8-0.4l2.8,1.3h2.8l2.8-1.7l2.8,0.2l2.8,1.5l2.8-0.8l2.8,0.5l2.8-1.2l2.8-0.2l2.8-0.6l2.8,1l2.8-0.9l2.8,1.2l2.8-0.7l2.8-0.3
						l2.8,0.8l0,0"/>
				</g>
			</g>
		</g>
		<g id="line2d_29">
			<g>
				<g>
					<defs>
						<rect id="SVGID_00000003796038201193774480000002602678883167968417_" x="80.9" y="170.3" width="734.4" height="127"/>
					</defs>
					<clipPath id="SVGID_00000143587192369259093880000002463318761086420870_">
						<use xlink:href="#SVGID_00000003796038201193774480000002602678883167968417_"  style="overflow:visible;"/>
					</clipPath>
					
						<path style="clip-path:url(#SVGID_00000143587192369259093880000002463318761086420870_);fill:none;stroke:#008000;stroke-width:2;stroke-linecap:square;stroke-linejoin:round;" d="
						M114.3,265.3l2.8,0.3l2.8,0.7l2.8-0.1l2.8,1.7l2.8-0.7l2.8,0.5l2.8-1.8l5.6,1.7l2.8-0.4l2.8-0.6l5.6-0.5l5.6-0.3l2.8-0.9
						l5.6,1.4l5.6,0.7l2.8-0.5l2.8,0.1l2.8-0.1l5.6,2.2l2.8-2.7l2.8,1.4l2.8-1.4l2.8-0.2l2.8,0.2l2.8,0.5l2.8,0.1l2.8,0.3l2.8-0.1
						l2.8,1.3l2.8,1.1l2.8,0.2l2.8-1.1l2.8-1.9l2.8,0.5l2.8-0.2l2.8-1.3l2.8,0.3l2.8,0.1l2.8-0.2l2.8,0.3l5.6-1.8l5.6,1.2l2.8-0.1
						l2.8-0.3l2.8,0.8l2.8,0.3h2.8l2.8,1l2.8,0.1l2.8,0.6l2.8,1.6l2.8,0.3l2.8,2.5l2.8-0.2l2.8,0.2l2.8,2l2.8,1l2.8,0.6l2.8-1.6
						l2.8,0.6l2.8,1l2.8,1.7l2.8,0.5l2.8-0.5h2.8l2.8,0.6l2.8,0.4l2.8,0.6l2.8-0.4l2.8,1.6l2.8,0.1l2.8,0.7l2.8,0.1l2.8-0.7l2.8,1.7
						l2.8,0.6l2.8-0.7l2.8,1.5h2.8l5.6,1.9l2.8,1.3l2.8,0.2l2.8-0.1l2.8,0.8l2.8,0.2l2.8-1l2.8,2.7l2.8-0.5l2.8,1h2.8l2.8-0.6
						l2.8,1.2l2.8-0.3l2.8,0.6l2.8-1.2l2.8,1.9h2.8l2.8-1.8l2.8,0.7l2.8-0.4l2.8,0.2l2.8-0.4l2.8,0.7l5.6-1l2.8-0.9l2.8-0.1l2.8,0.1
						l2.8-1.1l2.8-0.4l2.8,0.5l2.8-0.8l2.8-0.2l2.8,0.6l2.8-1.7l2.8,0.6l2.8-0.3l2.8-1.3l2.8,1.5l2.8,0.6l2.8-2.4l2.8,1.3l2.8-2.2
						l2.8,0.4l2.8,0.6l2.8-0.9l2.8-0.7l2.8,0.6l2.8-0.1l2.8-1l2.8-0.4l2.8,0.1l2.8-1.3l2.8,0.1l2.8-0.3l2.8-0.5h2.8l5.6-1l2.8-0.7
						l2.8-0.2l2.8,0.6l2.8-0.4l2.8-1.2l2.8-0.9l2.8-0.3l2.8-1l2.8,0.5l2.8,0.3l2.8-0.7l2.8-1.2l2.8,0.7l2.8,0.1l2.8-1.3l2.8,1
						l2.8-0.9l5.6,1.9l2.8-1l2.8-1.4l2.8,0.8l2.8-0.9l2.8-0.5l2.8-0.3l2.8-0.1l2.8-1.5l2.8-0.5h2.8l2.8-0.2l5.6,2.3l2.8-0.5l2.8-0.8
						l2.8-1l2.8,0.5l2.8,1.3l2.8-0.6l2.8-1.7l2.8,0.4l2.8,0.3l2.8-1.6l2.8-0.8l2.8,0.9l2.8-1.1l2.8-0.7l2.8,0.4l2.8-0.7l2.8,1.3
						l2.8-1l2.8,1.1l2.8-1.3l2.8-0.8l2.8,1.3l2.8,0.5h2.8l2.8,0.6l2.8-0.3l2.8,0.1l2.8-0.2h2.8l2.8-0.5l2.8,0.2l2.8-0.5l2.8,0.6
						l2.8,0.9l2.8,0.3l2.8-1.8l2.8,1.8l2.8-2.6l2.8,1.7l2.8-1.1l2.8-0.2l2.8-0.7l2.8,1l2.8-1.5h2.8l2.8,1.6l2.8-0.4l2.8,1.5l2.8-1.1
						l2.8,0.6l2.8,1.9l2.8,1.1l2.8-1.4l2.8-0.4l2.8-1.3l2.8-0.3l2.8,1.1l2.8,0.2l2.8-1.1l0,0"/>
				</g>
			</g>
		</g>
		<g id="line2d_30">
			<g>
				<g>
					<defs>
						<rect id="SVGID_00000122713336462207818310000002883375042275429003_" x="80.9" y="170.3" width="734.4" height="127"/>
					</defs>
					<clipPath id="SVGID_00000114795985288797935150000010385302913346827933_">
						<use xlink:href="#SVGID_00000122713336462207818310000002883375042275429003_"  style="overflow:visible;"/>
					</clipPath>
					
						<path style="clip-path:url(#SVGID_00000114795985288797935150000010385302913346827933_);fill:none;stroke:#FF0000;stroke-width:2;stroke-linecap:square;stroke-linejoin:round;" d="
						M114.3,233.1l2.8-2.2l2.8,1l5.6,0.9l2.8-1l2.8,0.7l2.8,0.3l2.8,1.3l2.8-0.6l2.8,1.6l2.8-0.9l2.8,0.2l2.8,0.7l2.8-0.9l2.8,0.5
						l2.8,0.9l5.6,0.8l2.8-0.3l2.8,1.2l2.8,1.4l2.8-0.3l2.8,1.3l2.8-0.4l2.8-0.1l5.6,0.6l2.8-0.4l2.8-0.2l2.8-0.6l2.8-1.7l2.8-0.6
						l2.8-0.4l2.8-1.1l2.8,1.1l2.8,0.1l2.8-1.2l2.8,0.2l5.6,2.3l2.8,0.9l2.8-1.4l2.8-0.9l2.8-1.2l2.8,1h2.8l2.8-1l2.8,1.3l2.8-1.1
						l2.8,0.2l2.8-0.5l2.8-0.1l2.8-0.5l2.8,0.5l2.8-0.8l2.8-0.3l2.8,1.6l2.8-1.3l2.8,1.2l2.8-0.6l2.8,0.4l2.8,0.6l2.8-0.2l2.8,0.3
						l5.6,0.2l2.8-0.1l2.8,0.3l2.8-0.8l2.8,0.2l2.8-0.1l2.8,0.6l2.8-0.7l2.8,1.1l2.8-0.7l2.8,0.3l2.8-0.3l2.8,0.6l2.8,0.3h2.8
						l2.8-1.5l2.8,1.2l2.8,0.2l2.8,0.1l2.8,0.4l2.8-0.6l2.8,0.7l2.8-1.2l5.6,2.1l2.8-0.5l2.8-0.9l2.8,0.1l2.8,0.7l2.8-0.9l2.8,0.4
						l2.8,0.6l2.8-2l2.8,1.8l2.8,0.1l2.8-0.6l5.6-0.4l2.8,0.6l2.8-1.1l2.8,0.4l2.8,0.7l2.8-0.4l2.8-0.9l2.8,0.7l2.8-0.7l2.8,0.6
						l5.6-0.1l2.8,0.1l2.8-0.4l2.8,0.1l2.8-1.2l2.8,0.8l2.8-0.9l2.8,0.9l5.6,0.1l2.8-0.6l2.8,0.7l2.8-0.6l2.8,0.3l2.8,1.3l2.8-1.6
						l2.8,0.4l5.6-0.6l2.8,0.5l2.8-0.3l2.8,0.1l2.8-1.3l2.8,0.1l2.8,0.8l5.6,0.1l2.8-0.2l2.8,0.2l2.8-1l2.8,0.3l5.6-0.1l5.6,0.5h2.8
						l2.8,0.2l2.8-0.4l2.8,0.4l2.8-0.2l2.8,1l2.8-1.2l2.8,0.5l2.8-0.3l2.8,0.1l5.6-0.4l2.8,0.4l2.8-0.2l2.8,0.2l2.8,1l2.8-1.3
						l2.8,0.9l2.8-1.1l2.8-0.1l2.8,0.7l2.8-0.3l2.8-0.7l2.8,0.6l2.8-0.5h2.8l2.8-0.4l2.8-0.6h2.8l2.8,0.3l2.8-0.3l2.8,1l2.8-0.7
						l2.8,0.2l2.8,0.6l2.8-0.2l2.8-0.8l2.8,0.7l2.8,0.9l2.8,0.3l2.8,1.3l2.8,1l2.8,1.1l2.8-1.1l2.8,0.2l2.8-0.3l2.8,0.1l2.8-0.2
						l2.8-0.6l2.8,0.3l2.8,0.6l2.8-1.1l2.8,1.5l2.8-0.3l2.8-1.1l5.6,2.1l2.8-0.7l2.8-0.5l2.8,0.3l2.8,0.8h2.8l2.8-0.1l2.8,0.2
						l2.8,0.7l2.8-1.1l2.8-0.8l2.8-0.5l2.8,0.1l5.6-0.6l2.8-0.5l2.8,0.7l2.8-0.9l2.8-0.8l2.8,0.4l2.8,0.6l2.8-0.6l2.8,0.2l2.8-0.8
						l2.8,0.6l5.6-0.4l2.8,2.2l2.8-0.6l2.8,0.8l5.6,1.1l2.8,1.2l2.8,0.3l2.8,0.2l0,0"/>
				</g>
			</g>
		</g>
		<g id="line2d_31">
			<g>
				<g>
					<defs>
						<rect id="SVGID_00000158721044753483174380000016836170643899869090_" x="80.9" y="170.3" width="734.4" height="127"/>
					</defs>
					<clipPath id="SVGID_00000049906879704650425970000000771308975817380487_">
						<use xlink:href="#SVGID_00000158721044753483174380000016836170643899869090_"  style="overflow:visible;"/>
					</clipPath>
					
						<path style="clip-path:url(#SVGID_00000049906879704650425970000000771308975817380487_);fill:none;stroke:#000000;stroke-width:2;stroke-linecap:square;stroke-linejoin:round;" d="
						M114.3,181.7l2.8-1l2.8,0.5l2.8-1.5l2.8,0.9l2.8-0.8l2.8-0.4l2.8-0.2l2.8,1.3l2.8-1.3h2.8l2.8,0.6l2.8,1l8.4-0.1l5.6-1.5
						l2.8,0.5l2.8-1.6l2.8,1.5l2.8-0.2h2.8l2.8,0.2l5.6-0.1l2.8,0.1l2.8-0.2l2.8,0.8l2.8-0.3l2.8,0.9l2.8,0.1l2.8-0.9h2.8l2.8-0.3
						l2.8-0.6l2.8-1.4l2.8-0.2l2.8,1.5l5.6,0.3l5.6,0.5l2.8-1.1h2.8l2.8-0.5l2.8-0.4l2.8,0.2l2.8-0.1l2.8-0.4l2.8-0.9l2.8,0.5
						l2.8-0.3l2.8,0.9l2.8-0.6h2.8l2.8,0.3h2.8l2.8,1.4l2.8,0.5l2.8-0.9l2.8,0.4h2.8l2.8,0.7l2.8-1.2l5.6,0.1l5.6,2l2.8-1.7l2.8,0.5
						l5.6-0.4l2.8,1.5l2.8-0.4l2.8,0.5l2.8-0.8l2.8,1.2l2.8-2l2.8,0.8l2.8-0.4l2.8-0.1l2.8,1.3l2.8-1.2l2.8-0.7l2.8,0.6l2.8-1
						l2.8,0.3h2.8l2.8-1.4l2.8-0.9l2.8,0.4l2.8,0.6l2.8-0.2h2.8l2.8,1.6l2.8-2.5l2.8,0.8l2.8-0.8l2.8,0.4l2.8,0.6l2.8-1.1l2.8,0.6
						l2.8-0.3l2.8,1.4l2.8-1.6h2.8l2.8,1.9l2.8-0.5l2.8,0.6l2.8-0.2l2.8,0.6l2.8-0.7l5.6,1.1l2.8,0.9l2.8,0.1l2.8-0.1l2.8,1.1
						l2.8,0.4l2.8-0.5l2.8,0.8l2.8,0.2l2.8-0.6l2.8,1.5l2.8-0.6l2.8,0.2l2.8,1l2.8-1.6l2.8-0.7l2.8,2.1l2.8-1.8l2.8,2l2.8-0.4
						l2.8-0.6l2.8,0.7l2.8,0.9l2.8-1.4l2.8,0.3l2.8,0.7l2.8,0.1l2.8-0.3l2.8,1l2.8-1l2.8,0.2l2.8,0.4l2.8,0.2l5.6-0.1l2.8-0.3
						l2.8,0.7l2.8-1.4l2.8,0.2l2.8,0.8l2.8,0.4l2.8-0.2l2.8,0.3l2.8-0.2l2.8-0.8l2.8,0.1l2.8,0.8l2.8-1.1l2.8,0.3l2.8,1l2.8-1.2
						l2.8,1l2.8-1.1l2.8-1.4l2.8,0.8l2.8,0.1l2.8-1.2l2.8-0.1h2.8l2.8-0.8l2.8,0.5h2.8l2.8,1.2l2.8-0.6l2.8,0.4l2.8-0.9h5.6l2.8,0.3
						l2.8-0.6h2.8l2.8-0.7l2.8,1.9l2.8,1l2.8-0.2l2.8-0.8l2.8,0.4l2.8,0.2h2.8l2.8,0.4l2.8,0.6l2.8-0.7l2.8,0.8l2.8-1.4l2.8,1.5
						l2.8-1.7l2.8,1.2l2.8,0.4l2.8-1.2l2.8,0.4l5.6-0.6l2.8,0.7l2.8-0.1l2.8,1l2.8,0.3l2.8-0.1l2.8-0.3l2.8,1.2l2.8-0.3l2.8-1.6
						l2.8-0.5l2.8,1.2l2.8-0.5l2.8,1.2l2.8-1.8l2.8,0.6l5.6-0.1l2.8-0.3l5.6-0.1l2.8,0.3l2.8,0.1l2.8-2.2l2.8,1.3l2.8-0.8l2.8-0.3
						l2.8-0.7l2.8,1.4l2.8-0.5l2.8,1.5l2.8-0.8l2.8-0.3l5.6,0.1l0,0"/>
				</g>
			</g>
		</g>
		<g id="patch_11">
			<path class="st8" d="M80.9,297.3v-127"/>
		</g>
		<g id="patch_12">
			<path class="st8" d="M815.3,297.3v-127"/>
		</g>
		<g id="patch_13">
			<path class="st8" d="M80.9,297.3h734.4"/>
		</g>
		<g id="patch_14">
			<path class="st8" d="M80.9,170.3h734.4"/>
		</g>
		<g id="legend_2">
			<g id="patch_15">
				<path class="st9" d="M746.6,237h61.7c1.3,0,2-0.7,2-2v-57.7c0-1.3-0.7-2-2-2h-61.7c-1.3,0-2,0.7-2,2V235
					C744.6,236.3,745.3,237,746.6,237z"/>
			</g>
			<g id="text_22">
				<text transform="matrix(1 0 0 1 768.6772 186.893)" class="st3 st10">Bl</text>
			</g>
			<g id="line2d_32">
				<path class="st11" d="M786.3,183.4h20"/>
			</g>
			<g id="line2d_33">
			</g>
			<g id="text_23">
				<text transform="matrix(1 0 0 1 761.7148 201.5712)" class="st3 st10">Bm</text>
			</g>
			<g id="line2d_34">
				<path class="st12" d="M786.3,198.1h20"/>
			</g>
			<g id="line2d_35">
			</g>
			<g id="text_24">
				<text transform="matrix(1 0 0 1 765.1179 216.2492)" class="st3 st10">Bn</text>
			</g>
			<g id="line2d_36">
				<path class="st13" d="M786.3,212.7h20"/>
			</g>
			<g id="line2d_37">
			</g>
			<g id="text_25">
				<text transform="matrix(1 0 0 1 748.5898 230.9273)" class="st3 st10">Btotal</text>
			</g>
			<g id="line2d_38">
				<path class="st18" d="M786.3,227.4h20"/>
			</g>
			<g id="line2d_39">
			</g>
		</g>
	</g>
</g>
</svg>
