<?xml version="1.0" encoding="UTF-8"?>
<svg xmlns="http://www.w3.org/2000/svg" xmlns:xlink="http://www.w3.org/1999/xlink" width="450pt" height="360pt" viewBox="0 0 450 360" version="1.1">
<g id="surface220">
<path style="fill:none;stroke-width:2;stroke-linecap:square;stroke-linejoin:miter;stroke:rgb(36.841382%,50.678264%,70.980392%);stroke-opacity:1;stroke-miterlimit:3.25;" d="M 705.09375 -184.230469 L 703.898438 -182.136719 L 702.703125 -180.050781 L 700.3125 -175.890625 L 695.554688 -167.640625 L 686.101562 -151.414062 L 667.457031 -120.023438 L 628.21875 -56.730469 L 593.03125 -3.292969 L 559.871094 44.03125 L 525.363281 89.976562 L 494.496094 128.058594 L 462.449219 164.390625 L 432.332031 195.355469 L 405.367188 220.289062 L 377.246094 243.28125 L 351.90625 261.171875 L 351.527344 261.421875 L 351.144531 261.667969 L 350.382812 262.160156 L 348.855469 263.136719 L 345.816406 265.054688 L 339.765625 268.738281 L 327.785156 275.535156 L 327.378906 275.753906 L 326.171875 276.398438 L 324.558594 277.25 L 321.34375 278.90625 L 314.9375 282.054688 L 314.539062 282.242188 L 314.136719 282.433594 L 313.339844 282.808594 L 311.746094 283.546875 L 308.5625 284.984375 L 302.222656 287.691406 L 301.851562 287.84375 L 301.484375 287.996094 L 300.746094 288.292969 L 299.273438 288.882812 L 296.328125 290.023438 L 290.457031 292.160156 L 290.089844 292.289062 L 289.722656 292.414062 L 288.992188 292.664062 L 287.527344 293.15625 L 284.601562 294.105469 L 278.765625 295.859375 L 278.371094 295.96875 L 277.976562 296.082031 L 275.609375 296.726562 L 272.457031 297.535156 L 272.0625 297.632812 L 271.671875 297.726562 L 270.882812 297.917969 L 269.308594 298.285156 L 266.164062 298.980469 L 265.773438 299.0625 L 265.378906 299.144531 L 264.59375 299.304688 L 263.023438 299.613281 L 259.886719 300.1875 L 259.105469 300.320312 L 258.320312 300.449219 L 256.753906 300.699219 L 253.625 301.152344 L 252.859375 301.253906 L 252.09375 301.351562 L 250.558594 301.535156 L 250.175781 301.582031 L 249.792969 301.625 L 249.027344 301.707031 L 247.496094 301.863281 L 247.113281 301.898438 L 246.734375 301.933594 L 245.96875 302 L 245.585938 302.035156 L 245.203125 302.066406 L 244.441406 302.125 L 244.058594 302.15625 L 243.675781 302.183594 L 242.914062 302.234375 L 242.53125 302.261719 L 242.148438 302.285156 L 241.386719 302.328125 L 241.007812 302.351562 L 240.625 302.371094 L 239.863281 302.40625 L 239.484375 302.425781 L 239.101562 302.441406 L 238.339844 302.472656 L 237.582031 302.496094 L 237.199219 302.507812 L 236.820312 302.519531 L 236.0625 302.535156 L 235.679688 302.542969 L 235.300781 302.550781 L 233.785156 302.566406 L 233.40625 302.566406 L 233.027344 302.570312 L 232.648438 302.566406 L 232.269531 302.566406 L 231.890625 302.5625 L 231.511719 302.5625 L 231.132812 302.554688 L 230.753906 302.550781 L 230.375 302.542969 L 230 302.539062 L 229.621094 302.527344 L 229.242188 302.519531 L 228.890625 302.511719 L 227.835938 302.476562 L 227.484375 302.460938 L 227.132812 302.449219 L 226.078125 302.402344 L 225.726562 302.382812 L 225.027344 302.34375 L 224.324219 302.304688 L 223.625 302.257812 L 223.273438 302.234375 L 222.925781 302.210938 L 222.226562 302.160156 L 220.828125 302.042969 L 220.480469 302.015625 L 220.132812 301.980469 L 219.4375 301.914062 L 218.042969 301.773438 L 217.695312 301.734375 L 217.351562 301.695312 L 216.65625 301.613281 L 215.269531 301.441406 L 214.925781 301.398438 L 214.578125 301.351562 L 213.886719 301.257812 L 212.507812 301.054688 L 212.164062 301.003906 L 211.132812 300.839844 L 209.761719 300.609375 L 207.027344 300.105469 L 206.660156 300.035156 L 206.289062 299.960938 L 205.554688 299.808594 L 204.082031 299.496094 L 201.15625 298.8125 L 200.429688 298.632812 L 199.703125 298.445312 L 198.253906 298.0625 L 195.375 297.242188 L 195.019531 297.136719 L 194.660156 297.027344 L 193.945312 296.808594 L 192.523438 296.355469 L 189.699219 295.402344 L 184.148438 293.289062 L 183.507812 293.023438 L 182.871094 292.753906 L 181.601562 292.210938 L 179.085938 291.074219 L 174.160156 288.636719 L 173.855469 288.476562 L 173.554688 288.316406 L 172.949219 287.992188 L 171.75 287.335938 L 169.378906 285.980469 L 164.753906 283.117188 L 164.449219 282.917969 L 164.140625 282.714844 L 163.53125 282.308594 L 162.320312 281.484375 L 159.933594 279.792969 L 155.328125 276.246094 L 155.046875 276.015625 L 154.765625 275.789062 L 154.210938 275.328125 L 153.105469 274.394531 L 150.941406 272.496094 L 146.785156 268.5625 L 146.539062 268.3125 L 146.292969 268.066406 L 145.800781 267.570312 L 144.832031 266.566406 L 142.9375 264.53125 L 139.324219 260.351562 L 138.886719 259.820312 L 138.457031 259.285156 L 137.605469 258.210938 L 135.945312 256.039062 L 132.808594 251.609375 L 132.457031 251.085938 L 132.113281 250.5625 L 131.425781 249.507812 L 130.097656 247.382812 L 127.59375 243.074219 L 127.445312 242.800781 L 127.292969 242.53125 L 127 241.984375 L 126.417969 240.890625 L 125.296875 238.695312 L 123.203125 234.253906 L 123.066406 233.949219 L 122.933594 233.648438 L 122.671875 233.039062 L 122.152344 231.824219 L 121.160156 229.378906 L 121.042969 229.070312 L 120.921875 228.765625 L 120.6875 228.152344 L 120.230469 226.921875 L 119.355469 224.449219 L 119.144531 223.832031 L 118.941406 223.210938 L 118.539062 221.96875 L 117.78125 219.480469 L 117.421875 218.230469 L 117.078125 216.980469 L 116.433594 214.46875 L 116.152344 213.296875 L 115.882812 212.121094 L 115.382812 209.765625 L 115.320312 209.472656 L 115.261719 209.179688 L 115.148438 208.589844 L 114.925781 207.40625 L 114.523438 205.042969 L 114.476562 204.746094 L 114.429688 204.453125 L 114.335938 203.859375 L 114.164062 202.675781 L 114.125 202.378906 L 114.082031 202.082031 L 114.003906 201.492188 L 113.855469 200.304688 L 113.785156 199.710938 L 113.71875 199.117188 L 113.59375 197.929688 L 113.566406 197.632812 L 113.535156 197.335938 L 113.480469 196.742188 L 113.382812 195.554688 L 113.335938 194.96875 L 113.292969 194.386719 L 113.273438 194.09375 L 113.253906 193.804688 L 113.21875 193.222656 L 113.199219 192.929688 L 113.183594 192.636719 L 113.152344 192.054688 L 113.136719 191.761719 L 113.125 191.472656 L 113.097656 190.886719 L 113.089844 190.59375 L 113.078125 190.304688 L 113.066406 190.011719 L 113.058594 189.71875 L 113.050781 189.429688 L 113.039062 189.136719 L 113.035156 188.84375 L 113.027344 188.554688 L 113.019531 188.261719 L 113.011719 187.675781 L 113.007812 187.386719 L 113.003906 187.09375 L 113.003906 186.800781 L 113 186.511719 L 113 186.304688 " transform="matrix(1,0,0,1,-83,-6)"/>
<path style="fill:none;stroke-width:2;stroke-linecap:square;stroke-linejoin:miter;stroke:rgb(36.841382%,50.678264%,70.980392%);stroke-opacity:1;stroke-miterlimit:3.25;" d="M 233 186 L 233 186.019531 L 232.996094 186.019531 L 232.996094 186.042969 L 232.992188 186.050781 L 232.992188 186.058594 L 232.988281 186.082031 L 232.984375 186.085938 L 232.984375 186.09375 L 232.972656 186.140625 L 232.972656 186.148438 L 232.96875 186.15625 L 232.964844 186.175781 L 232.953125 186.214844 L 232.953125 186.222656 L 232.949219 186.226562 L 232.9375 186.261719 L 232.921875 186.3125 L 232.917969 186.320312 L 232.917969 186.324219 L 232.914062 186.339844 L 232.902344 186.371094 L 232.878906 186.429688 L 232.820312 186.574219 L 232.816406 186.582031 L 232.8125 186.59375 L 232.800781 186.617188 L 232.78125 186.660156 L 232.738281 186.753906 L 232.628906 186.957031 L 232.621094 186.96875 L 232.613281 186.984375 L 232.566406 187.066406 L 232.496094 187.183594 L 232.335938 187.429688 L 232.324219 187.445312 L 232.316406 187.460938 L 232.246094 187.554688 L 232.152344 187.683594 L 231.941406 187.949219 L 231.925781 187.964844 L 231.914062 187.984375 L 231.882812 188.015625 L 231.824219 188.082031 L 231.703125 188.21875 L 231.445312 188.480469 L 231.382812 188.542969 L 231.320312 188.601562 L 231.191406 188.71875 L 230.929688 188.945312 L 230.914062 188.957031 L 230.894531 188.972656 L 230.863281 188.996094 L 230.796875 189.050781 L 230.664062 189.148438 L 230.40625 189.328125 L 230.390625 189.339844 L 230.371094 189.351562 L 230.339844 189.375 L 230.273438 189.417969 L 230.144531 189.496094 L 229.914062 189.621094 L 229.890625 189.636719 L 229.867188 189.648438 L 229.816406 189.671875 L 229.734375 189.714844 L 229.617188 189.765625 L 229.609375 189.765625 L 229.605469 189.769531 L 229.597656 189.773438 L 229.585938 189.777344 L 229.578125 189.777344 L 229.578125 189.78125 L 229.578125 189.777344 L 229.585938 189.777344 L 229.621094 189.765625 L 229.625 189.765625 L 229.632812 189.761719 L 229.644531 189.757812 L 229.675781 189.75 L 229.757812 189.730469 L 229.78125 189.722656 L 229.808594 189.714844 L 229.867188 189.703125 L 230.003906 189.671875 L 230.082031 189.65625 L 230.167969 189.640625 L 230.261719 189.625 L 230.363281 189.609375 L 230.386719 189.605469 L 230.46875 189.59375 L 230.585938 189.574219 L 230.710938 189.558594 L 230.84375 189.542969 L 230.984375 189.527344 L 231.136719 189.511719 L 231.214844 189.503906 L 231.292969 189.5 L 231.460938 189.484375 L 231.503906 189.480469 L 231.546875 189.480469 L 231.636719 189.472656 L 231.683594 189.46875 L 231.726562 189.46875 L 231.820312 189.460938 L 231.871094 189.460938 L 231.917969 189.457031 L 232.015625 189.453125 L 232.066406 189.449219 L 232.117188 189.449219 L 232.21875 189.445312 L 232.277344 189.441406 L 232.335938 189.441406 L 232.390625 189.4375 L 232.511719 189.4375 L 232.570312 189.433594 L 232.882812 189.433594 L 232.949219 189.429688 L 233.078125 189.429688 L 233.144531 189.433594 L 233.417969 189.433594 L 233.488281 189.4375 L 233.632812 189.4375 L 233.703125 189.441406 L 233.777344 189.441406 L 233.925781 189.449219 L 234 189.449219 L 234.078125 189.453125 L 234.152344 189.457031 L 234.386719 189.46875 L 234.46875 189.472656 L 234.546875 189.476562 L 234.792969 189.488281 L 234.875 189.496094 L 235.046875 189.507812 L 235.132812 189.511719 L 235.21875 189.519531 L 235.390625 189.53125 L 235.75 189.5625 L 235.84375 189.570312 L 235.933594 189.578125 L 236.121094 189.597656 L 236.503906 189.636719 L 236.699219 189.660156 L 236.898438 189.683594 L 237.308594 189.734375 L 237.402344 189.746094 L 237.5 189.757812 L 237.699219 189.785156 L 238.101562 189.84375 L 238.933594 189.972656 L 239.042969 189.992188 L 239.152344 190.007812 L 239.367188 190.046875 L 239.8125 190.125 L 240.734375 190.300781 L 240.851562 190.324219 L 240.972656 190.347656 L 241.210938 190.398438 L 241.699219 190.5 L 242.707031 190.726562 L 244.847656 191.265625 L 245 191.304688 L 245.152344 191.347656 L 245.457031 191.429688 L 246.082031 191.605469 L 247.363281 191.980469 L 250.078125 192.851562 L 250.429688 192.96875 L 250.785156 193.09375 L 251.507812 193.34375 L 252.988281 193.882812 L 256.089844 195.089844 L 256.277344 195.164062 L 256.464844 195.242188 L 256.84375 195.398438 L 257.605469 195.714844 L 259.160156 196.382812 L 262.394531 197.84375 L 269.34375 201.296875 L 269.789062 201.53125 L 270.238281 201.769531 L 271.140625 202.257812 L 272.976562 203.261719 L 276.757812 205.414062 L 284.75 210.304688 L 285.027344 210.484375 L 285.308594 210.664062 L 285.875 211.027344 L 287.011719 211.769531 L 289.316406 213.292969 L 294.042969 216.527344 L 303.964844 223.75 L 324.097656 240.070312 L 348.164062 262.179688 L 373.953125 288.660156 L 399.859375 317.875 L 429.894531 354.738281 L 459.714844 394.269531 L 490.578125 438.039062 L 525.855469 491.398438 L 560.433594 546.9375 L 561.050781 547.953125 L 561.667969 548.976562 L 562.90625 551.023438 L 565.386719 555.140625 L 570.367188 563.457031 L 580.425781 580.433594 L 581.058594 581.507812 L 581.691406 582.585938 L 582.957031 584.746094 L 585.5 589.09375 L 590.605469 597.867188 L 591.886719 600.078125 L 593.167969 602.300781 L 595.738281 606.761719 L 596.382812 607.878906 L 597.027344 609 L 598.320312 611.25 L 598.964844 612.375 L 599.609375 613.503906 L 600.90625 615.769531 " transform="matrix(1,0,0,1,-83,-6)"/>
<path style="fill:none;stroke-width:2;stroke-linecap:square;stroke-linejoin:miter;stroke:rgb(88.072023%,61.104753%,14.204623%);stroke-opacity:1;stroke-miterlimit:3.25;" d="M 600.90625 -243.769531 L 599.75 -241.746094 L 598.59375 -239.730469 L 596.289062 -235.710938 L 591.695312 -227.75 L 582.582031 -212.105469 L 564.648438 -181.910156 L 527.117188 -121.371094 L 493.765625 -70.71875 L 462.671875 -26.34375 L 430.777344 16.128906 L 402.765625 50.691406 L 374.378906 82.878906 L 348.574219 109.421875 L 326.425781 129.910156 L 304.617188 147.757812 L 286.460938 160.59375 L 285.9375 160.929688 L 285.417969 161.265625 L 284.386719 161.925781 L 282.351562 163.210938 L 278.382812 165.628906 L 270.871094 169.890625 L 270.628906 170.019531 L 270.382812 170.152344 L 269.898438 170.410156 L 268.933594 170.917969 L 267.042969 171.894531 L 263.386719 173.691406 L 263.167969 173.796875 L 262.945312 173.902344 L 262.503906 174.109375 L 261.628906 174.511719 L 259.914062 175.289062 L 256.625 176.695312 L 256.4375 176.769531 L 256.253906 176.84375 L 255.882812 176.996094 L 255.152344 177.285156 L 253.722656 177.839844 L 250.984375 178.839844 L 250.816406 178.894531 L 250.652344 178.953125 L 250.324219 179.066406 L 249.675781 179.285156 L 248.414062 179.695312 L 246.007812 180.414062 L 245.851562 180.460938 L 245.695312 180.503906 L 245.386719 180.589844 L 244.777344 180.753906 L 243.597656 181.058594 L 243.308594 181.128906 L 243.027344 181.195312 L 242.46875 181.328125 L 241.386719 181.566406 L 241.257812 181.59375 L 241.125 181.621094 L 240.867188 181.671875 L 240.359375 181.773438 L 239.378906 181.953125 L 238.910156 182.03125 L 238.449219 182.105469 L 237.574219 182.230469 L 237.46875 182.246094 L 237.367188 182.257812 L 237.160156 182.285156 L 236.761719 182.332031 L 236.660156 182.34375 L 236.5625 182.355469 L 236.371094 182.375 L 235.996094 182.414062 L 235.902344 182.421875 L 235.8125 182.429688 L 235.628906 182.449219 L 235.542969 182.457031 L 235.453125 182.460938 L 235.277344 182.476562 L 235.191406 182.484375 L 235.105469 182.488281 L 234.9375 182.5 L 234.855469 182.507812 L 234.769531 182.511719 L 234.609375 182.519531 L 234.527344 182.527344 L 234.449219 182.53125 L 234.289062 182.539062 L 234.210938 182.539062 L 234.136719 182.542969 L 233.984375 182.550781 L 233.910156 182.554688 L 233.835938 182.554688 L 233.761719 182.558594 L 233.691406 182.558594 L 233.617188 182.5625 L 233.476562 182.5625 L 233.40625 182.566406 L 233.136719 182.566406 L 233.070312 182.570312 L 232.941406 182.570312 L 232.875 182.566406 L 232.566406 182.566406 L 232.507812 182.5625 L 232.386719 182.5625 L 232.335938 182.558594 L 232.28125 182.558594 L 232.230469 182.554688 L 232.175781 182.554688 L 232.125 182.550781 L 232.074219 182.550781 L 231.972656 182.546875 L 231.925781 182.542969 L 231.875 182.539062 L 231.78125 182.535156 L 231.734375 182.53125 L 231.6875 182.53125 L 231.597656 182.523438 L 231.550781 182.523438 L 231.421875 182.511719 L 231.253906 182.5 L 231.097656 182.484375 L 230.949219 182.46875 L 230.808594 182.453125 L 230.679688 182.4375 L 230.644531 182.433594 L 230.617188 182.429688 L 230.554688 182.417969 L 230.441406 182.402344 L 230.332031 182.386719 L 230.234375 182.371094 L 230.058594 182.335938 L 230.035156 182.332031 L 229.976562 182.320312 L 229.902344 182.304688 L 229.777344 182.277344 L 229.753906 182.269531 L 229.726562 182.261719 L 229.6875 182.253906 L 229.621094 182.234375 L 229.617188 182.234375 L 229.601562 182.226562 L 229.585938 182.222656 L 229.578125 182.222656 L 229.578125 182.21875 L 229.582031 182.222656 L 229.589844 182.226562 L 229.625 182.238281 L 229.628906 182.242188 L 229.636719 182.242188 L 229.648438 182.25 L 229.675781 182.257812 L 229.738281 182.289062 L 229.90625 182.371094 L 229.921875 182.378906 L 229.933594 182.386719 L 229.957031 182.398438 L 230.007812 182.425781 L 230.117188 182.488281 L 230.359375 182.640625 L 230.375 182.648438 L 230.394531 182.660156 L 230.425781 182.683594 L 230.496094 182.730469 L 230.640625 182.832031 L 230.929688 183.054688 L 230.949219 183.070312 L 230.964844 183.085938 L 231.003906 183.117188 L 231.074219 183.175781 L 231.21875 183.300781 L 231.496094 183.566406 L 231.625 183.695312 L 231.75 183.832031 L 231.980469 184.097656 L 231.996094 184.117188 L 232.007812 184.132812 L 232.035156 184.167969 L 232.089844 184.234375 L 232.1875 184.363281 L 232.367188 184.617188 L 232.378906 184.632812 L 232.386719 184.648438 L 232.40625 184.675781 L 232.511719 184.839844 L 232.632812 185.046875 L 232.640625 185.0625 L 232.644531 185.074219 L 232.660156 185.097656 L 232.730469 185.238281 L 232.808594 185.402344 L 232.8125 185.414062 L 232.820312 185.425781 L 232.84375 185.484375 L 232.875 185.558594 L 232.878906 185.566406 L 232.882812 185.578125 L 232.886719 185.59375 L 232.902344 185.625 L 232.921875 185.6875 L 232.925781 185.695312 L 232.925781 185.703125 L 232.933594 185.714844 L 232.941406 185.742188 L 232.957031 185.792969 L 232.957031 185.800781 L 232.960938 185.8125 L 232.96875 185.832031 L 232.976562 185.871094 L 232.976562 185.878906 L 232.980469 185.886719 L 232.984375 185.898438 L 232.988281 185.925781 L 232.988281 185.929688 L 232.992188 185.933594 L 232.992188 185.945312 L 232.996094 185.960938 L 232.996094 185.980469 L 233 185.984375 L 233 186 " transform="matrix(1,0,0,1,-83,-6)"/>
<path style="fill:none;stroke-width:2;stroke-linecap:square;stroke-linejoin:miter;stroke:rgb(88.072023%,61.104753%,14.204623%);stroke-opacity:1;stroke-miterlimit:3.25;" d="M 113 185.695312 L 113 185.34375 L 113.007812 184.757812 L 113.011719 184.46875 L 113.023438 183.589844 L 113.03125 183.300781 L 113.046875 182.714844 L 113.054688 182.425781 L 113.0625 182.132812 L 113.082031 181.546875 L 113.09375 181.257812 L 113.105469 180.964844 L 113.132812 180.382812 L 113.144531 180.089844 L 113.160156 179.796875 L 113.191406 179.214844 L 113.207031 178.921875 L 113.226562 178.632812 L 113.265625 178.046875 L 113.347656 176.882812 L 113.371094 176.566406 L 113.398438 176.25 L 113.449219 175.617188 L 113.566406 174.355469 L 113.628906 173.722656 L 113.695312 173.089844 L 113.839844 171.828125 L 113.878906 171.511719 L 113.917969 171.199219 L 113.996094 170.566406 L 114.167969 169.304688 L 114.550781 166.789062 L 114.601562 166.472656 L 114.652344 166.160156 L 114.761719 165.53125 L 114.984375 164.273438 L 115.476562 161.765625 L 115.609375 161.140625 L 115.742188 160.511719 L 116.023438 159.261719 L 116.625 156.765625 L 116.773438 156.1875 L 116.925781 155.605469 L 117.234375 154.445312 L 117.894531 152.128906 L 117.980469 151.839844 L 118.070312 151.550781 L 118.246094 150.976562 L 118.605469 149.820312 L 119.363281 147.523438 L 119.460938 147.238281 L 119.5625 146.949219 L 119.761719 146.378906 L 120.171875 145.234375 L 121.03125 142.957031 L 122.898438 138.433594 L 123.035156 138.128906 L 123.167969 137.824219 L 123.441406 137.214844 L 123.996094 136.003906 L 125.15625 133.589844 L 127.652344 128.820312 L 127.816406 128.527344 L 127.980469 128.230469 L 128.316406 127.640625 L 128.992188 126.464844 L 130.394531 124.136719 L 133.382812 119.546875 L 133.574219 119.269531 L 133.765625 118.988281 L 134.152344 118.4375 L 134.941406 117.332031 L 136.554688 115.148438 L 139.96875 110.871094 L 140.1875 110.609375 L 140.410156 110.34375 L 140.859375 109.824219 L 141.761719 108.78125 L 143.613281 106.730469 L 147.496094 102.738281 L 147.726562 102.511719 L 147.960938 102.285156 L 148.433594 101.832031 L 149.382812 100.933594 L 151.316406 99.164062 L 155.332031 95.75 L 155.847656 95.335938 L 156.367188 94.921875 L 157.410156 94.105469 L 159.53125 92.503906 L 163.910156 89.4375 L 164.210938 89.238281 L 165.125 88.640625 L 166.351562 87.855469 L 168.84375 86.332031 L 169.160156 86.148438 L 169.476562 85.960938 L 170.109375 85.59375 L 171.382812 84.867188 L 173.964844 83.464844 L 174.289062 83.296875 L 174.613281 83.125 L 175.269531 82.789062 L 176.585938 82.125 L 179.25 80.847656 L 184.691406 78.492188 L 185.332031 78.234375 L 185.980469 77.980469 L 187.277344 77.484375 L 189.890625 76.53125 L 190.21875 76.417969 L 190.550781 76.304688 L 191.207031 76.078125 L 192.53125 75.640625 L 195.199219 74.808594 L 195.53125 74.710938 L 195.867188 74.609375 L 196.539062 74.414062 L 197.886719 74.039062 L 200.597656 73.324219 L 200.9375 73.242188 L 201.277344 73.15625 L 201.960938 72.992188 L 203.328125 72.675781 L 206.078125 72.082031 L 206.414062 72.015625 L 206.753906 71.949219 L 207.429688 71.816406 L 208.789062 71.5625 L 209.128906 71.5 L 210.148438 71.324219 L 211.515625 71.097656 L 211.855469 71.042969 L 212.199219 70.992188 L 212.882812 70.886719 L 214.257812 70.691406 L 214.597656 70.644531 L 214.941406 70.601562 L 215.632812 70.511719 L 217.007812 70.34375 L 217.355469 70.304688 L 217.699219 70.265625 L 218.390625 70.191406 L 219.773438 70.050781 L 220.46875 69.988281 L 221.160156 69.925781 L 222.898438 69.789062 L 223.941406 69.71875 L 224.289062 69.699219 L 224.636719 69.675781 L 225.335938 69.636719 L 225.683594 69.617188 L 226.03125 69.601562 L 226.730469 69.570312 L 227.078125 69.554688 L 227.429688 69.539062 L 228.128906 69.515625 L 228.507812 69.5 L 228.886719 69.492188 L 229.265625 69.480469 L 229.648438 69.46875 L 230.40625 69.453125 L 230.789062 69.449219 L 231.167969 69.441406 L 231.550781 69.4375 L 231.929688 69.433594 L 232.691406 69.433594 L 233.074219 69.429688 L 233.453125 69.433594 L 233.835938 69.433594 L 234.21875 69.4375 L 234.597656 69.441406 L 235.363281 69.449219 L 235.746094 69.457031 L 236.125 69.464844 L 236.507812 69.472656 L 236.890625 69.484375 L 237.273438 69.492188 L 237.65625 69.503906 L 238.039062 69.519531 L 238.421875 69.53125 L 239.570312 69.578125 L 240.335938 69.613281 L 240.71875 69.632812 L 241.101562 69.65625 L 241.871094 69.699219 L 242.636719 69.746094 L 243.40625 69.796875 L 243.789062 69.824219 L 244.171875 69.855469 L 244.941406 69.914062 L 246.480469 70.042969 L 246.863281 70.078125 L 247.25 70.113281 L 248.019531 70.1875 L 249.558594 70.351562 L 249.945312 70.394531 L 250.328125 70.4375 L 251.101562 70.527344 L 252.644531 70.71875 L 253.363281 70.8125 L 254.082031 70.910156 L 255.523438 71.113281 L 258.410156 71.5625 L 258.769531 71.625 L 259.132812 71.683594 L 259.851562 71.808594 L 261.296875 72.0625 L 264.191406 72.617188 L 264.550781 72.6875 L 264.914062 72.761719 L 265.636719 72.910156 L 267.085938 73.21875 L 269.984375 73.871094 L 275.792969 75.324219 L 276.183594 75.429688 L 276.578125 75.535156 L 277.367188 75.75 L 278.945312 76.191406 L 282.101562 77.121094 L 288.433594 79.144531 L 288.832031 79.28125 L 289.226562 79.414062 L 290.019531 79.6875 L 291.609375 80.242188 L 294.785156 81.398438 L 301.164062 83.875 L 301.535156 84.027344 L 301.910156 84.179688 L 302.65625 84.484375 L 304.148438 85.109375 L 307.140625 86.390625 L 313.144531 89.101562 L 325.246094 95.113281 L 325.617188 95.308594 L 325.988281 95.507812 L 326.734375 95.902344 L 328.230469 96.707031 L 331.222656 98.347656 L 337.242188 101.773438 L 349.390625 109.203125 L 350.21875 109.734375 L 351.050781 110.269531 L 352.714844 111.351562 L 356.050781 113.5625 L 362.765625 118.15625 L 376.371094 128.058594 L 402.457031 149.183594 L 431.847656 176.171875 L 461.960938 207.082031 L 491.253906 240.113281 L 524.398438 280.789062 L 556.691406 323.59375 L 589.648438 370.328125 L 626.894531 426.660156 L 663.070312 484.757812 L 663.710938 485.820312 L 664.355469 486.882812 L 665.644531 489.015625 L 668.226562 493.304688 L 673.414062 501.960938 L 683.863281 519.601562 L 684.519531 520.71875 L 685.179688 521.839844 L 686.492188 524.082031 L 689.128906 528.589844 L 694.425781 537.691406 L 695.089844 538.835938 L 695.753906 539.984375 L 697.082031 542.285156 L 699.746094 546.90625 L 700.414062 548.0625 L 703.085938 552.71875 L 703.753906 553.890625 L 704.425781 555.058594 L 705.09375 556.230469 " transform="matrix(1,0,0,1,-83,-6)"/>
</g>
</svg>
